<svg width="24" height="24" viewBox="0 0 24 24" fill="none" xmlns="http://www.w3.org/2000/svg">
<path fill-rule="evenodd" clip-rule="evenodd" d="M11.293 2.29289C11.6835 1.90237 12.3167 1.90237 12.7072 2.29289L16.7072 6.29289C17.0977 6.68342 17.0977 7.31658 16.7072 7.70711C16.3167 8.09763 15.6835 8.09763 15.293 7.70711L13.0001 5.41421V15C13.0001 15.5523 12.5524 16 12.0001 16C11.4478 16 11.0001 15.5523 11.0001 15V5.41421L8.7072 7.70711C8.31668 8.09763 7.68351 8.09763 7.29299 7.70711C6.90247 7.31658 6.90247 6.68342 7.29299 6.29289L11.293 2.29289ZM6.86252 9.99995C6.90771 9.99998 6.95356 10 7.0001 10C7.55238 10 8.0001 10.4477 8.0001 11C8.0001 11.5523 7.55238 12 7.0001 12C6.00574 12 5.70474 12.0086 5.48246 12.0681C4.79227 12.2531 4.25318 12.7922 4.06824 13.4824C4.00869 13.7046 4.0001 14.0056 4.0001 15V16.2C4.0001 17.0566 4.00087 17.6389 4.03765 18.089C4.07347 18.5274 4.13839 18.7516 4.21808 18.908C4.40983 19.2843 4.71579 19.5903 5.09211 19.782C5.24852 19.8617 5.47272 19.9266 5.91113 19.9624C6.36122 19.9992 6.94352 20 7.8001 20H16.2001C17.0567 20 17.639 19.9992 18.0891 19.9624C18.5275 19.9266 18.7517 19.8617 18.9081 19.782C19.2844 19.5903 19.5904 19.2843 19.7821 18.908C19.8618 18.7516 19.9267 18.5274 19.9625 18.089C19.9993 17.6389 20.0001 17.0566 20.0001 16.2V15C20.0001 14.0056 19.9915 13.7046 19.9319 13.4824C19.747 12.7922 19.2079 12.2531 18.5177 12.0681C18.2955 12.0086 17.9944 12 17.0001 12C16.4478 12 16.0001 11.5523 16.0001 11C16.0001 10.4477 16.4478 10 17.0001 10C17.0466 10 17.0925 9.99998 17.1377 9.99995C17.9331 9.99952 18.5237 9.9992 19.0354 10.1363C20.4157 10.5062 21.4939 11.5844 21.8638 12.9647C22.0009 13.4764 22.0006 14.067 22.0001 14.8624C22.0001 14.9076 22.0001 14.9535 22.0001 15V16.2413C22.0001 17.0463 22.0001 17.7106 21.9559 18.2518C21.91 18.8139 21.8114 19.3306 21.5641 19.816C21.1806 20.5686 20.5687 21.1805 19.8161 21.564C19.3307 21.8113 18.814 21.9099 18.2519 21.9558C17.7107 22 17.0464 22 16.2414 22H7.75877C6.95381 22 6.28946 22 5.74827 21.9558C5.18617 21.9099 4.66947 21.8113 4.18414 21.564C3.43149 21.1805 2.81956 20.5686 2.43607 19.816C2.18878 19.3306 2.09022 18.8139 2.04429 18.2518C2.00007 17.7106 2.00008 17.0463 2.0001 16.2413L2.0001 15C2.0001 14.9535 2.00007 14.9076 2.00005 14.8624C1.99962 14.067 1.9993 13.4764 2.13639 12.9647C2.50626 11.5844 3.58445 10.5062 4.96482 10.1363C5.47647 9.9992 6.06713 9.99952 6.86252 9.99995Z" fill="#121212"/>
</svg>
