<svg width="32" height="32" viewBox="0 0 32 32" fill="none" xmlns="http://www.w3.org/2000/svg">
<g filter="url(#filter0_d_1855_534962)">
<path d="M21 10V8C21 5.23858 18.7614 3 16 3C13.2386 3 11 5.23858 11 8V10M16 14.5V16.5M12.8 21H19.2C20.8802 21 21.7202 21 22.362 20.673C22.9265 20.3854 23.3854 19.9265 23.673 19.362C24 18.7202 24 17.8802 24 16.2V14.8C24 13.1198 24 12.2798 23.673 11.638C23.3854 11.0735 22.9265 10.6146 22.362 10.327C21.7202 10 20.8802 10 19.2 10H12.8C11.1198 10 10.2798 10 9.63803 10.327C9.07354 10.6146 8.6146 11.0735 8.32698 11.638C8 12.2798 8 13.1198 8 14.8V16.2C8 17.8802 8 18.7202 8.32698 19.362C8.6146 19.9265 9.07354 20.3854 9.63803 20.673C10.2798 21 11.1198 21 12.8 21Z" stroke="black" stroke-opacity="0.88" stroke-width="1.5" stroke-linecap="round" stroke-linejoin="round"/>
</g>
<defs>
<filter id="filter0_d_1855_534962" x="0" y="0" width="32" height="32" filterUnits="userSpaceOnUse" color-interpolation-filters="sRGB">
<feFlood flood-opacity="0" result="BackgroundImageFix"/>
<feColorMatrix in="SourceAlpha" type="matrix" values="0 0 0 0 0 0 0 0 0 0 0 0 0 0 0 0 0 0 127 0" result="hardAlpha"/>
<feOffset dy="4"/>
<feGaussianBlur stdDeviation="2"/>
<feComposite in2="hardAlpha" operator="out"/>
<feColorMatrix type="matrix" values="0 0 0 0 0 0 0 0 0 0 0 0 0 0 0 0 0 0 0.25 0"/>
<feBlend mode="normal" in2="BackgroundImageFix" result="effect1_dropShadow_1855_534962"/>
<feBlend mode="normal" in="SourceGraphic" in2="effect1_dropShadow_1855_534962" result="shape"/>
</filter>
</defs>
</svg>
