<svg width="24" height="24" viewBox="0 0 24 24" fill="none" xmlns="http://www.w3.org/2000/svg">
<path fill-rule="evenodd" clip-rule="evenodd" d="M12 1C5.92487 1 1 5.92487 1 12C1 18.0751 5.92487 23 12 23C12.5598 23 13.1104 22.9581 13.6487 22.8771C14.1949 22.795 14.571 22.2856 14.4889 21.7395C14.4067 21.1934 13.8974 20.8172 13.3512 20.8994C12.911 20.9656 12.4599 21 12 21C7.02944 21 3 16.9706 3 12C3 7.02944 7.02944 3 12 3C16.9706 3 21 7.02944 21 12C21 12.5523 21.4477 13 22 13C22.5523 13 23 12.5523 23 12C23 5.92487 18.0751 1 12 1ZM12 6C11.4477 6 11 6.44772 11 7V7.15694C9.42638 7.22505 8 8.41186 8 10.0769C8 11.7922 9.51378 13 11.1429 13H12.8571C13.5882 13 14 13.5081 14 13.9231C14 14.3381 13.5882 14.8462 12.8571 14.8462H11C10.3484 14.8462 10 14.396 10 14.0513C10 13.499 9.55229 13.0513 9 13.0513C8.44772 13.0513 8 13.499 8 14.0513C8 15.6959 9.44994 16.8462 11 16.8462V17C11 17.5523 11.4477 18 12 18C12.5523 18 13 17.5523 13 17V16.8431C14.5736 16.7749 16 15.5881 16 13.9231C16 12.2078 14.4862 11 12.8571 11H11.1429C10.4118 11 10 10.4919 10 10.0769C10 9.66193 10.4118 9.15385 11.1429 9.15385H13C13.6516 9.15385 14 9.60403 14 9.94872C14 10.501 14.4477 10.9487 15 10.9487C15.5523 10.9487 16 10.501 16 9.94872C16 8.3041 14.5501 7.15385 13 7.15385V7C13 6.44772 12.5523 6 12 6ZM19.5 14.5C18.9477 14.5 18.5 14.9477 18.5 15.5V17.5H16.5C15.9477 17.5 15.5 17.9477 15.5 18.5C15.5 19.0523 15.9477 19.5 16.5 19.5H18.5V21.5C18.5 22.0523 18.9477 22.5 19.5 22.5C20.0523 22.5 20.5 22.0523 20.5 21.5V19.5H22.5C23.0523 19.5 23.5 19.0523 23.5 18.5C23.5 17.9477 23.0523 17.5 22.5 17.5H20.5V15.5C20.5 14.9477 20.0523 14.5 19.5 14.5Z" fill="#121212"/>
</svg>
