<svg width="24" height="24" viewBox="0 0 24 24" fill="none" xmlns="http://www.w3.org/2000/svg">
<path d="M19.3849 10.9553C19.1057 10.5911 18.7657 10.2754 18.4501 9.95979C17.6367 9.23135 16.714 8.7093 15.937 7.94444C14.128 6.17191 13.7274 3.24602 14.8807 1C13.7274 1.27923 12.7197 1.91055 11.8577 2.60256C8.71331 5.12782 7.47496 9.58343 8.95612 13.4077C9.00468 13.5291 9.05324 13.6505 9.05324 13.8084C9.05324 14.0755 8.87113 14.3183 8.62832 14.4154C8.34909 14.5368 8.05771 14.464 7.82704 14.2697C7.75813 14.212 7.70051 14.142 7.65707 14.0633C6.28518 12.3272 6.06665 9.83838 6.98934 7.84732C4.96185 9.49844 3.85705 12.2908 4.01488 14.9253C4.08772 15.5323 4.16057 16.1394 4.36696 16.7464C4.53693 17.4748 4.86472 18.2033 5.22894 18.8467C6.54013 20.9471 8.81043 22.4525 11.2507 22.756C13.8488 23.0838 16.629 22.6103 18.6201 20.8135C20.8418 18.7982 21.6188 15.5688 20.4776 12.8007L20.3198 12.485C20.0648 11.9266 19.3849 10.9553 19.3849 10.9553ZM15.5485 18.6039C15.2085 18.8953 14.6501 19.211 14.213 19.3324C12.8533 19.818 11.4935 19.1381 10.6922 18.3368C12.137 17.9969 12.9989 16.9285 13.2539 15.848C13.4603 14.8767 13.0718 14.0755 12.914 13.1406C12.7683 12.2422 12.7926 11.4774 13.1204 10.6397C13.351 11.101 13.5938 11.5624 13.8852 11.9266C14.82 13.1406 16.2891 13.6748 16.6047 15.3259C16.6533 15.4959 16.6776 15.6659 16.6776 15.848C16.714 16.8435 16.2769 17.9362 15.5485 18.6039Z" fill="#121212"/>
</svg>
