<svg width="48" height="48" viewBox="0 0 48 48" fill="none" xmlns="http://www.w3.org/2000/svg">
<rect width="48" height="48" rx="24" fill="#262626"/>
<path d="M31.9013 27.9638C32.4314 27.3741 32.9024 26.723 33.3142 26.0079C34.3077 24.2842 34.8044 22.3897 34.8044 20.3297C34.8044 18.2698 34.3128 16.3406 33.3271 14.6062C32.3414 12.8717 31.0185 11.5056 29.3559 10.5023C27.6933 9.50165 25.8942 9 23.9614 9C22.0285 9 20.1986 9.50165 18.5257 10.5023C16.8528 11.5056 15.5197 12.8664 14.5262 14.5928C13.5328 16.3166 13.036 18.2004 13.036 20.2417C13.036 22.2829 13.5328 24.2868 14.5262 26.0213C14.9509 26.7604 15.4347 27.4328 15.9778 28.0358C14.1324 29.2019 13 30.7682 13 32.4866C13 36.0782 17.9338 39 24 39C30.0662 39 35 36.0782 35 32.4866C35 30.7309 33.8187 29.1325 31.9013 27.9611V27.9638ZM16.1039 35.275C15.0101 34.4345 14.4181 33.4659 14.4181 32.4893C14.4181 31.2805 15.3215 30.0878 16.9609 29.1325C16.9918 29.1138 17.0227 29.0978 17.0562 29.0792C17.5066 29.4581 17.9878 29.8023 18.5026 30.1118C18.554 30.1438 18.6081 30.1732 18.6596 30.2025C16.8992 31.0991 15.7822 32.4306 15.7822 33.9142C15.7822 34.3865 15.8954 34.8454 16.1065 35.2777L16.1039 35.275ZM24 37.3323C21.5035 37.3323 20.1394 36.2089 20.1394 35.6326C20.1394 35.0562 21.5009 33.9328 24 33.9328C26.4991 33.9328 27.8606 35.0562 27.8606 35.6326C27.8606 36.2089 26.4991 37.3323 24 37.3323ZM29.2375 36.0141C29.2632 35.8887 29.2787 35.7607 29.2787 35.6299C29.2787 33.8822 26.9109 32.4599 24.0026 32.4599C21.0943 32.4599 18.7265 33.8822 18.7265 35.6299C18.7265 35.7607 18.7419 35.8887 18.7677 36.0141C17.8 35.4191 17.2003 34.68 17.2003 33.9115C17.2003 32.7534 18.5566 31.6648 20.4766 31.0377C21.5473 31.4113 22.6642 31.5981 23.8276 31.5981C25.0758 31.5981 26.2649 31.3953 27.3973 30.995C29.3893 31.6141 30.8074 32.7268 30.8074 33.9115C30.8074 34.68 30.2078 35.4218 29.2401 36.0141H29.2375ZM31.8961 35.275C32.1072 34.8427 32.223 34.3838 32.223 33.9115C32.223 32.3959 31.0545 31.0377 29.2272 30.1385C29.2529 30.1225 29.2787 30.1091 29.3044 30.0958C29.8474 29.7729 30.3545 29.41 30.828 29.0098C30.9001 29.0498 30.9747 29.0898 31.0442 29.1299C32.6837 30.0878 33.587 31.2805 33.587 32.4866C33.587 33.4632 32.9951 34.4318 31.9013 35.2723L31.8961 35.275Z" fill="#05D65A"/>
</svg>
