<svg width="32" height="32" viewBox="0 0 32 32" fill="none" xmlns="http://www.w3.org/2000/svg">
<g filter="url(#filter0_d_1855_534963)">
<path d="M24 21C24 19.6044 24 18.9067 23.8278 18.3389C23.44 17.0605 22.4395 16.06 21.1611 15.6722C20.5933 15.5 19.8956 15.5 18.5 15.5H13.5C12.1044 15.5 11.4067 15.5 10.8389 15.6722C9.56045 16.06 8.56004 17.0605 8.17224 18.3389C8 18.9067 8 19.6044 8 21M20.5 7.5C20.5 9.98528 18.4853 12 16 12C13.5147 12 11.5 9.98528 11.5 7.5C11.5 5.01472 13.5147 3 16 3C18.4853 3 20.5 5.01472 20.5 7.5Z" stroke="black" stroke-opacity="0.88" stroke-width="1.5" stroke-linecap="round" stroke-linejoin="round"/>
</g>
<defs>
<filter id="filter0_d_1855_534963" x="0" y="0" width="32" height="32" filterUnits="userSpaceOnUse" color-interpolation-filters="sRGB">
<feFlood flood-opacity="0" result="BackgroundImageFix"/>
<feColorMatrix in="SourceAlpha" type="matrix" values="0 0 0 0 0 0 0 0 0 0 0 0 0 0 0 0 0 0 127 0" result="hardAlpha"/>
<feOffset dy="4"/>
<feGaussianBlur stdDeviation="2"/>
<feComposite in2="hardAlpha" operator="out"/>
<feColorMatrix type="matrix" values="0 0 0 0 0 0 0 0 0 0 0 0 0 0 0 0 0 0 0.25 0"/>
<feBlend mode="normal" in2="BackgroundImageFix" result="effect1_dropShadow_1855_534963"/>
<feBlend mode="normal" in="SourceGraphic" in2="effect1_dropShadow_1855_534963" result="shape"/>
</filter>
</defs>
</svg>
