<svg width="48" height="48" viewBox="0 0 48 48" fill="none" xmlns="http://www.w3.org/2000/svg">
<path d="M24 48C37.2548 48 48 37.2548 48 24C48 10.7452 37.2548 0 24 0C10.7452 0 0 10.7452 0 24C0 37.2548 10.7452 48 24 48Z" fill="#8247E5"/>
<path d="M31.6384 18.9429C31.0848 18.6131 30.3653 18.6131 29.7565 18.9429L25.4391 21.4715L22.5055 23.1206L18.1882 25.6491C17.6347 25.9789 16.9151 25.9789 16.3063 25.6491L12.8745 23.6701C12.321 23.3404 11.9336 22.7358 11.9336 22.0761V18.1734C11.9336 17.5137 12.2657 16.9091 12.8745 16.5793L16.2509 14.6554C16.8044 14.3256 17.524 14.3256 18.1328 14.6554L21.5092 16.5793C22.0627 16.9091 22.4502 17.5137 22.4502 18.1734V20.7019L25.3837 18.9979V16.4694C25.3837 15.8097 25.0517 15.2051 24.4428 14.8753L18.1882 11.2474C17.6347 10.9175 16.9151 10.9175 16.3063 11.2474L9.94096 14.8753C9.3321 15.2051 9 15.8097 9 16.4694V23.7802C9 24.4398 9.3321 25.0445 9.94096 25.3743L16.3063 29.0022C16.8598 29.332 17.5793 29.332 18.1882 29.0022L22.5055 26.5286L25.4391 24.8246L29.7565 22.351C30.3099 22.0212 31.0295 22.0212 31.6384 22.351L35.0147 24.2749C35.5682 24.6047 35.9557 25.2094 35.9557 25.869V29.7717C35.9557 30.4314 35.6236 31.036 35.0147 31.3658L31.6384 33.3447C31.0848 33.6745 30.3653 33.6745 29.7565 33.3447L26.3801 31.4208C25.8265 31.091 25.4391 30.4863 25.4391 29.8267V27.2982L22.5055 29.0022V31.5307C22.5055 32.1902 22.8377 32.795 23.4464 33.1248L29.8118 36.7527C30.3653 37.0825 31.0848 37.0825 31.6937 36.7527L38.0591 33.1248C38.6125 32.795 39 32.1902 39 31.5307V24.2198C39 23.5603 38.6678 22.9557 38.0591 22.6259L31.6384 18.9429Z" fill="white"/>
</svg>

