<svg fill="none" height="48" viewBox="0 0 48 48" width="48" xmlns="http://www.w3.org/2000/svg" xmlns:xlink="http://www.w3.org/1999/xlink"><linearGradient id="a" gradientUnits="userSpaceOnUse" x1="10.8504" x2="37.1496" y1="37.1496" y2="10.8504"><stop offset="0" stop-color="#9945ff"/><stop offset=".2" stop-color="#7962e7"/><stop offset="1" stop-color="#00d18c"/></linearGradient><path d="m24 48c13.2548 0 24-10.7452 24-24s-10.7452-24-24-24-24 10.7452-24 24 10.7452 24 24 24z" fill="#000"/><path clip-rule="evenodd" d="m14.8104 30.6156c.0904-.0993.2004-.1787.3232-.233.1226-.0544.2554-.0825.3896-.0826l21.9936.018c.0937.0003.1853.0276.2637.0789.0784.0512.1402.1242.1779.2098.0378.0857.0498.1806.0347.273s-.0568.1785-.1199.2477l-4.6836 5.157c-.0903.0994-.2005.1788-.3233.2332-.1228.0543-.2557.0824-.3901.0824l-21.993-.018c-.0936-.0002-.1852-.0276-.2636-.0788-.0784-.0513-.1402-.1242-.178-.2099-.0377-.0857-.04977-.1806-.0346-.273.0151-.0924.0567-.1784.1198-.2477zm23.0628-4.293c.0631.0693.1048.1553.1199.2477s.0031.1873-.0347.273c-.0377.0857-.0995.1586-.1779.2099-.0784.0512-.17.0786-.2637.0788l-21.993.018c-.1343 0-.2671-.0281-.39-.0824-.1229-.0544-.233-.1338-.3234-.2332l-4.6836-5.16c-.0631-.0692-.1047-.1553-.1198-.2477-.01517-.0924-.0031-.1873.0346-.273.0378-.0856.0996-.1586.178-.2098.0784-.0513.17-.0786.2636-.0789l21.9936-.018c.1343.0001.267.0282.3898.0826.1227.0543.2328.1337.323.233zm-23.0628-14.607c.0904-.0993.2004-.1787.3232-.233.1226-.0544.2554-.0825.3896-.0826l21.9936.018c.0937.0002.1853.0276.2637.0789.0784.0512.1402.1241.1779.2098.0378.0858.0498.1806.0347.273s-.0568.1785-.1199.2477l-4.6836 5.157c-.0903.0994-.2005.1788-.3233.2332-.1228.0543-.2557.0824-.3901.0824l-21.993-.018c-.0936-.0002-.1852-.0276-.2636-.0788-.0784-.0513-.1402-.1242-.178-.2099-.0377-.0857-.04977-.1806-.0346-.273.0151-.0924.0567-.1784.1198-.2477z" fill="url(#a)" fill-rule="evenodd"/></svg>