<svg width="48" height="48" viewBox="0 0 48 48" fill="none" xmlns="http://www.w3.org/2000/svg">
<path d="M24 48C37.2548 48 48 37.2548 48 24C48 10.7452 37.2548 0 24 0C10.7452 0 0 10.7452 0 24C0 37.2548 10.7452 48 24 48Z" fill="#EB0029"/>
<path d="M33.8184 15.308L10 11L22.5348 42L40 21.0861L33.8184 15.308ZM33.4351 17.2062L37.0784 20.6097L27.1132 22.3833L33.4351 17.2062ZM24.9493 22.0286L14.4457 13.4669L31.6126 16.5715L24.9493 22.0286ZM24.2006 23.5428L22.4886 37.459L13.2541 14.619L24.2006 23.5428ZM25.7859 24.2815L36.8204 22.3174L24.1634 37.4736L25.7859 24.2815Z" fill="white"/>
</svg>

