<svg width="24" height="24" viewBox="0 0 24 24" fill="none" xmlns="http://www.w3.org/2000/svg">
<path fill-rule="evenodd" clip-rule="evenodd" d="M1.25 12C1.25 6.06294 6.06294 1.25 12 1.25C17.9371 1.25 22.75 6.06294 22.75 12C22.75 17.9371 17.9371 22.75 12 22.75C6.06294 22.75 1.25 17.9371 1.25 12ZM16.7381 7.2619C15.3889 5.9127 13.2014 5.9127 11.8522 7.2619L11.0871 8.02695C10.7943 8.31985 10.7943 8.79472 11.0871 9.08761C11.38 9.38051 11.8549 9.38051 12.1478 9.08761L12.9129 8.32256C13.6763 7.55915 14.914 7.55915 15.6774 8.32256C16.4409 9.08598 16.4409 10.3237 15.6774 11.0871L14.9124 11.8522C14.6195 12.1451 14.6195 12.62 14.9124 12.9129C15.2053 13.2057 15.6802 13.2057 15.973 12.9129L16.7381 12.1478C18.0873 10.7986 18.0873 8.61111 16.7381 7.2619ZM14.4237 10.6369C14.7166 10.344 14.7166 9.86915 14.4237 9.57626C14.1308 9.28337 13.656 9.28337 13.3631 9.57626L9.57627 13.3631C9.28338 13.6559 9.28338 14.1308 9.57627 14.4237C9.86916 14.7166 10.344 14.7166 10.6369 14.4237L14.4237 10.6369ZM9.08761 12.1478C9.38051 11.8549 9.38051 11.38 9.08761 11.0871C8.79472 10.7943 8.31985 10.7943 8.02695 11.0871L7.2619 11.8522C5.9127 13.2014 5.9127 15.3889 7.2619 16.7381C8.61111 18.0873 10.7986 18.0873 12.1478 16.7381L12.9129 15.973C13.2057 15.6802 13.2057 15.2053 12.9129 14.9124C12.62 14.6195 12.1451 14.6195 11.8522 14.9124L11.0871 15.6774C10.3237 16.4409 9.08598 16.4409 8.32256 15.6774C7.55915 14.914 7.55915 13.6763 8.32256 12.9129L9.08761 12.1478Z" fill="#121212"/>
</svg>
