<svg width="24" height="24" viewBox="0 0 24 24" fill="none" xmlns="http://www.w3.org/2000/svg">
<path fill-rule="evenodd" clip-rule="evenodd" d="M5.15727 1C5.17146 1 5.18571 1 5.2 1C5.75229 1 6.2 1.44772 6.2 2C6.2 2.55229 5.75229 3 5.2 3C4.62112 3 4.25564 3.00102 3.97938 3.02681C3.71938 3.05109 3.63377 3.09085 3.59523 3.11329C3.41512 3.21818 3.245 3.40026 3.13133 3.65522C3.09014 3.74761 3.04822 3.89831 3.0247 4.2272C3.0006 4.5644 3 5.00263 3 5.65715C3 6.20943 2.55229 6.65715 2 6.65715C1.44772 6.65715 1 6.20943 1 5.65715L1 5.6217C0.999989 5.0118 0.99998 4.50163 1.02979 4.08458C1.06078 3.65118 1.12785 3.23738 1.30465 2.84083C1.57447 2.23562 2.01627 1.71836 2.58881 1.38497L3.09202 2.24913L2.58881 1.38497C2.97809 1.15828 3.38643 1.07348 3.79343 1.03547C4.17386 0.999953 4.63377 0.999975 5.15727 1ZM20.0206 3.02681C19.7444 3.00102 19.3789 3 18.8 3C18.2477 3 17.8 2.55229 17.8 2C17.8 1.44772 18.2477 1 18.8 1L18.8427 1C19.3662 0.999975 19.8261 0.999953 20.2066 1.03548C20.6136 1.07348 21.0219 1.15828 21.4112 1.38497C21.9837 1.71836 22.4255 2.23562 22.6954 2.84083C22.8722 3.23738 22.9392 3.65119 22.9702 4.08459C23 4.50163 23 5.0118 23 5.62167V5.65715C23 6.20943 22.5523 6.65715 22 6.65715C21.4477 6.65715 21 6.20943 21 5.65715C21 5.00264 20.9994 4.56441 20.9753 4.22721C20.9518 3.89831 20.9099 3.7476 20.8687 3.65523C20.755 3.40026 20.5849 3.21818 20.4048 3.11329L20.9044 2.25535L20.4048 3.11329C20.3662 3.09085 20.2806 3.05109 20.0206 3.02681ZM12 6C10.6193 6 9.5 7.11929 9.5 8.5C9.5 9.88071 10.6193 11 12 11C13.3807 11 14.5 9.88071 14.5 8.5C14.5 7.11929 13.3807 6 12 6ZM7.5 8.5C7.5 6.01472 9.51472 4 12 4C14.4853 4 16.5 6.01472 16.5 8.5C16.5 10.9853 14.4853 13 12 13C9.51472 13 7.5 10.9853 7.5 8.5ZM9.66553 14C9.70937 14 9.75419 14 9.8 14H14.2C14.2458 14 14.2906 14 14.3345 14C15.0436 13.9998 15.4991 13.9997 15.8316 14.054C16.2116 14.116 16.4864 14.2618 16.7058 14.3783C16.7441 14.3986 16.7808 14.418 16.816 14.436C17.5686 14.8195 18.1805 15.4314 18.564 16.184C18.582 16.2192 18.6014 16.2559 18.6217 16.2942C18.7382 16.5136 18.884 16.7884 18.9461 17.1684C19.0004 17.5009 19.0002 17.9564 19 18.6656C19 18.7094 19 18.7542 19 18.8C19 19.3523 18.5523 19.8 18 19.8C17.4477 19.8 17 19.3523 17 18.8C17 17.9067 16.9963 17.6383 16.9722 17.4908C16.9705 17.4804 16.9701 17.4742 16.969 17.4681C16.9644 17.4426 16.9487 17.4191 16.782 17.092C16.5903 16.7157 16.2843 16.4097 15.908 16.218C15.5809 16.0513 15.5574 16.0356 15.5319 16.031C15.5258 16.03 15.5196 16.0295 15.5092 16.0278C15.3617 16.0037 15.0933 16 14.2 16H9.8C8.90666 16 8.63828 16.0037 8.49079 16.0278C8.48038 16.0295 8.47419 16.03 8.46812 16.031C8.44261 16.0356 8.4191 16.0513 8.09202 16.218C7.7157 16.4097 7.40973 16.7157 7.21799 17.092C7.05133 17.4191 7.03559 17.4426 7.03103 17.4681C7.02995 17.4742 7.0295 17.4804 7.0278 17.4908C7.00371 17.6383 7 17.9067 7 18.8C7 19.3523 6.55229 19.8 6 19.8C5.44772 19.8 5 19.3523 5 18.8C5 18.7542 4.99999 18.7094 4.99998 18.6655C4.99978 17.9564 4.99965 17.5009 5.05395 17.1684C5.11601 16.7884 5.26184 16.5136 5.37828 16.2942C5.39861 16.2559 5.41804 16.2192 5.43598 16.184C5.81947 15.4314 6.43139 14.8195 7.18404 14.436C7.21924 14.418 7.25586 14.3986 7.29417 14.3783C7.5136 14.2618 7.78843 14.116 8.16842 14.054C8.50089 13.9997 8.95639 13.9998 9.66553 14ZM22 17.0001C22.5523 17.0001 23 17.4478 23 18.0001V18.0356C23 18.6454 23 19.1556 22.9702 19.5726C22.9392 20.006 22.8722 20.4198 22.6954 20.8164C22.4255 21.4216 21.9837 21.9389 21.4112 22.2723C21.0219 22.4989 20.6136 22.5837 20.2066 22.6218C19.8261 22.6573 19.3662 22.6573 18.8427 22.6572H18.8C18.2477 22.6572 17.8 22.2095 17.8 21.6572C17.8 21.1049 18.2477 20.6572 18.8 20.6572C19.3789 20.6572 19.7444 20.6562 20.0206 20.6304C20.2806 20.6061 20.3662 20.5664 20.4048 20.5439C20.5849 20.4391 20.755 20.257 20.8687 20.002C20.9099 19.9096 20.9518 19.7589 20.9753 19.43C20.9994 19.0928 21 18.6546 21 18.0001C21 17.4478 21.4477 17.0001 22 17.0001ZM2 17.0001C2.55229 17.0001 3 17.4478 3 18.0001C3 18.6546 3.0006 19.0928 3.0247 19.43C3.04822 19.7589 3.09014 19.9096 3.13133 20.002C3.245 20.257 3.41512 20.4391 3.59523 20.5439C3.63377 20.5664 3.71938 20.6061 3.97938 20.6304C4.25564 20.6562 4.62112 20.6572 5.2 20.6572C5.75229 20.6572 6.2 21.1049 6.2 21.6572C6.2 22.2095 5.75229 22.6572 5.2 22.6572H5.1573C4.63379 22.6573 4.17387 22.6573 3.79343 22.6218C3.38642 22.5838 2.97809 22.4989 2.58881 22.2723C2.01627 21.9389 1.57447 21.4216 1.30465 20.8164C1.12785 20.4198 1.06078 20.0061 1.02979 19.5726C0.99998 19.1556 0.999989 18.6454 1 18.0355L1 18.0001C1 17.4478 1.44772 17.0001 2 17.0001Z" fill="#121212"/>
</svg>
