<svg width="40" height="40" viewBox="0 0 40 40" fill="none" xmlns="http://www.w3.org/2000/svg">
<path d="M0 8C0 3.58172 3.58172 0 8 0H32C36.4183 0 40 3.58172 40 8V32C40 36.4183 36.4183 40 32 40H8C3.58172 40 0 36.4183 0 32V8Z" fill="black"/>
<path d="M20 40C31.0457 40 40 31.0457 40 20C40 8.95431 31.0457 0 20 0C8.95431 0 0 8.95431 0 20C0 31.0457 8.95431 40 20 40Z" fill="black"/>
<path fill-rule="evenodd" clip-rule="evenodd" d="M12.3421 25.513C12.4174 25.4302 12.5091 25.3641 12.6114 25.3188C12.7136 25.2735 12.8243 25.2501 12.9361 25.25L31.2642 25.265C31.3423 25.2652 31.4186 25.288 31.4839 25.3307C31.5493 25.3734 31.6008 25.4342 31.6322 25.5056C31.6637 25.577 31.6737 25.6561 31.6611 25.7331C31.6485 25.8101 31.6138 25.8818 31.5612 25.9395L27.6582 30.237C27.5829 30.3198 27.4911 30.386 27.3888 30.4313C27.2864 30.4766 27.1757 30.5 27.0637 30.5L8.73617 30.485C8.65812 30.4848 8.58179 30.462 8.51646 30.4193C8.45113 30.3766 8.39961 30.3158 8.36816 30.2444C8.33671 30.173 8.32667 30.0939 8.33928 30.0169C8.35188 29.9399 8.38659 29.8682 8.43917 29.8105L12.3421 25.513ZM31.5612 21.9355C31.6138 21.9932 31.6485 22.0649 31.6611 22.1419C31.6737 22.2189 31.6637 22.298 31.6322 22.3694C31.6008 22.4408 31.5493 22.5016 31.4839 22.5443C31.4186 22.587 31.3423 22.6098 31.2642 22.61L12.9366 22.625C12.8247 22.625 12.714 22.6016 12.6116 22.5563C12.5092 22.511 12.4174 22.4448 12.3421 22.362L8.43917 18.062C8.38659 18.0043 8.35188 17.9326 8.33928 17.8556C8.32667 17.7786 8.33671 17.6995 8.36816 17.6281C8.39961 17.5567 8.45113 17.4959 8.51646 17.4532C8.58179 17.4105 8.65812 17.3877 8.73617 17.3875L27.0642 17.3725C27.1761 17.3726 27.2867 17.396 27.389 17.4413C27.4913 17.4866 27.583 17.5527 27.6582 17.6355L31.5612 21.9355ZM12.3421 9.763C12.4174 9.68023 12.5091 9.61408 12.6114 9.56879C12.7136 9.52351 12.8243 9.50007 12.9361 9.5L31.2642 9.515C31.3423 9.51516 31.4186 9.53798 31.4839 9.58069C31.5493 9.6234 31.6008 9.68416 31.6322 9.75559C31.6637 9.82703 31.6737 9.90606 31.6611 9.98308C31.6485 10.0601 31.6138 10.1318 31.5612 10.1895L27.6582 14.487C27.5829 14.5698 27.4911 14.636 27.3888 14.6813C27.2864 14.7266 27.1757 14.75 27.0637 14.75L8.73617 14.735C8.65812 14.7348 8.58179 14.712 8.51646 14.6693C8.45113 14.6266 8.39961 14.5658 8.36816 14.4944C8.33671 14.423 8.32667 14.3439 8.33928 14.2669C8.35188 14.1899 8.38659 14.1182 8.43917 14.0605L12.3421 9.763Z" fill="url(#paint0_linear_12089_263896)"/>
<defs>
<linearGradient id="paint0_linear_12089_263896" x1="9.04217" y1="30.958" x2="30.9581" y2="9.04199" gradientUnits="userSpaceOnUse">
<stop stop-color="#9945FF"/>
<stop offset="0.2" stop-color="#7962E7"/>
<stop offset="1" stop-color="#00D18C"/>
</linearGradient>
</defs>
</svg>
