<svg width="24" height="24" viewBox="0 0 24 24" fill="none" xmlns="http://www.w3.org/2000/svg">
<path fill-rule="evenodd" clip-rule="evenodd" d="M11.9998 6C12.3949 6 12.7531 6.23273 12.9136 6.59386L16.9136 15.5939C17.1379 16.0985 16.9106 16.6895 16.4059 16.9138C15.9012 17.1381 15.3103 16.9108 15.0859 16.4061L11.9998 9.46221L8.91357 16.4061C8.68927 16.9108 8.09831 17.1381 7.59362 16.9138C7.08894 16.6895 6.86165 16.0985 7.08595 15.5939L11.0859 6.59386C11.2465 6.23273 11.6046 6 11.9998 6Z" fill="#121212"/>
<path fill-rule="evenodd" clip-rule="evenodd" d="M7 12C7 11.4477 7.44772 11 8 11H12C12.5523 11 13 11.4477 13 12C13 12.5523 12.5523 13 12 13H8C7.44772 13 7 12.5523 7 12Z" fill="#121212"/>
<path fill-rule="evenodd" clip-rule="evenodd" d="M1 12C1 5.92487 5.92487 1 12 1C18.0751 1 23 5.92486 23 12C23 18.0751 18.0751 23 12 23C5.92486 23 1 18.0751 1 12ZM12 3C7.02943 3 3 7.02943 3 12C3 16.9705 7.02944 21 12 21C16.9705 21 21 16.9705 21 12C21 7.02944 16.9705 3 12 3Z" fill="#121212"/>
</svg>
