<svg width="17" height="17" viewBox="0 0 17 17" fill="none" xmlns="http://www.w3.org/2000/svg">
<path fill-rule="evenodd" clip-rule="evenodd" d="M5.16667 4.50016V3.16683C5.16667 2.43045 5.76362 1.8335 6.5 1.8335H12.5C13.2364 1.8335 13.8333 2.43045 13.8333 3.16683V11.1668C13.8333 11.9032 13.2364 12.5002 12.5 12.5002H11.1667V13.8335C11.1667 14.5699 10.5697 15.1668 9.83333 15.1668H3.83333C3.09695 15.1668 2.5 14.5699 2.5 13.8335V5.8335C2.5 5.09712 3.09695 4.50016 3.83333 4.50016H5.16667ZM3.83333 13.8335H9.83333V12.5002H6.5C5.76362 12.5002 5.16667 11.9032 5.16667 11.1668V5.8335H3.83333V13.8335ZM12.5 11.1668H6.5V3.16683H12.5V11.1668Z" fill="#AAAFBD"/>
</svg>
