<svg width="24" height="24" viewBox="0 0 24 24" fill="none" xmlns="http://www.w3.org/2000/svg">
<path d="M16.5 11H16.51M21 11V9C21 7.89543 20.1046 7 19 7L5 7C3.89543 7 3 6.10457 3 5M11 21H5C3.89543 21 3 20.1046 3 19V5M3 5C3 3.89543 3.89543 3 5 3H17M21 17H15M21 21H15M17 11C17 11.2761 16.7761 11.5 16.5 11.5C16.2239 11.5 16 11.2761 16 11C16 10.7239 16.2239 10.5 16.5 10.5C16.7761 10.5 17 10.7239 17 11Z" stroke="black" stroke-opacity="0.88" stroke-width="1.5" stroke-linecap="round" stroke-linejoin="round"/>
</svg>
