<svg width="24" height="24" viewBox="0 0 24 24" fill="none" xmlns="http://www.w3.org/2000/svg">
<path fill-rule="evenodd" clip-rule="evenodd" d="M3.24957 11.5C3.24957 6.39137 7.39094 2.25 12.4996 2.25C17.6082 2.25 21.7496 6.39137 21.7496 11.5C21.7496 16.6086 17.6082 20.75 12.4996 20.75C11.3292 20.75 10.2078 20.5323 9.1751 20.1344C9.08523 20.0998 9.02946 20.0783 8.98733 20.0632C8.9596 20.0532 8.94737 20.0495 8.9447 20.0487C8.93028 20.0454 8.92435 20.0447 8.92435 20.0447C8.92435 20.0447 8.91772 20.0438 8.90078 20.0431C8.90522 20.0433 8.89958 20.0426 8.86708 20.0451C8.83147 20.0478 8.78456 20.0526 8.70326 20.061L3.55365 20.5934C3.3344 20.616 3.12161 20.6381 2.94661 20.6401C2.77229 20.6422 2.49694 20.6304 2.23818 20.4725C1.92461 20.2812 1.71104 19.9617 1.65419 19.5989C1.60728 19.2994 1.70165 19.0405 1.77018 18.8802C1.83898 18.7193 1.94069 18.5311 2.04549 18.3371L3.69481 15.2843C3.76524 15.154 3.80652 15.0772 3.83517 15.0181C3.85323 14.9809 3.85945 14.9642 3.86087 14.9601C3.86814 14.9313 3.86874 14.9217 3.86874 14.9217C3.86874 14.9217 3.86969 14.9129 3.86776 14.8861C3.86675 14.8811 3.86208 14.858 3.84664 14.8057C3.82333 14.7268 3.7882 14.6222 3.73223 14.4562C3.41903 13.527 3.24957 12.5325 3.24957 11.5ZM12.4996 3.75C8.21937 3.75 4.74957 7.21979 4.74957 11.5C4.74957 12.3675 4.89182 13.2002 5.15366 13.9771C5.16148 14.0003 5.16935 14.0235 5.17723 14.0467C5.26107 14.294 5.34525 14.5422 5.36266 14.7623C5.37879 14.966 5.36447 15.1339 5.31406 15.3319C5.25974 15.5454 5.14836 15.7506 5.04218 15.9463C5.03291 15.9634 5.02368 15.9804 5.01452 15.9973L3.37887 19.0248C3.363 19.0542 3.34807 19.0819 3.334 19.108C3.36352 19.105 3.3948 19.1018 3.428 19.0983L8.54902 18.569C8.55942 18.5679 8.56987 18.5668 8.58037 18.5657C8.70302 18.5529 8.83233 18.5394 8.95809 18.5442C9.07468 18.5487 9.17055 18.5614 9.28424 18.5876C9.4072 18.616 9.54306 18.6685 9.67721 18.7203C9.68961 18.7251 9.702 18.7299 9.71436 18.7347C10.5777 19.0673 11.5164 19.25 12.4996 19.25C16.7798 19.25 20.2496 15.7802 20.2496 11.5C20.2496 7.21979 16.7798 3.75 12.4996 3.75ZM8.49957 9C8.49957 8.30964 9.05922 7.75 9.74957 7.75C10.4399 7.75 10.9996 8.30964 10.9996 9C10.9996 9.69036 10.4399 10.25 9.74957 10.25C9.05922 10.25 8.49957 9.69036 8.49957 9ZM13.9996 9C13.9996 8.30964 14.5592 7.75 15.2496 7.75C15.9399 7.75 16.4996 8.30964 16.4996 9C16.4996 9.69036 15.9399 10.25 15.2496 10.25C14.5592 10.25 13.9996 9.69036 13.9996 9ZM9.56326 13.5053L9.56145 13.5032C9.28829 13.1942 8.81645 13.1637 8.5057 13.4356C8.19397 13.7083 8.16238 14.1822 8.43514 14.4939L8.99957 14C8.43514 14.4939 8.43514 14.4939 8.43514 14.4939L8.43699 14.496L8.43933 14.4986L8.44553 14.5056L8.46389 14.5257C8.47878 14.5418 8.49897 14.5632 8.52436 14.5892C8.5751 14.641 8.64686 14.7111 8.73884 14.7934C8.92233 14.9575 9.18904 15.1724 9.53251 15.3865C10.2184 15.8141 11.2297 16.25 12.4996 16.25C13.7695 16.25 14.7807 15.8141 15.4666 15.3865C15.8101 15.1724 16.0768 14.9575 16.2603 14.7934C16.3523 14.7111 16.4241 14.641 16.4748 14.5892C16.5002 14.5632 16.5204 14.5418 16.5353 14.5257L16.5536 14.5056L16.5598 14.4986L16.5622 14.496L16.5631 14.4949C16.5631 14.4949 16.564 14.4939 15.9996 14L16.564 14.4939C16.8368 14.1822 16.8052 13.7083 16.4935 13.4356C16.1827 13.1637 15.7109 13.1942 15.4377 13.5032M15.4355 13.5057L15.4365 13.5046L15.4377 13.5032L15.4333 13.508C15.4279 13.5138 15.4178 13.5246 15.403 13.5397C15.3734 13.5699 15.3256 13.617 15.2603 13.6754C15.1294 13.7925 14.9312 13.9526 14.6731 14.1135C14.1559 14.4359 13.4172 14.75 12.4996 14.75C11.582 14.75 10.8432 14.4359 10.326 14.1135C10.0679 13.9526 9.86979 13.7925 9.73883 13.6754C9.67358 13.617 9.62571 13.5699 9.59613 13.5397C9.58136 13.5246 9.57121 13.5138 9.5658 13.508L9.56145 13.5032L9.56326 13.5053" fill="#121212"/>
</svg>
