<svg width="24" height="24" viewBox="0 0 24 24" fill="none" xmlns="http://www.w3.org/2000/svg">
<path fill-rule="evenodd" clip-rule="evenodd" d="M13.3981 1.08269C12.9908 0.905925 12.5158 1.01878 12.2316 1.35981L3.30597 12.0706L3.30045 12.0772C3.14684 12.2615 2.99136 12.4481 2.87776 12.6125C2.76973 12.7689 2.57362 13.0751 2.56755 13.4774C2.5606 13.9383 2.76601 14.3769 3.12459 14.6667C3.43753 14.9196 3.79827 14.9649 3.98758 14.982C4.18667 15.0001 4.42954 15 4.66946 15L10.8671 15L10.0076 21.876C9.95252 22.3165 10.1945 22.7405 10.6017 22.9173C11.0089 23.0941 11.4839 22.9812 11.7681 22.6402L20.6938 11.9294L20.6993 11.9227C20.8529 11.7385 21.0084 11.5519 21.122 11.3875C21.23 11.2311 21.4261 10.9249 21.4322 10.5226C21.4391 10.0616 21.2337 9.62308 20.8751 9.33332C20.5622 9.08043 20.2015 9.0351 20.0121 9.01796C19.8131 8.99993 19.5702 8.99996 19.3303 8.99999L13.1326 9L13.9921 2.12403C14.0472 1.68353 13.8053 1.25946 13.3981 1.08269ZM11.9999 13H5.1349L11.5845 5.26045L11.0076 9.87596C10.972 10.1606 11.0604 10.4468 11.2502 10.6618C11.44 10.8768 11.713 11 11.9999 11H18.8648L12.4152 18.7395L12.9921 14.124C13.0277 13.8394 12.9394 13.5532 12.7495 13.3382C12.5597 13.1232 12.2867 13 11.9999 13Z" fill="#121212"/>
</svg>
