<svg width="24" height="24" viewBox="0 0 24 24" fill="none" xmlns="http://www.w3.org/2000/svg">
<path d="M16.4548 9.84523C15.8698 9.26022 15.1753 8.79616 14.4109 8.47956C13.6466 8.16295 12.8273 8 12 8C11.1727 8 10.3535 8.16295 9.5891 8.47956C8.82475 8.79616 8.13024 9.26022 7.54523 9.84523M5 12.2L8.5 15.7L12 12.2L15.5 15.7L19 12.2M22 12C22 17.5228 17.5228 22 12 22C6.47715 22 2 17.5228 2 12C2 6.47715 6.47715 2 12 2C17.5228 2 22 6.47715 22 12Z" stroke="black" stroke-opacity="0.88" stroke-width="1.5" stroke-linecap="round" stroke-linejoin="round"/>
</svg>
