<svg width="24" height="24" viewBox="0 0 24 24" fill="none" xmlns="http://www.w3.org/2000/svg">
<path fill-rule="evenodd" clip-rule="evenodd" d="M8.53033 2.46967C8.82322 2.76256 8.82322 3.23744 8.53033 3.53033L5.81066 6.25H20C20.4142 6.25 20.75 6.58579 20.75 7C20.75 7.41421 20.4142 7.75 20 7.75H5.81066L8.53033 10.4697C8.82322 10.7626 8.82322 11.2374 8.53033 11.5303C8.23744 11.8232 7.76256 11.8232 7.46967 11.5303L3.46967 7.53033C3.17678 7.23744 3.17678 6.76256 3.46967 6.46967L7.46967 2.46967C7.76256 2.17678 8.23744 2.17678 8.53033 2.46967ZM15.4697 12.4697C15.7626 12.1768 16.2374 12.1768 16.5303 12.4697L20.5303 16.4697C20.8232 16.7626 20.8232 17.2374 20.5303 17.5303L16.5303 21.5303C16.2374 21.8232 15.7626 21.8232 15.4697 21.5303C15.1768 21.2374 15.1768 20.7626 15.4697 20.4697L18.1893 17.75H4C3.58579 17.75 3.25 17.4142 3.25 17C3.25 16.5858 3.58579 16.25 4 16.25H18.1893L15.4697 13.5303C15.1768 13.2374 15.1768 12.7626 15.4697 12.4697Z" fill="#121212" stroke="#121212" stroke-width="0.5" stroke-linecap="round" stroke-linejoin="round"/>
</svg>
