<svg width="24" height="24" viewBox="0 0 24 24" fill="none" xmlns="http://www.w3.org/2000/svg">
<path fill-rule="evenodd" clip-rule="evenodd" d="M12 3C7.02944 3 3 7.02944 3 12C3 16.9706 7.02944 21 12 21C16.9706 21 21 16.9706 21 12C21 7.02944 16.9706 3 12 3ZM1 12C1 5.92487 5.92487 1 12 1C18.0751 1 23 5.92487 23 12C23 18.0751 18.0751 23 12 23C5.92487 23 1 18.0751 1 12ZM9.20642 7.55568C10.0921 7.18882 11.0414 7 12 7C12.9587 7 13.9079 7.18882 14.7936 7.55568C15.6793 7.92254 16.484 8.46025 17.1619 9.13812C17.5524 9.52864 17.5524 10.1618 17.1619 10.5523C16.7714 10.9429 16.1382 10.9429 15.7477 10.5523C15.2555 10.0602 14.6713 9.66979 14.0282 9.40344C13.3852 9.13709 12.696 9 12 9C11.304 9 10.6148 9.13709 9.97178 9.40344C9.32876 9.66979 8.74449 10.0602 8.25234 10.5523C7.86182 10.9429 7.22865 10.9429 6.83813 10.5523C6.4476 10.1618 6.4476 9.52865 6.83813 9.13812C7.51599 8.46025 8.32074 7.92254 9.20642 7.55568ZM4.29289 11.4929C4.68342 11.1024 5.31658 11.1024 5.70711 11.4929L8.5 14.2858L11.2929 11.4929C11.4804 11.3054 11.7348 11.2 12 11.2C12.2652 11.2 12.5196 11.3054 12.7071 11.4929L15.5 14.2858L18.2929 11.4929C18.6834 11.1024 19.3166 11.1024 19.7071 11.4929C20.0976 11.8834 20.0976 12.5166 19.7071 12.9071L16.2071 16.4071C16.0196 16.5946 15.7652 16.7 15.5 16.7C15.2348 16.7 14.9804 16.5946 14.7929 16.4071L12 13.6142L9.20711 16.4071C9.01957 16.5946 8.76522 16.7 8.5 16.7C8.23478 16.7 7.98043 16.5946 7.79289 16.4071L4.29289 12.9071C3.90237 12.5166 3.90237 11.8834 4.29289 11.4929Z" fill="#121212"/>
</svg>
