<svg width="24" height="24" viewBox="0 0 24 24" fill="none" xmlns="http://www.w3.org/2000/svg">
<path fill-rule="evenodd" clip-rule="evenodd" d="M12.0002 1C10.1437 1 8.36323 1.7375 7.05048 3.05025C5.73772 4.36301 5.00023 6.14348 5.00023 8C5.00023 10.9127 4.26822 12.8439 3.50084 14.0771L3.48877 14.0965C3.1316 14.6705 2.84922 15.1243 2.65882 15.4547C2.56338 15.6203 2.47646 15.7797 2.4121 15.9215C2.37995 15.9923 2.34402 16.079 2.31594 16.1733C2.29252 16.2519 2.24825 16.419 2.26488 16.6223C2.2761 16.7595 2.30408 16.993 2.43811 17.2343C2.57215 17.4756 2.75565 17.6227 2.86623 17.7047C3.11644 17.8903 3.40339 17.9328 3.50047 17.9471L3.50431 17.9477C3.65169 17.9695 3.81894 17.9804 3.98775 17.9869C4.3229 18 4.78673 18 5.36351 18H18.6369C19.2137 18 19.6776 18 20.0127 17.9869C20.1815 17.9804 20.3488 17.9695 20.4961 17.9477L20.5 17.9471C20.5971 17.9328 20.884 17.8903 21.1342 17.7047C21.2448 17.6227 21.4283 17.4756 21.5623 17.2343C21.6964 16.993 21.7243 16.7595 21.7356 16.6223C21.7522 16.419 21.7079 16.2519 21.6845 16.1733C21.6564 16.079 21.6205 15.9923 21.5884 15.9215C21.524 15.7797 21.4371 15.6203 21.3416 15.4547C21.1512 15.1243 20.8689 14.6705 20.5117 14.0965L20.5085 14.0915L20.4996 14.0771C19.7322 12.8438 19.0002 10.9127 19.0002 8C19.0002 6.14348 18.2627 4.36301 16.95 3.05025C15.6372 1.7375 13.8567 1 12.0002 1ZM8.46469 4.46447C9.40237 3.52678 10.6741 3 12.0002 3C13.3263 3 14.5981 3.52678 15.5358 4.46447C16.4734 5.40215 17.0002 6.67392 17.0002 8C17.0002 11.2677 17.8273 13.5681 18.8015 15.1337C19.0142 15.4756 19.1919 15.7612 19.3371 15.9988C19.1303 16 18.8899 16 18.6114 16H5.38908C5.11051 16 4.87017 16 4.66331 15.9988C4.80856 15.7612 4.98621 15.4756 5.19894 15.1337C6.17317 13.5681 7.00023 11.2677 7.00023 8C7.00023 6.67392 7.52701 5.40215 8.46469 4.46447ZM10.0002 20C9.44794 20 9.00023 20.4477 9.00023 21C9.00023 21.5523 9.44794 22 10.0002 22H14.0002C14.5525 22 15.0002 21.5523 15.0002 21C15.0002 20.4477 14.5525 20 14.0002 20H10.0002Z" fill="#121212"/>
</svg>
