<svg width="40" height="40" viewBox="0 0 40 40" fill="none" xmlns="http://www.w3.org/2000/svg">
<rect width="40" height="40" rx="8" fill="#FFF6DB"/>
<path d="M25.9028 16.4583C25.9028 15.854 25.6722 15.2498 25.2112 14.7888C24.7502 14.3277 24.1459 14.0972 23.5417 14.0972M23.5417 23.5417C27.4537 23.5417 30.625 20.3704 30.625 16.4583C30.625 12.5463 27.4537 9.375 23.5417 9.375C19.6297 9.375 16.4583 12.5463 16.4583 16.4583C16.4583 16.7814 16.48 17.0995 16.5219 17.4111C16.5908 17.9236 16.6252 18.1799 16.602 18.342C16.5779 18.5109 16.5471 18.6019 16.4639 18.7509C16.384 18.8938 16.2431 19.0346 15.9615 19.3163L9.92824 25.3495C9.72406 25.5537 9.62197 25.6558 9.54897 25.7749C9.48424 25.8806 9.43654 25.9957 9.40762 26.1162C9.375 26.2521 9.375 26.3964 9.375 26.6852V28.7361C9.375 29.3973 9.375 29.7279 9.50367 29.9804C9.61686 30.2025 9.79746 30.3831 10.0196 30.4963C10.2721 30.625 10.6027 30.625 11.2639 30.625H14.0972V28.2639H16.4583V25.9028H18.8194L20.6837 24.0385C20.9654 23.7569 21.1062 23.616 21.2491 23.5361C21.3981 23.4529 21.4891 23.4221 21.658 23.398C21.8201 23.3748 22.0764 23.4092 22.5889 23.4781C22.9005 23.52 23.2186 23.5417 23.5417 23.5417Z" stroke="#FFC211" stroke-width="1.5" stroke-linecap="round" stroke-linejoin="round"/>
</svg>
