<svg width="24" height="24" viewBox="0 0 24 24" fill="none" xmlns="http://www.w3.org/2000/svg">
<path d="M14 17.5C14 15.567 15.567 14 17.5 14C19.433 14 21 15.567 21 17.5C21 19.433 19.433 21 17.5 21C15.567 21 14 19.433 14 17.5Z" stroke="black" stroke-opacity="0.88" stroke-width="1.5" stroke-linecap="round" stroke-linejoin="round"/>
<path d="M4 4.4C4 3.90995 4 3.66493 4.09537 3.47776C4.17926 3.31312 4.31312 3.17926 4.47776 3.09537C4.66493 3 4.90995 3 5.4 3H9.6C10.09 3 10.3351 3 10.5222 3.09537C10.6869 3.17926 10.8207 3.31312 10.9046 3.47776C11 3.66493 11 3.90995 11 4.4V8.6C11 9.09005 11 9.33507 10.9046 9.52224C10.8207 9.68688 10.6869 9.82074 10.5222 9.90463C10.3351 10 10.09 10 9.6 10H5.4C4.90995 10 4.66493 10 4.47776 9.90463C4.31312 9.82074 4.17926 9.68688 4.09537 9.52224C4 9.33507 4 9.09005 4 8.6V4.4Z" stroke="black" stroke-opacity="0.88" stroke-width="1.5" stroke-linecap="round" stroke-linejoin="round"/>
<path d="M17.5 10V3M14 6.5H21" stroke="black" stroke-opacity="0.88" stroke-width="1.5" stroke-linecap="round" stroke-linejoin="round"/>
<path d="M4.125 20.375L10.375 14.125M4.125 14.125L10.375 20.375" stroke="black" stroke-opacity="0.88" stroke-width="1.5" stroke-linecap="round" stroke-linejoin="round"/>
</svg>
