<svg width="24" height="24" viewBox="0 0 24 24" fill="none" xmlns="http://www.w3.org/2000/svg">
<path fill-rule="evenodd" clip-rule="evenodd" d="M12 3C7.02944 3 3 7.02944 3 12C3 16.9706 7.02944 21 12 21C16.9706 21 21 16.9706 21 12C21 7.02944 16.9706 3 12 3ZM1 12C1 5.92487 5.92487 1 12 1C18.0751 1 23 5.92487 23 12C23 18.0751 18.0751 23 12 23C5.92487 23 1 18.0751 1 12Z" fill="#121212"/>
<path fill-rule="evenodd" clip-rule="evenodd" d="M11.6754 7.08513C13.1223 5.63829 15.468 5.63829 16.9149 7.08513C18.3617 8.53196 18.3617 10.8777 16.9149 12.3246L16.1498 13.0896C15.7593 13.4802 15.1261 13.4802 14.7356 13.0896C14.3451 12.6991 14.3451 12.0659 14.7356 11.6754L15.5007 10.9104C16.1664 10.2446 16.1664 9.16513 15.5007 8.49934C14.8349 7.83355 13.7554 7.83355 13.0896 8.49934L12.3246 9.26439C11.9341 9.65491 11.3009 9.65491 10.9104 9.26439C10.5198 8.87386 10.5198 8.2407 10.9104 7.85018L11.6754 7.08513ZM14.6005 9.39948C14.991 9.79001 14.991 10.4232 14.6005 10.8137L10.8137 14.6005C10.4232 14.991 9.79002 14.991 9.39949 14.6005C9.00897 14.21 9.00897 13.5768 9.39949 13.1863L13.1863 9.39948C13.5768 9.00896 14.21 9.00896 14.6005 9.39948ZM9.26439 10.9104C9.65491 11.3009 9.65491 11.9341 9.26439 12.3246L8.49934 13.0896C7.83355 13.7554 7.83355 14.8349 8.49934 15.5007C9.16513 16.1664 10.2446 16.1664 10.9104 15.5007L11.6754 14.7356C12.0659 14.3451 12.6991 14.3451 13.0896 14.7356C13.4802 15.1261 13.4802 15.7593 13.0896 16.1498L12.3246 16.9149C10.8777 18.3617 8.53196 18.3617 7.08513 16.9149C5.63829 15.468 5.63829 13.1223 7.08513 11.6754L7.85018 10.9104C8.2407 10.5198 8.87386 10.5198 9.26439 10.9104Z" fill="#121212"/>
</svg>
