<svg width="24" height="24" viewBox="0 0 24 24" fill="none" xmlns="http://www.w3.org/2000/svg">
<path fill-rule="evenodd" clip-rule="evenodd" d="M12.1003 4.00344C12.094 4.00719 12.0865 4.01184 12.0777 4.01754C12.0024 4.06582 11.9035 4.13906 11.7166 4.27872L4.93428 9.3474C4.43475 9.72072 4.34444 9.79914 4.28471 9.87673C4.21512 9.96714 4.16471 10.0671 4.13438 10.1712C4.10961 10.2562 4.10026 10.3629 4.10026 10.9734V17.9252C4.10026 18.4805 4.1011 18.8344 4.12391 19.1027C4.14563 19.3581 4.18177 19.4446 4.20172 19.4822C4.2921 19.6527 4.4404 19.7986 4.63199 19.8924C4.68502 19.9184 4.7902 19.9553 5.06493 19.9769C5.35021 19.9993 5.72435 20 6.30026 20H8.10026L8.10026 13.8574C8.10022 13.6163 8.10019 13.3771 8.11748 13.1738C8.13664 12.9485 8.18224 12.6791 8.32578 12.4084C8.52302 12.0364 8.83366 11.7414 9.20655 11.5588C9.47439 11.4277 9.73967 11.3861 9.9652 11.3684C10.1717 11.3522 10.4161 11.3522 10.6692 11.3522H13.5313C13.7845 11.3522 14.0288 11.3522 14.2353 11.3684C14.4609 11.3861 14.7261 11.4277 14.994 11.5588C15.3669 11.7414 15.6775 12.0364 15.8747 12.4084C16.0183 12.6791 16.0639 12.9485 16.083 13.1738C16.1003 13.3771 16.1003 13.6163 16.1003 13.8574L16.1003 20H17.9003C18.4762 20 18.8503 19.9993 19.1356 19.9769C19.4103 19.9553 19.5155 19.9184 19.5685 19.8924C19.7601 19.7986 19.9084 19.6527 19.9988 19.4822C20.0187 19.4446 20.0549 19.3581 20.0766 19.1027C20.0994 18.8344 20.1003 18.4805 20.1003 17.9252V10.9734C20.1003 10.3629 20.0909 10.2562 20.0661 10.1712C20.0358 10.0671 19.9854 9.96714 19.9158 9.87673C19.8561 9.79914 19.7658 9.72072 19.2662 9.3474L12.4839 4.27872C12.2971 4.13906 12.1981 4.06582 12.1229 4.01754C12.114 4.01184 12.1065 4.00719 12.1003 4.00344ZM11.5871 2.06561C11.9234 1.97813 12.2771 1.97813 12.6134 2.06561C13.0061 2.16778 13.3387 2.41853 13.607 2.62091C13.6323 2.63999 13.6571 2.65863 13.6812 2.67667L20.4635 7.74535C20.49 7.76517 20.5163 7.78479 20.5425 7.80427C20.9176 8.08395 21.2511 8.33265 21.5007 8.6568C21.7204 8.94226 21.8855 9.26575 21.9863 9.61183C22.1014 10.007 22.1009 10.4213 22.1003 10.876C22.1003 10.9083 22.1003 10.9408 22.1003 10.9734V17.9646C22.1003 18.4691 22.1003 18.9089 22.0694 19.2721C22.0366 19.6577 21.9638 20.0457 21.7657 20.4192C21.4726 20.9719 21.009 21.414 20.448 21.6887C20.0732 21.8722 19.6844 21.94 19.2921 21.9708C18.9192 22 18.4658 22 17.9376 22L15.8775 22C15.758 22 15.6172 22.0001 15.4936 21.9904C15.3514 21.9792 15.1479 21.9507 14.9335 21.8458C14.6547 21.7093 14.4206 21.4877 14.2713 21.2062C14.155 20.9869 14.123 20.7768 14.1107 20.6316C14.1001 20.5078 14.1002 20.3679 14.1003 20.2543C14.1003 20.2465 14.1003 20.2388 14.1003 20.2313V13.8896C14.1003 13.6207 14.0995 13.4702 14.0918 13.3633C14.0877 13.363 14.0834 13.3626 14.0788 13.3622C13.9603 13.3529 13.7961 13.3522 13.5003 13.3522H10.7003C10.4044 13.3522 10.2403 13.3529 10.1217 13.3622C10.1172 13.3626 10.1128 13.363 10.1087 13.3633C10.101 13.4702 10.1003 13.6207 10.1003 13.8896V20.2313C10.1003 20.2388 10.1003 20.2465 10.1003 20.2542C10.1003 20.3679 10.1004 20.5078 10.0899 20.6316C10.0775 20.7768 10.0455 20.9869 9.92923 21.2062C9.77994 21.4877 9.54578 21.7093 9.26697 21.8458C9.05261 21.9507 8.84908 21.9792 8.70692 21.9904C8.58327 22.0001 8.44257 22 8.32303 22L6.26288 22C5.73471 22 5.28136 22 4.9084 21.9708C4.51612 21.94 4.12736 21.8722 3.75256 21.6887C3.19151 21.414 2.72788 20.9719 2.43478 20.4192C2.23674 20.0457 2.16389 19.6577 2.1311 19.2721C2.10022 18.9089 2.10024 18.4691 2.10026 17.9647L2.10026 10.9734C2.10026 10.9408 2.10022 10.9083 2.10018 10.876C2.0996 10.4213 2.09908 10.007 2.2142 9.61183C2.31501 9.26575 2.48013 8.94226 2.69986 8.6568C2.94937 8.33265 3.28294 8.08395 3.65805 7.80427C3.68418 7.7848 3.7105 7.76517 3.73702 7.74535L10.5193 2.67667C10.5435 2.65863 10.5682 2.63998 10.5935 2.62091C10.8619 2.41853 11.1944 2.16778 11.5871 2.06561Z" fill="#121212"/>
</svg>
