<svg width="24" height="24" viewBox="0 0 24 24" fill="none" xmlns="http://www.w3.org/2000/svg">
<path fill-rule="evenodd" clip-rule="evenodd" d="M12 1C11.4477 1 11 1.44772 11 2V3H10C7.23858 3 5 5.23858 5 8C5 10.7614 7.23858 13 10 13H11V19H10C8.34315 19 7 17.6569 7 16C7 15.4477 6.55228 15 6 15C5.44772 15 5 15.4477 5 16C5 18.7614 7.23858 21 10 21H11V22C11 22.5523 11.4477 23 12 23C12.5523 23 13 22.5523 13 22V21H14C14.5523 21 15 20.5523 15 20C15 19.4477 14.5523 19 14 19H13V13H14C14.8959 13 15.6991 13.3915 16.2503 14.0159C16.6157 14.43 17.2477 14.4694 17.6617 14.1039C18.0758 13.7384 18.1152 13.1065 17.7497 12.6924C16.835 11.6561 15.4935 11 14 11H13V5H14C15.6569 5 17 6.34315 17 8C17 8.55228 17.4477 9 18 9C18.5523 9 19 8.55228 19 8C19 5.23858 16.7614 3 14 3H13V2C13 1.44772 12.5523 1 12 1ZM7 8C7 6.34315 8.34315 5 10 5H11V11H10C8.34315 11 7 9.65685 7 8ZM19.5 14.5C18.9477 14.5 18.5 14.9477 18.5 15.5V17.5H16.5C15.9477 17.5 15.5 17.9477 15.5 18.5C15.5 19.0523 15.9477 19.5 16.5 19.5H18.5V21.5C18.5 22.0523 18.9477 22.5 19.5 22.5C20.0523 22.5 20.5 22.0523 20.5 21.5V19.5H22.5C23.0523 19.5 23.5 19.0523 23.5 18.5C23.5 17.9477 23.0523 17.5 22.5 17.5H20.5V15.5C20.5 14.9477 20.0523 14.5 19.5 14.5Z" fill="#121212"/>
</svg>
