<svg width="24" height="24" viewBox="0 0 24 24" fill="none" xmlns="http://www.w3.org/2000/svg">
<path fill-rule="evenodd" clip-rule="evenodd" d="M9.59224 3.20001C9.43496 3.34232 9.2697 3.47553 9.09724 3.59901C8.79924 3.79901 8.46424 3.93701 8.11224 4.00701C7.95924 4.03701 7.79924 4.05001 7.48024 4.07501C6.67924 4.13901 6.27824 4.17101 5.94424 4.28901C5.56234 4.42385 5.21547 4.64248 4.92909 4.92886C4.64271 5.21524 4.42408 5.56211 4.28924 5.94401C4.17124 6.27801 4.13924 6.67901 4.07524 7.48001C4.06433 7.69177 4.04163 7.90277 4.00724 8.11201C3.93724 8.46401 3.79924 8.79901 3.59924 9.09701C3.51224 9.22701 3.40824 9.34901 3.20024 9.59201C2.67924 10.204 2.41824 10.51 2.26524 10.83C1.91224 11.57 1.91224 12.43 2.26524 13.17C2.41824 13.49 2.67924 13.796 3.20024 14.408C3.40824 14.651 3.51224 14.773 3.59924 14.903C3.79924 15.201 3.93724 15.536 4.00724 15.888C4.03724 16.041 4.05024 16.201 4.07524 16.52C4.13924 17.321 4.17124 17.722 4.28924 18.056C4.42408 18.4379 4.64271 18.7848 4.92909 19.0712C5.21547 19.3575 5.56234 19.5762 5.94424 19.711C6.27824 19.829 6.67924 19.861 7.48024 19.925C7.79924 19.95 7.95924 19.963 8.11224 19.993C8.46424 20.063 8.79924 20.202 9.09724 20.401C9.22724 20.488 9.34924 20.592 9.59224 20.8C10.2042 21.321 10.5102 21.582 10.8302 21.735C11.5702 22.088 12.4302 22.088 13.1702 21.735C13.4902 21.582 13.7962 21.321 14.4082 20.8C14.6512 20.592 14.7732 20.488 14.9032 20.401C15.2012 20.201 15.5362 20.063 15.8882 19.993C16.0412 19.963 16.2012 19.95 16.5202 19.925C17.3212 19.861 17.7222 19.829 18.0562 19.711C18.4381 19.5762 18.785 19.3575 19.0714 19.0712C19.3578 18.7848 19.5764 18.4379 19.7112 18.056C19.8292 17.722 19.8612 17.321 19.9252 16.52C19.9502 16.201 19.9632 16.041 19.9932 15.888C20.0632 15.536 20.2022 15.201 20.4012 14.903C20.4882 14.773 20.5922 14.651 20.8002 14.408C21.3212 13.796 21.5822 13.49 21.7352 13.17C22.0882 12.43 22.0882 11.57 21.7352 10.83C21.5822 10.51 21.3212 10.204 20.8002 9.59201C20.6579 9.43473 20.5247 9.26947 20.4012 9.09701C20.2014 8.79889 20.0627 8.4641 19.9932 8.11201C19.9589 7.90277 19.9362 7.69177 19.9252 7.48001C19.8612 6.67901 19.8292 6.27801 19.7112 5.94401C19.5764 5.56211 19.3578 5.21524 19.0714 4.92886C18.785 4.64248 18.4381 4.42385 18.0562 4.28901C17.7222 4.17101 17.3212 4.13901 16.5202 4.07501C16.3085 4.0641 16.0975 4.0414 15.8882 4.00701C15.5362 3.9375 15.2014 3.79882 14.9032 3.59901C14.731 3.47527 14.5657 3.34207 14.4082 3.20001C13.7962 2.67901 13.4902 2.41801 13.1702 2.26501C12.8049 2.09039 12.4051 1.99976 12.0002 1.99976C11.5953 1.99976 11.1956 2.09039 10.8302 2.26501C10.5102 2.41801 10.2042 2.67901 9.59224 3.20001ZM15.8312 8.17001C15.9835 8.32262 16.0691 8.52941 16.0691 8.74501C16.0691 8.96061 15.9835 9.1674 15.8312 9.32001L9.32024 15.832C9.24605 15.9132 9.15618 15.9785 9.05605 16.024C8.95592 16.0695 8.8476 16.0943 8.73764 16.0967C8.62769 16.0992 8.51837 16.0794 8.41629 16.0385C8.31421 15.9975 8.22148 15.9363 8.14371 15.8585C8.06594 15.7808 8.00474 15.688 7.96379 15.586C7.92285 15.4839 7.90302 15.3746 7.9055 15.2646C7.90798 15.1546 7.93272 15.0463 7.97822 14.9462C8.02372 14.8461 8.08904 14.7562 8.17024 14.682L14.6802 8.17101C14.8328 8.01871 15.0396 7.93318 15.2552 7.93318C15.4708 7.93318 15.6776 8.01871 15.8302 8.17101M15.7972 14.714C15.7972 15.0018 15.6829 15.2777 15.4794 15.4812C15.276 15.6847 15 15.799 14.7122 15.799C14.4245 15.799 14.1485 15.6847 13.945 15.4812C13.7416 15.2777 13.6272 15.0018 13.6272 14.714C13.6272 14.4262 13.7416 14.1503 13.945 13.9468C14.1485 13.7433 14.4245 13.629 14.7122 13.629C15 13.629 15.276 13.7433 15.4794 13.9468C15.6829 14.1503 15.7972 14.4262 15.7972 14.714ZM9.28724 10.374C9.575 10.374 9.85097 10.2597 10.0544 10.0562C10.2579 9.85274 10.3722 9.57677 10.3722 9.28901C10.3722 9.00125 10.2579 8.72527 10.0544 8.5218C9.85097 8.31832 9.575 8.20401 9.28724 8.20401C8.99948 8.20401 8.7235 8.31832 8.52003 8.5218C8.31655 8.72527 8.20224 9.00125 8.20224 9.28901C8.20224 9.57677 8.31655 9.85274 8.52003 10.0562C8.7235 10.2597 8.99948 10.374 9.28724 10.374Z" fill="#121212"/>
</svg>
