<svg width="24" height="24" viewBox="0 0 24 24" fill="none" xmlns="http://www.w3.org/2000/svg">
<path d="M14.5 15.5H9.5C8.10444 15.5 7.40665 15.5 6.83886 15.6722C5.56045 16.06 4.56004 17.0605 4.17224 18.3389C4 18.9067 4 19.6044 4 21H20C20 19.6044 20 18.9067 19.8278 18.3389C19.44 17.0605 18.4395 16.06 17.1611 15.6722C16.5933 15.5 15.8956 15.5 14.5 15.5Z" fill="#121212"/>
<path fill-rule="evenodd" clip-rule="evenodd" d="M16.5 7.5C16.5 9.98528 14.4853 12 12 12C9.51472 12 7.5 9.98528 7.5 7.5C7.5 5.01472 9.51472 3 12 3C14.4853 3 16.5 5.01472 16.5 7.5ZM9 5.5C9 5.22386 9.22386 5 9.5 5C9.77614 5 10 5.22386 10 5.5V6C10 6.27614 9.77614 6.5 9.5 6.5C9.22386 6.5 9 6.27614 9 6V5.5ZM12 5.5C12 5.22386 12.2239 5 12.5 5C12.7761 5 13 5.22386 13 5.5V6C13 6.27614 12.7761 6.5 12.5 6.5C12.2239 6.5 12 6.27614 12 6V5.5ZM14.1863 8.26724C14.3118 8.02123 14.214 7.72012 13.968 7.59468C13.722 7.46924 13.4209 7.56698 13.2955 7.81299C13.0385 8.31693 12.331 8.64416 11.4933 8.68608C11.0929 8.70612 10.7146 8.65571 10.4245 8.55589C10.119 8.45076 9.99153 8.32091 9.95527 8.24468C9.83665 7.99531 9.53834 7.88931 9.28897 8.00793C9.0396 8.12654 8.93361 8.42485 9.05222 8.67422C9.25601 9.10265 9.68348 9.35844 10.0991 9.50146C10.5301 9.6498 11.039 9.71007 11.5432 9.68483C12.5147 9.63621 13.6857 9.24911 14.1863 8.26724Z" fill="#121212"/>
<path fill-rule="evenodd" clip-rule="evenodd" d="M12 3.75C9.92893 3.75 8.25 5.42893 8.25 7.5C8.25 9.57107 9.92893 11.25 12 11.25C14.0711 11.25 15.75 9.57107 15.75 7.5C15.75 5.42893 14.0711 3.75 12 3.75ZM6.75 7.5C6.75 4.6005 9.1005 2.25 12 2.25C14.8995 2.25 17.25 4.6005 17.25 7.5C17.25 10.3995 14.8995 12.75 12 12.75C9.1005 12.75 6.75 10.3995 6.75 7.5Z" fill="#121212"/>
</svg>
