<svg width="17" height="17" viewBox="0 0 17 17" fill="none" xmlns="http://www.w3.org/2000/svg">
<path fill-rule="evenodd" clip-rule="evenodd" d="M12.8906 3.16683H10.5C10.1319 3.16683 9.83337 2.86835 9.83337 2.50016C9.83337 2.13197 10.1319 1.8335 10.5 1.8335H14.5C14.8682 1.8335 15.1667 2.13197 15.1667 2.50016V6.50016C15.1667 6.86835 14.8682 7.16683 14.5 7.16683C14.1319 7.16683 13.8334 6.86835 13.8334 6.50016V4.10964L7.63811 10.3049C7.37776 10.5653 6.95565 10.5653 6.6953 10.3049C6.43495 10.0446 6.43495 9.62244 6.6953 9.36209L12.8906 3.16683ZM11.8334 9.16683C11.8334 8.79864 12.1319 8.50016 12.5 8.50016C12.8682 8.50016 13.1667 8.79864 13.1667 9.16683V13.1668C13.1667 14.2714 12.2713 15.1668 11.1667 15.1668H3.83337C2.7288 15.1668 1.83337 14.2714 1.83337 13.1668V5.8335C1.83337 4.72893 2.7288 3.8335 3.83337 3.8335H7.83337C8.20156 3.8335 8.50004 4.13197 8.50004 4.50016C8.50004 4.86835 8.20156 5.16683 7.83337 5.16683H3.83337C3.46518 5.16683 3.16671 5.46531 3.16671 5.8335V13.1668C3.16671 13.535 3.46518 13.8335 3.83337 13.8335H11.1667C11.5349 13.8335 11.8334 13.535 11.8334 13.1668V9.16683Z" fill="#AAAFBD"/>
</svg>
