<svg width="40" height="40" viewBox="0 0 40 40" fill="none" xmlns="http://www.w3.org/2000/svg">
<path d="M0 8C0 3.58172 3.58172 0 8 0H32C36.4183 0 40 3.58172 40 8V32C40 36.4183 36.4183 40 32 40H8C3.58172 40 0 36.4183 0 32V8Z" fill="#F7931A"/>
<path fill-rule="evenodd" clip-rule="evenodd" d="M28.9853 17.525C29.3778 14.905 27.3816 13.4963 24.6541 12.5563L25.5391 9.00625L23.3791 8.46875L22.5166 11.925C21.9609 11.7855 21.3908 11.6555 20.8216 11.5258L20.8216 11.5258L20.7853 11.5175L21.6541 8.03875L19.4941 7.5L18.6091 11.0487L18.5147 11.0272L18.5146 11.0272C18.0771 10.9271 17.6466 10.8287 17.2291 10.7237L17.2316 10.7125L14.2516 9.96875L13.6766 12.2762C13.6766 12.2762 15.2803 12.6437 15.2466 12.6662C16.1216 12.885 16.2791 13.4637 16.2528 13.9237L15.2453 17.9675C15.3053 17.9825 15.3828 18.005 15.4703 18.0387L15.2416 17.9825L13.8291 23.6475C13.7216 23.9125 13.4503 24.3113 12.8378 24.16C12.8603 24.1912 11.2678 23.7687 11.2678 23.7687L10.1953 26.2412L13.0078 26.9425C13.3097 27.0183 13.6083 27.0963 13.9037 27.1734L13.9042 27.1735C14.1199 27.2298 14.334 27.2857 14.5466 27.34L13.6528 30.93L15.8116 31.4675L16.6966 27.9175C17.2866 28.0762 17.8591 28.2238 18.4191 28.3638L17.5366 31.8987L19.6966 32.4362L20.5903 28.8538C24.2753 29.5513 27.0453 29.27 28.2116 25.9375C29.1516 23.255 28.1653 21.7062 26.2266 20.6975C27.6391 20.3725 28.7016 19.4437 28.9853 17.525ZM24.0478 24.4475C23.4366 26.9094 19.5835 25.8917 17.8198 25.4258L17.8197 25.4258C17.6608 25.3838 17.5189 25.3463 17.3978 25.3162L18.5853 20.56C18.733 20.5969 18.9135 20.6375 19.1181 20.6834C20.9424 21.0933 24.6761 21.932 24.0478 24.4475ZM19.4844 18.4756C20.9541 18.868 24.1587 19.7235 24.7166 17.4862C25.2872 15.1979 22.172 14.5088 20.6503 14.1722C20.4788 14.1342 20.3275 14.1008 20.2041 14.07L19.1291 18.3825C19.2309 18.4079 19.3505 18.4398 19.4844 18.4756Z" fill="white"/>
</svg>
