<svg width="40" height="40" viewBox="0 0 40 40" fill="none" xmlns="http://www.w3.org/2000/svg">
<path d="M0 8C0 3.58172 3.58172 0 8 0H32C36.4183 0 40 3.58172 40 8V32C40 36.4183 36.4183 40 32 40H8C3.58172 40 0 36.4183 0 32V8Z" fill="#EB0029"/>
<path d="M28.1826 12.7565L8.33398 9.1665L18.7796 34.9998L33.334 17.5716L28.1826 12.7565ZM27.8632 14.3383L30.8994 17.1746L22.595 18.6526L27.8632 14.3383ZM20.7917 18.357L12.0387 11.2223L26.3445 13.8094L20.7917 18.357ZM20.1678 19.6188L18.7411 31.2157L11.0458 12.1824L20.1678 19.6188ZM21.4889 20.2344L30.6844 18.5976L20.1368 31.2279L21.4889 20.2344Z" fill="white"/>
</svg>
