<svg width="40" height="40" viewBox="0 0 40 40" fill="none" xmlns="http://www.w3.org/2000/svg">
<rect width="40" height="40" rx="8" fill="#FFF6DB"/>
<path d="M12.9167 30.625H16.4583M23.5417 30.625H27.0833M26.4931 13.5069V22.9514M9.375 13.1528L9.375 23.3056C9.375 24.6279 9.375 25.2891 9.63235 25.7941C9.85871 26.2384 10.2199 26.5996 10.6642 26.826C11.1693 27.0833 11.8304 27.0833 13.1528 27.0833L26.8472 27.0833C28.1696 27.0833 28.8307 27.0833 29.3358 26.826C29.7801 26.5996 30.1413 26.2384 30.3677 25.7941C30.625 25.2891 30.625 24.6279 30.625 23.3056V13.1528C30.625 11.8304 30.625 11.1693 30.3677 10.6642C30.1413 10.2199 29.7801 9.85872 29.3358 9.63235C28.8307 9.375 28.1696 9.375 26.8472 9.375L13.1528 9.375C11.8304 9.375 11.1693 9.375 10.6642 9.63235C10.2199 9.85871 9.85871 10.2199 9.63235 10.6642C9.375 11.1693 9.375 11.8304 9.375 13.1528ZM19.4097 18.2292C19.4097 19.8592 18.0883 21.1806 16.4583 21.1806C14.8283 21.1806 13.5069 19.8592 13.5069 18.2292C13.5069 16.5992 14.8283 15.2778 16.4583 15.2778C18.0883 15.2778 19.4097 16.5992 19.4097 18.2292Z" stroke="#FFC211" stroke-width="1.5" stroke-linecap="round" stroke-linejoin="round"/>
</svg>
