<svg width="24" height="24" viewBox="0 0 24 24" fill="none" xmlns="http://www.w3.org/2000/svg">
<path fill-rule="evenodd" clip-rule="evenodd" d="M13.7441 2.09301C13.7854 1.76263 13.6039 1.44458 13.2985 1.312C12.9931 1.17943 12.6368 1.26407 12.4237 1.51984L3.49802 12.2307L3.49801 12.2307C3.34018 12.42 3.1906 12.5995 3.08346 12.7546C2.98086 12.9031 2.82241 13.157 2.81753 13.4811C2.81173 13.8653 2.98291 14.2307 3.28172 14.4722C3.53382 14.6759 3.83031 14.7168 4.01012 14.733C4.19788 14.75 4.4315 14.75 4.67801 14.75H4.67803L11.1503 14.75L10.2557 21.907C10.2144 22.2373 10.3958 22.5554 10.7012 22.688C11.0066 22.8205 11.3629 22.7359 11.576 22.4801L20.5017 11.7693C20.6595 11.58 20.8091 11.4005 20.9163 11.2454C21.0189 11.0968 21.1773 10.8429 21.1822 10.5188C21.188 10.1347 21.0168 9.76922 20.718 9.52775C20.4659 9.32403 20.1694 9.2832 19.9896 9.26692C19.8018 9.24993 19.5682 9.24995 19.3217 9.24998H19.3217L12.8494 9.24998L13.7441 2.09301Z" fill="#121212"/>
</svg>
