<svg fill="none" height="48" viewBox="0 0 48 48" width="48" xmlns="http://www.w3.org/2000/svg" xmlns:xlink="http://www.w3.org/1999/xlink"><linearGradient id="a" gradientUnits="userSpaceOnUse" x1="38.1656" x2="8.94431" y1="9.38933" y2="38.6107"><stop offset="0" stop-color="#9945ff"/><stop offset=".2" stop-color="#7962e7"/><stop offset="1" stop-color="#00d18c"/></linearGradient><path clip-rule="evenodd" d="m33.7656 16.6493c-.1004.1104-.2226.1986-.359.259-.1363.0604-.2839.0916-.433.0917l-24.43729-.02c-.10413-.0003-.20587-.0307-.29293-.0876-.0872-.0569-.15587-.138-.19774-.2332-.042-.0952-.05533-.2007-.03853-.3033.0168-.1027.06307-.1983.1332-.2752l5.20399-5.73c.1004-.1104.2228-.1987.3592-.2591.1365-.0604.2841-.0916.4335-.0916l24.4366.02c.1041.0003.2059.0307.293.0876s.1558.138.1977.2332.0553.2007.0385.3033c-.0168.1027-.0631.1983-.1332.2752zm-25.62529 4.77c-.07013-.0769-.1164-.1725-.1332-.2752-.0168-.1026-.00347-.2081.03853-.3033.04187-.0952.11054-.1763.19774-.2332.08706-.0569.1888-.0873.29293-.0876l24.43669-.02c.1492 0 .2968.0312.4333.0916s.2589.1487.3593.2591l5.204 5.7333c.0701.0769.1164.1725.1332.2752s.0034.2081-.0385.3033-.1106.1763-.1977.2332c-.0871.057-.1889.0874-.293.0876l-24.4373.02c-.1492-.0001-.2967-.0313-.4331-.0917s-.2586-.1485-.3589-.2589zm25.62529 16.23c-.1004.1104-.2226.1986-.359.259-.1363.0604-.2839.0916-.433.0917l-24.43729-.02c-.10413-.0002-.20587-.0306-.29293-.0876-.0872-.0569-.15587-.1379-.19774-.2332-.042-.0952-.05533-.2006-.03853-.3033s.06307-.1983.1332-.2752l5.20399-5.73c.1004-.1104.2228-.1987.3592-.2591.1365-.0604.2841-.0916.4335-.0916l24.4366.02c.1041.0003.2059.0307.293.0876s.1558.138.1977.2332.0553.2007.0385.3033c-.0168.1027-.0631.1983-.1332.2752z" fill="url(#a)" fill-rule="evenodd"/></svg>