<svg width="48" height="48" viewBox="0 0 48 48" fill="none" xmlns="http://www.w3.org/2000/svg">
<path fill-rule="evenodd" clip-rule="evenodd" d="M33.7656 16.6493C33.6652 16.7597 33.543 16.8479 33.4066 16.9083C33.2703 16.9687 33.1227 16.9999 32.9736 17L8.53631 16.98C8.43218 16.9797 8.33044 16.9493 8.24338 16.8924C8.15618 16.8355 8.08751 16.7544 8.04564 16.6592C8.00364 16.564 7.99031 16.4585 8.00711 16.3559C8.02391 16.2532 8.07018 16.1576 8.14031 16.0807L13.3443 10.3507C13.4447 10.2403 13.5671 10.152 13.7035 10.0916C13.84 10.0312 13.9876 10 14.137 10L38.5736 10.02C38.6777 10.0203 38.7795 10.0507 38.8666 10.1076C38.9537 10.1645 39.0224 10.2456 39.0643 10.3408C39.1062 10.436 39.1196 10.5415 39.1028 10.6441C39.086 10.7468 39.0397 10.8424 38.9696 10.9193L33.7656 16.6493ZM8.14031 21.4193C8.07018 21.3424 8.02391 21.2468 8.00711 21.1441C7.99031 21.0415 8.00364 20.936 8.04564 20.8408C8.08751 20.7456 8.15618 20.6645 8.24338 20.6076C8.33044 20.5507 8.43218 20.5203 8.53631 20.52L32.973 20.5C33.1222 20.5 33.2698 20.5312 33.4063 20.5916C33.5428 20.652 33.6652 20.7403 33.7656 20.8507L38.9696 26.584C39.0397 26.6609 39.086 26.7565 39.1028 26.8592C39.1196 26.9619 39.1062 27.0673 39.0643 27.1625C39.0224 27.2577 38.9537 27.3388 38.8666 27.3957C38.7795 27.4527 38.6777 27.4831 38.5736 27.4833L14.1363 27.5033C13.9871 27.5032 13.8396 27.472 13.7032 27.4116C13.5668 27.3512 13.4446 27.2631 13.3443 27.1527L8.14031 21.4193ZM33.7656 37.6493C33.6652 37.7597 33.543 37.8479 33.4066 37.9083C33.2703 37.9687 33.1227 37.9999 32.9736 38L8.53631 37.98C8.43218 37.9798 8.33044 37.9494 8.24338 37.8924C8.15618 37.8355 8.08751 37.7545 8.04564 37.6592C8.00364 37.564 7.99031 37.4586 8.00711 37.3559C8.02391 37.2532 8.07018 37.1576 8.14031 37.0807L13.3443 31.3507C13.4447 31.2403 13.5671 31.152 13.7035 31.0916C13.84 31.0312 13.9876 31 14.137 31L38.5736 31.02C38.6777 31.0203 38.7795 31.0507 38.8666 31.1076C38.9537 31.1645 39.0224 31.2456 39.0643 31.3408C39.1062 31.436 39.1196 31.5415 39.1028 31.6441C39.086 31.7468 39.0397 31.8424 38.9696 31.9193L33.7656 37.6493Z" fill="white"/>
</svg>
