<svg width="150" height="150" viewBox="0 0 150 150" fill="none" xmlns="http://www.w3.org/2000/svg">
<path d="M50.5698 111.493C50.5698 111.409 50.5938 111.343 50.6418 111.295C50.6898 111.247 50.7558 111.223 50.8398 111.223H53.6838C53.7678 111.223 53.8338 111.247 53.8818 111.295C53.9298 111.343 53.9538 111.409 53.9538 111.493V123.553C53.9538 123.637 53.9298 123.703 53.8818 123.751C53.8338 123.799 53.7678 123.823 53.6838 123.823H50.8398C50.7558 123.823 50.6898 123.799 50.6418 123.751C50.5938 123.703 50.5698 123.637 50.5698 123.553V118.981C50.5698 118.921 50.5398 118.891 50.4798 118.891H47.6718C47.6118 118.891 47.5818 118.921 47.5818 118.981V123.553C47.5818 123.637 47.5578 123.703 47.5098 123.751C47.4618 123.799 47.3958 123.823 47.3118 123.823H44.4678C44.3838 123.823 44.3178 123.799 44.2698 123.751C44.2218 123.703 44.1978 123.637 44.1978 123.553V111.493C44.1978 111.409 44.2218 111.343 44.2698 111.295C44.3178 111.247 44.3838 111.223 44.4678 111.223H47.3118C47.3958 111.223 47.4618 111.247 47.5098 111.295C47.5578 111.343 47.5818 111.409 47.5818 111.493V115.903C47.5818 115.963 47.6118 115.993 47.6718 115.993H50.4798C50.5398 115.993 50.5698 115.963 50.5698 115.903V111.493ZM56.9837 113.833C56.4917 113.833 56.0837 113.677 55.7597 113.365C55.4477 113.041 55.2917 112.633 55.2917 112.141C55.2917 111.637 55.4477 111.229 55.7597 110.917C56.0837 110.605 56.4917 110.449 56.9837 110.449C57.4757 110.449 57.8777 110.605 58.1897 110.917C58.5137 111.229 58.6757 111.637 58.6757 112.141C58.6757 112.621 58.5137 113.023 58.1897 113.347C57.8777 113.671 57.4757 113.833 56.9837 113.833ZM55.5437 123.823C55.4597 123.823 55.3937 123.799 55.3457 123.751C55.2977 123.703 55.2737 123.637 55.2737 123.553V114.733C55.2737 114.649 55.2977 114.583 55.3457 114.535C55.3937 114.487 55.4597 114.463 55.5437 114.463H58.3877C58.4717 114.463 58.5377 114.487 58.5857 114.535C58.6337 114.583 58.6577 114.649 58.6577 114.733V123.553C58.6577 123.637 58.6337 123.703 58.5857 123.751C58.5377 123.799 58.4717 123.823 58.3877 123.823H55.5437ZM73.0236 113.851C73.0236 113.935 72.9996 114.001 72.9516 114.049C72.9036 114.097 72.8376 114.121 72.7536 114.121H67.3896C67.3296 114.121 67.2996 114.151 67.2996 114.211V115.903C67.2996 115.963 67.3296 115.993 67.3896 115.993H70.7196C70.8036 115.993 70.8696 116.017 70.9176 116.065C70.9656 116.113 70.9896 116.179 70.9896 116.263V118.603C70.9896 118.687 70.9656 118.753 70.9176 118.801C70.8696 118.849 70.8036 118.873 70.7196 118.873H67.3896C67.3296 118.873 67.2996 118.903 67.2996 118.963V123.553C67.2996 123.637 67.2756 123.703 67.2276 123.751C67.1796 123.799 67.1136 123.823 67.0296 123.823H64.1856C64.1016 123.823 64.0356 123.799 63.9876 123.751C63.9396 123.703 63.9156 123.637 63.9156 123.553V111.493C63.9156 111.409 63.9396 111.343 63.9876 111.295C64.0356 111.247 64.1016 111.223 64.1856 111.223H72.7536C72.8376 111.223 72.9036 111.247 72.9516 111.295C72.9996 111.343 73.0236 111.409 73.0236 111.493V113.851ZM78.4897 114.337C78.8977 114.337 79.2217 114.415 79.4617 114.571C79.5697 114.631 79.6117 114.745 79.5877 114.913L79.1557 117.685C79.1437 117.781 79.1077 117.841 79.0477 117.865C78.9997 117.889 78.9277 117.889 78.8317 117.865C78.6157 117.817 78.4237 117.793 78.2557 117.793C78.0757 117.793 77.9077 117.811 77.7517 117.847C77.4397 117.907 77.1697 118.039 76.9417 118.243C76.7257 118.435 76.6177 118.699 76.6177 119.035V123.553C76.6177 123.637 76.5937 123.703 76.5457 123.751C76.4977 123.799 76.4317 123.823 76.3477 123.823H73.5037C73.4197 123.823 73.3537 123.799 73.3057 123.751C73.2577 123.703 73.2337 123.637 73.2337 123.553V114.733C73.2337 114.649 73.2577 114.583 73.3057 114.535C73.3537 114.487 73.4197 114.463 73.5037 114.463H76.3477C76.4317 114.463 76.4977 114.487 76.5457 114.535C76.5937 114.583 76.6177 114.649 76.6177 114.733V115.165C76.6177 115.201 76.6297 115.225 76.6537 115.237C76.6777 115.249 76.6957 115.243 76.7077 115.219C77.1637 114.631 77.7577 114.337 78.4897 114.337ZM89.216 118.477C89.252 118.741 89.27 119.011 89.27 119.287C89.27 119.479 89.264 119.629 89.252 119.737C89.252 119.905 89.162 119.989 88.982 119.989H83.582C83.534 119.989 83.51 120.013 83.51 120.061C83.51 120.169 83.558 120.295 83.654 120.439C83.774 120.643 83.984 120.817 84.284 120.961C84.596 121.093 84.944 121.159 85.328 121.159C85.652 121.159 85.952 121.111 86.228 121.015C86.504 120.919 86.738 120.781 86.93 120.601C86.99 120.553 87.05 120.529 87.11 120.529C87.194 120.529 87.26 120.565 87.308 120.637L88.676 122.383C88.724 122.443 88.748 122.509 88.748 122.581C88.748 122.653 88.718 122.713 88.658 122.761C88.238 123.169 87.716 123.475 87.092 123.679C86.468 123.871 85.796 123.967 85.076 123.967C83.96 123.967 83.006 123.733 82.214 123.265C81.422 122.797 80.846 122.131 80.486 121.267C80.222 120.643 80.09 119.971 80.09 119.251C80.09 118.495 80.198 117.823 80.414 117.235C80.738 116.323 81.272 115.609 82.016 115.093C82.76 114.577 83.636 114.319 84.644 114.319C85.412 114.319 86.12 114.499 86.768 114.859C87.428 115.219 87.968 115.717 88.388 116.353C88.82 116.977 89.096 117.685 89.216 118.477ZM84.626 117.217C84.134 117.217 83.792 117.457 83.6 117.937L83.528 118.135C83.516 118.171 83.522 118.201 83.546 118.225C83.57 118.237 83.594 118.243 83.618 118.243H85.67C85.718 118.243 85.742 118.219 85.742 118.171C85.742 118.123 85.724 118.045 85.688 117.937C85.628 117.709 85.502 117.535 85.31 117.415C85.13 117.283 84.902 117.217 84.626 117.217ZM95.9616 114.319C96.5616 114.319 97.1016 114.451 97.5816 114.715C98.0616 114.979 98.4396 115.369 98.7156 115.885C99.0036 116.389 99.1476 116.989 99.1476 117.685V123.553C99.1476 123.637 99.1236 123.703 99.0756 123.751C99.0276 123.799 98.9616 123.823 98.8776 123.823H96.0336C95.9496 123.823 95.8836 123.799 95.8356 123.751C95.7876 123.703 95.7636 123.637 95.7636 123.553V118.423C95.7636 118.063 95.6676 117.775 95.4756 117.559C95.2956 117.331 95.0556 117.217 94.7556 117.217C94.4436 117.217 94.1916 117.331 93.9996 117.559C93.8196 117.775 93.7296 118.063 93.7296 118.423V123.553C93.7296 123.637 93.7056 123.703 93.6576 123.751C93.6096 123.799 93.5436 123.823 93.4596 123.823H90.6156C90.5316 123.823 90.4656 123.799 90.4176 123.751C90.3696 123.703 90.3456 123.637 90.3456 123.553V114.733C90.3456 114.649 90.3696 114.583 90.4176 114.535C90.4656 114.487 90.5316 114.463 90.6156 114.463H93.4596C93.5436 114.463 93.6096 114.487 93.6576 114.535C93.7056 114.583 93.7296 114.649 93.7296 114.733V115.381C93.7296 115.429 93.7416 115.459 93.7656 115.471C93.7896 115.483 93.8076 115.471 93.8196 115.435C94.2756 114.691 94.9896 114.319 95.9616 114.319ZM105.825 119.359C105.741 119.359 105.669 119.335 105.609 119.287C105.561 119.239 105.537 119.173 105.537 119.089L105.231 111.493C105.231 111.313 105.315 111.223 105.483 111.223H108.327C108.495 111.223 108.579 111.313 108.579 111.493L108.255 119.089C108.255 119.173 108.225 119.239 108.165 119.287C108.117 119.335 108.051 119.359 107.967 119.359H105.825ZM106.761 123.823C106.269 123.823 105.861 123.667 105.537 123.355C105.225 123.031 105.069 122.623 105.069 122.131C105.069 121.627 105.225 121.219 105.537 120.907C105.861 120.595 106.269 120.439 106.761 120.439C107.253 120.439 107.655 120.595 107.967 120.907C108.291 121.219 108.453 121.627 108.453 122.131C108.453 122.611 108.291 123.013 107.967 123.337C107.655 123.661 107.253 123.823 106.761 123.823Z" fill="white"/>
<path fill-rule="evenodd" clip-rule="evenodd" d="M78.855 21.0717C78.855 20.2433 78.1834 19.5717 77.355 19.5717C76.5266 19.5717 75.855 20.2433 75.855 21.0717V29.6825C75.855 30.5109 76.5266 31.1825 77.355 31.1825C78.1834 31.1825 78.855 30.5109 78.855 29.6825V21.0717ZM61.6208 25.9758C61.035 25.39 60.0852 25.39 59.4994 25.9758C58.9136 26.5615 58.9136 27.5113 59.4994 28.0971L65.5882 34.1858C66.174 34.7716 67.1237 34.7716 67.7095 34.1858C68.2953 33.6001 68.2953 32.6503 67.7095 32.0645L61.6208 25.9758ZM93.7857 25.9758C93.2 25.39 92.2502 25.39 91.6644 25.9758L85.5757 32.0645C84.9899 32.6503 84.9899 33.6001 85.5757 34.1858C86.1614 34.7716 87.1112 34.7716 87.697 34.1858L93.7857 28.0971C94.3715 27.5113 94.3715 26.5615 93.7857 25.9758ZM55.9689 49.6176C56.8149 47.5744 57.5085 46.11 57.9665 45.3288C58.3728 45.7212 58.9002 46.4231 59.5015 47.4157C60.8566 49.6525 62.2338 52.7607 63.088 54.9572C63.3122 55.5338 63.8674 55.9135 64.486 55.9135H74.1584C74.4291 55.9135 74.6831 55.8418 74.9024 55.7163C75.1216 55.8418 75.3756 55.9135 75.6464 55.9135H85.3187C85.9373 55.9135 86.4925 55.5338 86.7167 54.9572C87.5709 52.7607 88.9481 49.6525 90.3032 47.4157C90.9045 46.4231 91.4319 45.7212 91.8382 45.3288C92.2962 46.11 92.9898 47.5744 93.8358 49.6176C94.8479 52.0618 96.0119 55.1666 97.1558 58.5112C99.4234 65.1417 101.569 72.5902 102.32 77.6509C101.669 78.8064 101.049 79.8952 100.478 80.8747C100.061 81.5902 100.302 82.5087 101.018 82.9261C101.734 83.3436 102.652 83.1018 103.069 82.3863C104.152 80.5306 105.432 78.2394 106.756 75.8696L106.757 75.8673L106.757 75.8666L106.758 75.8653C107.729 74.1276 108.723 72.3479 109.68 70.6667C110.822 68.661 111.919 66.7808 112.888 65.2271C113.874 63.6478 114.675 62.4902 115.229 61.8716C117.619 59.2044 120.73 59.0583 123.05 60.3619C125.382 61.6722 126.969 64.4834 126.07 68.0109C124.723 73.2953 120.636 85.8763 116.516 98.5536L116.509 98.5762L116.493 98.6236C116.118 99.7798 115.742 100.937 115.368 102.089C115.112 102.877 115.543 103.723 116.331 103.979C117.119 104.235 117.965 103.803 118.221 103.015C118.601 101.845 118.984 100.667 119.367 99.4896L119.377 99.4568L119.389 99.4205L119.389 99.4203L119.389 99.4199C123.488 86.807 127.605 74.1376 128.977 68.7517C130.224 63.8579 127.988 59.6954 124.52 57.7465C121.04 55.7909 116.372 56.1001 112.995 59.8697C112.249 60.7018 111.328 62.0599 110.343 63.6392C109.342 65.2442 108.221 67.1655 107.073 69.1824C106.253 70.6221 105.423 72.1034 104.61 73.5592C103.557 68.6855 101.794 62.8032 99.9943 57.5404C98.8347 54.1498 97.6487 50.9843 96.6076 48.4699C95.5964 46.0279 94.6509 44.0198 93.959 43.0972C93.5087 42.4968 92.8216 42.0518 91.9513 42.0788C91.1974 42.1022 90.5794 42.478 90.1505 42.8209C89.2843 43.5135 88.4595 44.6691 87.7373 45.8612C86.4505 47.9854 85.1895 50.7404 84.3021 52.9135H75.6464C75.3756 52.9135 75.1216 52.9853 74.9024 53.1108C74.6831 52.9853 74.4291 52.9135 74.1584 52.9135H65.5026C64.6152 50.7404 63.3542 47.9854 62.0674 45.8612C61.3452 44.6691 60.5204 43.5135 59.6542 42.8209C59.2253 42.478 58.6074 42.1022 57.8534 42.0788C56.9831 42.0518 56.296 42.4968 55.8458 43.0972C55.1538 44.0198 54.2083 46.0279 53.1971 48.4699C52.156 50.9843 50.97 54.1498 49.8104 57.5404C47.9012 63.1228 46.0336 69.4023 45.0113 74.4357C44.0431 72.7021 43.0434 70.9122 42.0585 69.1824C40.9102 67.1655 39.7895 65.2442 38.7883 63.6392C37.8031 62.0599 36.8819 60.7018 36.1363 59.8697C32.7589 56.1001 28.0916 55.7909 24.6113 57.7465C21.1429 59.6954 18.9072 63.8579 20.1542 68.7517C21.5266 74.1376 25.6436 86.8073 29.7423 99.4203L29.7423 99.4205C30.1326 100.621 30.5226 101.822 30.9102 103.015C31.166 103.803 32.0121 104.235 32.8001 103.979C33.588 103.723 34.0194 102.877 33.7635 102.089C33.3819 100.914 32.9984 99.7332 32.6151 98.5536C28.4958 85.8763 24.4078 73.2953 23.0613 68.0109C22.1625 64.4834 23.7489 61.6722 26.0809 60.3619C28.4009 59.0583 31.5122 59.2044 33.902 61.8716C34.4562 62.4902 35.2578 63.6478 36.243 65.2271C37.2122 66.7808 38.3095 68.661 39.4515 70.6667C40.4089 72.3483 41.4033 74.1285 42.3742 75.8666L42.3744 75.8671C43.6987 78.2377 44.979 80.5299 46.0619 82.3863C46.4793 83.1018 47.3978 83.3436 48.1134 82.9261C48.829 82.5087 49.0707 81.5902 48.6532 80.8747C48.211 80.1166 47.74 79.293 47.2479 78.4236C47.3535 78.253 47.4264 78.0582 47.4565 77.8468C48.1798 72.7838 50.3519 65.2278 52.649 58.5112C53.7929 55.1666 54.9569 52.0618 55.9689 49.6176ZM68.2061 67.5593C68.2061 69.203 66.8736 70.5354 65.2299 70.5354C63.5863 70.5354 62.2538 69.203 62.2538 67.5593C62.2538 65.9156 63.5863 64.5832 65.2299 64.5832C66.8736 64.5832 68.2061 65.9156 68.2061 67.5593ZM86.0627 70.5354C87.7064 70.5354 89.0388 69.203 89.0388 67.5593C89.0388 65.9156 87.7064 64.5832 86.0627 64.5832C84.4191 64.5832 83.0866 65.9156 83.0866 67.5593C83.0866 69.203 84.4191 70.5354 86.0627 70.5354ZM70.6594 74.1556C70.6594 72.9705 71.6201 72.0097 72.8052 72.0097H78.1697C79.3548 72.0097 80.3156 72.9705 80.3156 74.1556C80.3156 75.3407 79.3548 76.3014 78.1697 76.3014H76.5358C76.6427 76.4058 76.7349 76.5272 76.808 76.6628C77.6509 78.2271 78.5927 79.1368 79.4797 79.6307C80.3591 80.1203 81.2678 80.2488 82.1482 80.1181C83.9714 79.8474 85.6991 78.4489 86.4575 76.7598C86.7969 76.0041 87.6846 75.6666 88.4403 76.0059C89.1961 76.3452 89.5336 77.233 89.1943 77.9887C88.3636 79.8388 86.7874 81.469 84.8622 82.385C83.445 85.8547 80.3353 88.8597 76.6684 89.4858C74.7631 89.8111 72.7582 89.4775 70.8873 88.2796C69.0569 87.1076 67.4381 85.1641 66.1238 82.3903C64.1936 81.4752 62.6129 79.8423 61.7806 77.9887C61.4413 77.233 61.7789 76.3452 62.5346 76.0059C63.2903 75.6666 64.1781 76.0041 64.5174 76.7598C65.2758 78.4489 67.0036 79.8474 68.8267 80.1181C69.7072 80.2488 70.6159 80.1203 71.4952 79.6307C72.3822 79.1368 73.3241 78.2271 74.167 76.6628C74.24 76.5272 74.3322 76.4058 74.4391 76.3014H72.8052C71.6201 76.3014 70.6594 75.3407 70.6594 74.1556ZM78.0204 82.2518C79.0067 82.8009 80.0319 83.085 81.0443 83.1508C79.7893 84.9338 77.9882 86.217 76.1635 86.5286C74.9738 86.7317 73.7291 86.5368 72.505 85.7531C71.6693 85.218 70.8061 84.3833 69.9797 83.1475C70.9762 83.0758 71.9842 82.7921 72.9546 82.2518C73.8715 81.7413 74.7223 81.0202 75.4875 80.0826C76.2526 81.0202 77.1035 81.7413 78.0204 82.2518ZM119.59 62.4336C119.662 63.0218 119.243 63.5568 118.655 63.6284C118.067 63.7001 117.532 63.2814 117.46 62.6932C117.388 62.105 117.807 61.57 118.395 61.4984C118.984 61.4267 119.518 61.8454 119.59 62.4336ZM121.976 69.6199C121.092 71.1621 119.518 70.7807 118.655 69.0495C116.458 69.6453 115.508 67.9604 116.392 66.4182C117.276 64.876 119.243 64.3425 120.785 65.2266C122.327 66.1108 122.861 68.0777 121.976 69.6199ZM121.98 64.3041C122.568 64.2325 122.987 63.6975 122.915 63.1093C122.843 62.5211 122.308 62.1024 121.72 62.1741C121.132 62.2458 120.713 62.7807 120.785 63.3689C120.857 63.9571 121.392 64.3758 121.98 64.3041ZM125.434 66.0449C125.506 66.6331 125.087 67.168 124.499 67.2397C123.911 67.3114 123.376 66.8926 123.304 66.3044C123.233 65.7162 123.651 65.1813 124.24 65.1096C124.828 65.038 125.363 65.4567 125.434 66.0449ZM30.4764 63.6284C29.8882 63.5568 29.4695 63.0218 29.5412 62.4336C29.6128 61.8454 30.1478 61.4267 30.736 61.4984C31.3242 61.57 31.7429 62.105 31.6712 62.6932C31.5996 63.2814 31.0646 63.7001 30.4764 63.6284ZM30.4764 69.0495C29.6138 70.7807 28.039 71.1621 27.1549 69.6199C26.2708 68.0777 26.8043 66.1108 28.3465 65.2266C29.8887 64.3425 31.8556 64.876 32.7397 66.4182C33.6238 67.9604 32.673 69.6453 30.4764 69.0495ZM26.2163 63.1093C26.1446 63.6975 26.5634 64.2325 27.1516 64.3041C27.7398 64.3758 28.2747 63.9571 28.3464 63.3689C28.418 62.7807 27.9993 62.2458 27.4111 62.1741C26.8229 62.1024 26.288 62.5211 26.2163 63.1093ZM24.6322 67.2397C24.044 67.168 23.6253 66.6331 23.6969 66.0449C23.7686 65.4567 24.3035 65.038 24.8917 65.1096C25.4799 65.1813 25.8987 65.7162 25.827 66.3044C25.7553 66.8926 25.2204 67.3114 24.6322 67.2397Z" fill="white"/>
<ellipse opacity="0.15" cx="74.9658" cy="74.9657" rx="70" ry="70" fill="white"/>
</svg>
