<svg width="121" height="120" viewBox="0 0 121 120" fill="none" xmlns="http://www.w3.org/2000/svg">
<path d="M47.293 100.596C48.8399 100.391 50.4026 100.811 51.635 101.76L57.3142 106.118C59.1916 107.56 61.8031 107.56 63.6752 106.118L69.5695 101.592C70.6707 100.748 72.0604 100.376 73.4343 100.559L80.8074 101.529C83.1515 101.839 85.4116 100.533 86.3189 98.3461L89.1559 91.4866C89.6855 90.2017 90.7028 89.1843 91.9876 88.6546L98.8468 85.8175C101.034 84.9155 102.339 82.6499 102.03 80.3057L101.096 73.1997C100.892 71.6526 101.311 70.0898 102.261 68.8574L106.618 63.1778C108.061 61.3004 108.061 58.6887 106.618 56.8165L102.093 50.9219C101.249 49.8206 100.876 48.4309 101.06 47.0569L102.03 39.6834C102.339 37.3392 101.034 35.0789 98.8468 34.1716L91.9876 31.3345C90.7028 30.8048 89.6855 29.7874 89.1559 28.5025L86.3189 21.643C85.4169 19.4561 83.1515 18.1503 80.8074 18.4597L73.4343 19.4299C72.0604 19.6187 70.6707 19.2464 69.5747 18.4073L63.6805 13.8814C61.8031 12.4393 59.1916 12.4393 57.3195 13.8814L51.4252 18.4073C50.324 19.2464 48.9343 19.6187 47.5604 19.4404L40.1873 18.4702C37.8433 18.1608 35.5831 19.4666 34.6759 21.6535L31.8441 28.513C31.3092 29.7926 30.2919 30.81 29.0123 31.345L22.1532 34.1769C19.9664 35.0841 18.6607 37.3444 18.9701 39.6886L19.9402 47.0621C20.1185 48.4361 19.7462 49.8259 18.9071 50.9219L14.3816 56.8165C12.9395 58.694 12.9395 61.3056 14.3816 63.1778L18.9071 69.0724C19.7514 70.1737 20.1238 71.5635 19.9402 72.9375L18.9701 80.311C18.6607 82.6552 19.9664 84.9155 22.1532 85.8227L29.0123 88.6599C30.2971 89.1896 31.3145 90.207 31.8441 91.4918L34.6811 98.3513C35.5831 100.538 37.8485 101.844 40.1926 101.535L47.293 100.596Z" fill="#FFC211" fill-opacity="0.15"/>
<path fill-rule="evenodd" clip-rule="evenodd" d="M79.6083 43.903C78.0462 42.3409 75.5135 42.3409 73.9514 43.903L53.5071 64.3474L47.8425 58.6827C46.2804 57.1206 43.7477 57.1206 42.1856 58.6827L42.0029 58.8654C40.4408 60.4275 40.4408 62.9602 42.0029 64.5223L50.4093 72.9287C50.4373 72.9583 50.4657 72.9877 50.4947 73.0166L50.6774 73.1993C51.5701 74.0921 52.7798 74.4746 53.9441 74.347C54.8181 74.2517 55.6666 73.8691 56.3366 73.1991L56.5193 73.0164C56.5452 72.9905 56.5707 72.9643 56.5957 72.9378L79.791 49.7426C81.3531 48.1805 81.3531 45.6478 79.791 44.0857L79.6083 43.903Z" fill="#FFC211"/>
<line x1="61.9" y1="9" x2="61.9" y2="22.2" stroke="#FFC211" stroke-width="2" stroke-linecap="round" stroke-dasharray="2 4"/>
<line x1="61.9" y1="98.5996" x2="61.9" y2="111.8" stroke="#FFC211" stroke-width="2" stroke-linecap="round" stroke-dasharray="2 4"/>
<line x1="97.9531" y1="24.7619" x2="88.6193" y2="34.0957" stroke="#FFC211" stroke-width="2" stroke-linecap="round" stroke-dasharray="2 4"/>
<line x1="34.5969" y1="88.1183" x2="25.2631" y2="97.4521" stroke="#FFC211" stroke-width="2" stroke-linecap="round" stroke-dasharray="2 4"/>
<line x1="112.3" y1="61.4004" x2="99.1" y2="61.4004" stroke="#FFC211" stroke-width="2" stroke-linecap="round" stroke-dasharray="2 4"/>
<line x1="22.7" y1="61.4004" x2="9.49995" y2="61.4004" stroke="#FFC211" stroke-width="2" stroke-linecap="round" stroke-dasharray="2 4"/>
<line x1="96.5389" y1="97.4521" x2="87.2051" y2="88.1183" stroke="#FFC211" stroke-width="2" stroke-linecap="round" stroke-dasharray="2 4"/>
<line x1="33.1822" y1="34.0957" x2="23.8484" y2="24.7619" stroke="#FFC211" stroke-width="2" stroke-linecap="round" stroke-dasharray="2 4"/>
</svg>
