<svg width="24" height="24" viewBox="0 0 24 24" fill="none" xmlns="http://www.w3.org/2000/svg">
<path fill-rule="evenodd" clip-rule="evenodd" d="M12.8291 1.03078L12.8184 1.02982C12.6295 1.01275 12.2542 0.978834 11.8953 1.13706C11.5954 1.26926 11.3364 1.50838 11.1806 1.79673C11.0618 2.01673 11.026 2.22798 11.0119 2.38378C11.0003 2.51295 11.0004 2.6569 11.0004 2.7736V2.77362L11.0004 11.2256C11.0004 11.3441 11.0003 11.4849 11.0105 11.6098C11.0224 11.7552 11.0529 11.9631 11.1639 12.181C11.3077 12.4632 11.5372 12.6927 11.8194 12.8365C12.0373 12.9475 12.2452 12.978 12.3906 12.9899C12.5155 13.0001 12.6563 13 12.7748 13L21.2268 13C21.3435 13 21.4874 13.0001 21.6166 12.9884C21.7724 12.9744 21.9837 12.9386 22.2037 12.8198C22.492 12.664 22.7311 12.405 22.8633 12.1051C23.0216 11.7462 22.9876 11.3709 22.9706 11.182L22.9696 11.1714L22.9673 11.1459L22.9652 11.1209C22.8736 9.97749 22.6034 8.85358 22.1631 7.79047C21.6103 6.45589 20.8 5.24326 19.7786 4.22181C18.7571 3.20037 17.5445 2.39012 16.2099 1.83731C15.1468 1.39696 14.0229 1.12684 12.8795 1.03517C12.8647 1.03399 12.8483 1.03252 12.8291 1.03078ZM8.91694 2.43003C8.69604 1.92384 8.10663 1.69256 7.60044 1.91346C5.95361 2.63211 4.5079 3.74323 3.38969 5.14969C2.27149 6.55615 1.51484 8.21511 1.1859 9.98155C0.856961 11.748 0.965745 13.5681 1.50274 15.2828C2.03974 16.9975 2.9886 18.5545 4.26637 19.8178C5.54413 21.081 7.1119 22.0121 8.8326 22.5294C10.5533 23.0468 12.3746 23.1348 14.1371 22.7857C15.8997 22.4366 17.5499 21.6611 18.9435 20.5269C20.3371 19.3927 21.4316 17.9344 22.1314 16.2795C22.3465 15.7708 22.1085 15.184 21.5999 14.9689C21.0912 14.7539 20.5045 14.9918 20.2894 15.5005C19.7168 16.8546 18.8213 18.0477 17.6811 18.9757C16.5408 19.9037 15.1907 20.5382 13.7486 20.8238C12.3065 21.1094 10.8163 21.0374 9.40849 20.6141C8.00065 20.1908 6.71793 19.4291 5.67248 18.3955C4.62704 17.3619 3.8507 16.088 3.41133 14.6851C2.97197 13.2822 2.88297 11.793 3.1521 10.3477C3.42123 8.90242 4.04031 7.54509 4.9552 6.39435C5.8701 5.24361 7.05296 4.33451 8.40036 3.74652C8.90655 3.52563 9.13783 2.93622 8.91694 2.43003ZM13.0004 11V3.05572C13.839 3.14947 14.6619 3.36089 15.4446 3.68507C16.5365 4.13737 17.5286 4.8003 18.3644 5.63603C19.2001 6.47176 19.863 7.46391 20.3153 8.55584C20.6395 9.33848 20.8509 10.1614 20.9447 11H13.0004Z" fill="#121212"/>
</svg>
