<svg width="24" height="24" viewBox="0 0 24 24" fill="none" xmlns="http://www.w3.org/2000/svg">
<path fill-rule="evenodd" clip-rule="evenodd" d="M12.0114 5C11.4591 4.99921 11.0108 5.44629 11.01 5.99857L11 12.9986C10.9992 13.5509 11.4463 13.9992 11.9986 14C12.5509 14.0008 12.9992 13.5537 13 13.0014L13.01 6.00143C13.0108 5.44914 12.5637 5.00079 12.0114 5ZM12 17C11.4477 17 11 17.4477 11 18C11 18.5523 11.4477 19 12 19H12.01C12.5623 19 13.01 18.5523 13.01 18C13.01 17.4477 12.5623 17 12.01 17H12Z" fill="#121212"/>
</svg>
