<svg width="24" height="24" viewBox="0 0 24 24" fill="none" xmlns="http://www.w3.org/2000/svg">
<path fill-rule="evenodd" clip-rule="evenodd" d="M8.46439 15.5355C9.40207 16.4732 10.6738 17 11.9999 17C13.326 17 14.5978 16.4732 15.5355 15.5355C16.4731 14.5979 16.9999 13.3261 16.9999 12C16.9999 10.6739 16.4731 9.40215 15.5355 8.46447C14.5978 7.52678 13.326 7 11.9999 7C10.6738 7 9.40207 7.52678 8.46439 8.46447C7.52671 9.40215 6.99992 10.6739 6.99992 12C6.99992 13.3261 7.52671 14.5979 8.46439 15.5355ZM1.46156 11.0599C3.63729 7.02182 7.81861 4 11.9999 4C16.6151 4 19.9523 6.982 22.4047 10.9799C22.7956 11.6172 22.8549 12.4103 22.5093 13.0732C20.4816 16.9633 16.1272 20 11.9999 20C7.83086 20 3.43006 16.9015 1.42962 12.9548C1.12663 12.357 1.14368 11.6499 1.46156 11.0599ZM12 15C13.6569 15 15 13.6569 15 12C15 10.3431 13.6569 9 12 9C10.3431 9 9 10.3431 9 12C9 13.6569 10.3431 15 12 15Z" fill="#121212"/>
</svg>
