<svg width="22" height="21" viewBox="0 0 22 21" fill="none" xmlns="http://www.w3.org/2000/svg">
<path fill-rule="evenodd" clip-rule="evenodd" d="M10.001 4.33461L10.2663 3.27338C10.2973 3.14945 10.4086 3.0625 10.5364 3.0625H11.4636C11.5914 3.0625 11.7028 3.14945 11.7337 3.27338L11.999 4.33461C12.2385 5.29246 13.2091 5.87483 14.167 5.63537C14.3381 5.59259 14.5019 5.52472 14.6532 5.43398L15.5912 4.87118C15.7007 4.80545 15.8409 4.82272 15.9313 4.91305L16.587 5.56874C16.6773 5.65907 16.6945 5.79929 16.6288 5.90884L16.066 6.84684C15.558 7.69346 15.8326 8.79159 16.6792 9.29957C16.8304 9.39032 16.9943 9.45818 17.1654 9.50096L18.2266 9.76626C18.3506 9.79725 18.4375 9.90861 18.4375 10.0364V10.9636C18.4375 11.0914 18.3506 11.2028 18.2266 11.2337L17.1654 11.499C16.2075 11.7385 15.6252 12.7091 15.8646 13.667C15.9074 13.8381 15.9753 14.0019 16.066 14.1532L16.6288 15.0912C16.6945 15.2007 16.6773 15.3409 16.5869 15.4313L15.9313 16.0869C15.8409 16.1773 15.7007 16.1945 15.5912 16.1288L14.6532 15.566C13.8065 15.058 12.7084 15.3326 12.2004 16.1792C12.1097 16.3304 12.0418 16.4943 11.999 16.6654L11.7337 17.7266C11.7028 17.8506 11.5914 17.9375 11.4636 17.9375H10.5364C10.4086 17.9375 10.2973 17.8506 10.2663 17.7266L10.001 16.6654C9.7615 15.7075 8.79088 15.1252 7.83303 15.3646C7.6619 15.4074 7.49806 15.4753 7.34684 15.566L6.40884 16.1288C6.29929 16.1945 6.15907 16.1773 6.06874 16.0869L5.41305 15.4313C5.32272 15.3409 5.30545 15.2007 5.37118 15.0912L5.93398 14.1532C6.44196 13.3065 6.16743 12.2084 5.3208 11.7004C5.16956 11.6097 5.00572 11.5418 4.83461 11.499L3.77338 11.2337C3.64945 11.2028 3.5625 11.0914 3.5625 10.9636V10.0364C3.5625 9.90861 3.64945 9.79725 3.77338 9.76626L4.83461 9.50096C5.79246 9.2615 6.37483 8.29088 6.13537 7.33303C6.09259 7.16192 6.02472 6.99808 5.93398 6.84684L5.37118 5.90884C5.30545 5.79929 5.32272 5.65907 5.41305 5.56874L6.06874 4.91305C6.15907 4.82272 6.29929 4.80545 6.40884 4.87118L7.34684 5.43398C8.19347 5.94196 9.2916 5.66743 9.79957 4.8208C9.89032 4.66956 9.95818 4.50572 10.001 4.33461ZM4.24572 14.4159C3.87013 15.0419 3.96877 15.8431 4.48497 16.3593L5.14066 17.015C5.65686 17.5312 6.45813 17.6299 7.08412 17.2543L8.02211 16.6915C8.06232 16.6674 8.10587 16.6493 8.15135 16.6379C8.40598 16.5743 8.66399 16.7291 8.72765 16.9837L8.99295 18.0449C9.17001 18.7532 9.80634 19.25 10.5364 19.25H11.4636C12.1937 19.25 12.83 18.7532 13.007 18.0449L13.2724 16.9837C13.2837 16.9382 13.3018 16.8947 13.3259 16.8545C13.4609 16.6294 13.7528 16.5564 13.9779 16.6915L14.9159 17.2543C15.5419 17.6299 16.3431 17.5312 16.8593 17.015L17.515 16.3593C18.0312 15.8431 18.1299 15.0419 17.7543 14.4159L17.1915 13.4779C17.1674 13.4377 17.1493 13.3941 17.1379 13.3486C17.0743 13.094 17.2291 12.836 17.4837 12.7724L18.5449 12.507C19.2532 12.33 19.75 11.6937 19.75 10.9636V10.0364C19.75 9.30634 19.2532 8.67001 18.5449 8.49295L17.4837 8.22765C17.4382 8.21628 17.3947 8.19824 17.3545 8.17411C17.1294 8.03908 17.0564 7.74717 17.1915 7.52211L17.7543 6.58412C18.1299 5.95813 18.0312 5.15686 17.515 4.64066L16.8593 3.98497C16.3431 3.46877 15.5419 3.37013 14.9159 3.74572L13.9779 4.30852C13.9377 4.33264 13.8941 4.35068 13.8486 4.36205C13.594 4.42571 13.336 4.2709 13.2724 4.01628L13.007 2.95506C12.83 2.24684 12.1937 1.75 11.4636 1.75H10.5364C9.80634 1.75 9.17001 2.24684 8.99295 2.95506L8.72765 4.01628C8.71628 4.06176 8.69824 4.10532 8.67411 4.14552C8.53908 4.37058 8.24717 4.44355 8.02211 4.30852L7.08412 3.74572C6.45813 3.37013 5.65686 3.46877 5.14066 3.98497L4.48497 4.64066C3.96877 5.15686 3.87013 5.95813 4.24572 6.58412L4.80852 7.52211C4.83264 7.56232 4.85068 7.60587 4.86205 7.65135C4.92571 7.90598 4.7709 8.16399 4.51628 8.22765L3.45506 8.49295C2.74684 8.67001 2.25 9.30634 2.25 10.0364V10.9636C2.25 11.6937 2.74684 12.33 3.45506 12.507L4.51628 12.7724C4.56176 12.7837 4.60532 12.8018 4.64552 12.8259C4.87058 12.9609 4.94355 13.2528 4.80852 13.4779L4.24572 14.4159ZM9.03125 10.5C9.03125 9.41269 9.91269 8.53125 11 8.53125C12.0873 8.53125 12.9688 9.41269 12.9688 10.5C12.9688 11.5873 12.0873 12.4688 11 12.4688C9.91269 12.4688 9.03125 11.5873 9.03125 10.5ZM11 7.21875C9.18782 7.21875 7.71875 8.68782 7.71875 10.5C7.71875 12.3122 9.18782 13.7812 11 13.7812C12.8122 13.7812 14.2812 12.3122 14.2812 10.5C14.2812 8.68782 12.8122 7.21875 11 7.21875Z" fill="#001F58"/>
</svg>

