<svg width="48" height="48" viewBox="0 0 48 48" fill="none" xmlns="http://www.w3.org/2000/svg">
<g clip-path="url(#clip0_1649_96641)">
<rect width="48" height="48" rx="8" fill="white"/>
<path fill-rule="evenodd" clip-rule="evenodd" d="M14.5 6.5C12.8431 6.5 11.5 7.84315 11.5 9.5V30.3953C11.5 31.2758 11.8868 32.1119 12.5579 32.6819L22.3816 41.0255C23.3149 41.8182 24.6851 41.8182 25.6184 41.0255L35.4421 32.6819C36.1132 32.1119 36.5 31.2758 36.5 30.3953V9.5C36.5 7.84315 35.1569 6.5 33.5 6.5H14.5ZM21.5 34.5L16.4728 29.8918C15.8529 29.3235 15.5 28.5212 15.5 27.6803V23V21.5V12.5C15.5 11.3954 16.3954 10.5 17.5 10.5H30.5C31.6046 10.5 32.5 11.3954 32.5 12.5V19.5C32.5 20.6046 31.6046 21.5 30.5 21.5C31.6046 21.5 32.5 22.3954 32.5 23.5V27.6803C32.5 28.5212 32.1471 29.3235 31.5272 29.8918L26.5 34.5V25C26.5 23.8954 25.6046 23 24.5 23H21.5V34.5ZM21.5 13.5V19.5H24.5C25.6046 19.5 26.5 18.6046 26.5 17.5V13.5H21.5Z" fill="#1273EA"/>
<path fill-rule="evenodd" clip-rule="evenodd" d="M16.4728 29.8918L21.5 34.5V23H24.5C25.6046 23 26.5 23.8954 26.5 25V34.5L31.5272 29.8918C32.1471 29.3235 32.5 28.5212 32.5 27.6803V23.5C32.5 22.3954 31.6046 21.5 30.5 21.5C31.6046 21.5 32.5 20.6046 32.5 19.5V12.5C32.5 11.3954 31.6046 10.5 30.5 10.5H17.5C16.3954 10.5 15.5 11.3954 15.5 12.5V21.5V23V27.6803C15.5 28.5212 15.8529 29.3235 16.4728 29.8918ZM21.5 19.5V13.5H26.5V17.5C26.5 18.6046 25.6046 19.5 24.5 19.5H21.5Z" fill="white"/>
</g>
<defs>
<clipPath id="clip0_1649_96641">
<rect width="48" height="48" rx="8" fill="white"/>
</clipPath>
</defs>
</svg>
