<svg width="40" height="40" viewBox="0 0 40 40" fill="none" xmlns="http://www.w3.org/2000/svg">
<g clip-path="url(#clip0_12089_257565)">
<path d="M0 24.8335C0 22.6244 1.79086 20.8335 4 20.8335H15.1667C17.3758 20.8335 19.1667 22.6244 19.1667 24.8335V36.0002C19.1667 38.2093 17.3758 40.0002 15.1667 40.0002H4C1.79086 40.0002 0 38.2093 0 36.0002V24.8335Z" fill="#8247E5"/>
<path d="M9.58333 40.0002C14.8761 40.0002 19.1667 35.7096 19.1667 30.4168C19.1667 25.1241 14.8761 20.8335 9.58333 20.8335C4.2906 20.8335 0 25.1241 0 30.4168C0 35.7096 4.2906 40.0002 9.58333 40.0002Z" fill="#8247E5"/>
<path d="M12.6334 28.3977C12.4123 28.266 12.125 28.266 11.8819 28.3977L10.158 29.4074L8.98657 30.0659L7.26264 31.0755C7.04162 31.2072 6.7543 31.2072 6.51118 31.0755L5.14087 30.2853C4.91986 30.1536 4.76514 29.9122 4.76514 29.6488V28.0904C4.76514 27.827 4.89776 27.5856 5.14087 27.4539L6.48908 26.6857C6.7101 26.554 6.99742 26.554 7.24054 26.6857L8.58876 27.4539C8.80975 27.5856 8.96448 27.827 8.96448 28.0904V29.1001L10.1359 28.4197V27.41C10.1359 27.1466 10.0033 26.9052 9.76015 26.7735L7.26264 25.3248C7.04162 25.1932 6.7543 25.1932 6.51118 25.3248L3.96948 26.7735C3.72636 26.9052 3.59375 27.1466 3.59375 27.41V30.3293C3.59375 30.5926 3.72636 30.8341 3.96948 30.9658L6.51118 32.4144C6.7322 32.5461 7.01953 32.5461 7.26264 32.4144L8.98657 31.4267L10.158 30.7463L11.8819 29.7586C12.1029 29.6269 12.3902 29.6269 12.6334 29.7586L13.9816 30.5268C14.2026 30.6585 14.3573 30.9 14.3573 31.1633V32.7217C14.3573 32.9851 14.2247 33.2265 13.9816 33.3582L12.6334 34.1484C12.4123 34.2801 12.125 34.2801 11.8819 34.1484L10.5337 33.3802C10.3127 33.2485 10.158 33.007 10.158 32.7437V31.734L8.98657 32.4144V33.4241C8.98657 33.6875 9.1192 33.9289 9.36229 34.0606L11.904 35.5093C12.125 35.6409 12.4123 35.6409 12.6555 35.5093L15.1972 34.0606C15.4182 33.9289 15.5729 33.6875 15.5729 33.4241V30.5048C15.5729 30.2415 15.4403 30 15.1972 29.8683L12.6334 28.3977Z" fill="white"/>
</g>
<path d="M0 4C0 1.79086 1.79086 0 4 0H15.1667C17.3758 0 19.1667 1.79086 19.1667 4V15.1667C19.1667 17.3758 17.3758 19.1667 15.1667 19.1667H4C1.79086 19.1667 0 17.3758 0 15.1667V4Z" fill="#627EEA"/>
<path d="M9.68164 2.396V7.70876L14.172 9.71527L9.68164 2.396Z" fill="white" fill-opacity="0.602"/>
<path d="M9.6824 2.396L5.19141 9.71527L9.6824 7.70876V2.396Z" fill="white"/>
<path d="M9.68164 13.1579V16.7679L14.175 10.5513L9.68164 13.1579Z" fill="white" fill-opacity="0.602"/>
<path d="M9.6824 16.7679V13.1573L5.19141 10.5513L9.6824 16.7679Z" fill="white"/>
<path d="M9.68164 12.3225L14.172 9.71527L9.68164 7.70996V12.3225Z" fill="white" fill-opacity="0.2"/>
<path d="M5.19141 9.71527L9.6824 12.3225V7.70996L5.19141 9.71527Z" fill="white" fill-opacity="0.602"/>
<path d="M20.834 4C20.834 1.79086 22.6248 0 24.834 0H36.0007C38.2098 0 40.0007 1.79086 40.0007 4V15.1667C40.0007 17.3758 38.2098 19.1667 36.0007 19.1667H24.834C22.6248 19.1667 20.834 17.3758 20.834 15.1667V4Z" fill="#F3BA2F"/>
<path fill-rule="evenodd" clip-rule="evenodd" d="M28.091 8.6274L30.4173 6.30104L32.7449 8.62859L34.0985 7.27495L30.4173 3.59375L26.7373 7.27375L28.091 8.6274ZM24.4277 9.58333L25.7814 8.22969L27.135 9.58333L25.7814 10.937L24.4277 9.58333ZM30.4173 12.8656L28.091 10.5393L26.7355 11.8911L26.7373 11.8929L30.4173 15.5729L34.0985 11.8911L32.7449 10.5381L30.4173 12.8656ZM33.6996 9.58333L35.0533 8.22969L36.4069 9.58333L35.0533 10.937L33.6996 9.58333ZM31.7913 9.58214H31.7901L30.4173 8.20932L29.4021 9.22396L29.2853 9.34075L29.0451 9.58154L29.0427 9.58333L29.0451 9.58573L30.4173 10.9573L31.7913 9.58333V9.58214Z" fill="white"/>
<rect x="20.834" y="20.8335" width="19.1667" height="19.1667" rx="4" fill="#CAD0E2"/>
<path fill-rule="evenodd" clip-rule="evenodd" d="M30.834 31.8058C30.297 31.8058 29.8618 31.3705 29.8618 30.8336C29.8618 30.2966 30.297 29.8613 30.834 29.8613C31.3709 29.8613 31.8062 30.2966 31.8062 30.8336C31.8062 31.3705 31.3709 31.8058 30.834 31.8058ZM34.2368 31.8058C33.6998 31.8058 33.2645 31.3705 33.2645 30.8336C33.2645 30.2966 33.6998 29.8613 34.2368 29.8613C34.7737 29.8613 35.209 30.2966 35.209 30.8336C35.209 31.3705 34.7737 31.8058 34.2368 31.8058ZM27.4312 31.8058C26.8943 31.8058 26.459 31.3705 26.459 30.8336C26.459 30.2966 26.8943 29.8613 27.4312 29.8613C27.9682 29.8613 28.4034 30.2966 28.4034 30.8336C28.4034 31.3705 27.9682 31.8058 27.4312 31.8058Z" fill="white"/>
<defs>
<clipPath id="clip0_12089_257565">
<path d="M0 24.8335C0 22.6244 1.79086 20.8335 4 20.8335H15.1667C17.3758 20.8335 19.1667 22.6244 19.1667 24.8335V36.0002C19.1667 38.2093 17.3758 40.0002 15.1667 40.0002H4C1.79086 40.0002 0 38.2093 0 36.0002V24.8335Z" fill="white"/>
</clipPath>
</defs>
</svg>
