<svg width="24" height="24" viewBox="0 0 24 24" fill="none" xmlns="http://www.w3.org/2000/svg">
<path fill-rule="evenodd" clip-rule="evenodd" d="M21.5 13C21.7761 13 22 13.2239 22 13.5V16.7265C22 17.2788 21.5523 17.7265 21 17.7265H18.6795V18.5222L17.9122 17.7265H15C14.4477 17.7265 14 17.2788 14 16.7265V16.5C14 15.9477 13.5523 15.5 13 15.5C12.4477 15.5 12 15.9477 12 16.5V16.7265C12 18.3834 13.3431 19.7265 15 19.7265H17.0624L18.0997 20.8023C19.0364 21.7738 20.6795 21.1107 20.6795 19.7611V19.7265H21C22.6569 19.7265 24 18.3834 24 16.7265V13.5C24 12.1193 22.8807 11 21.5 11C20.9477 11 20.5 11.4477 20.5 12C20.5 12.5523 20.9477 13 21.5 13Z" fill="#121212"/>
<path fill-rule="evenodd" clip-rule="evenodd" d="M1 5C1 3.34315 2.34315 2 4 2H17C18.6569 2 20 3.34315 20 5V12.2109C20 13.8677 18.6569 15.2109 17 15.2109H11.7907L9.21431 17.8304C8.27303 18.7874 6.64488 18.1209 6.64488 16.7786V15.2109H4C2.34314 15.2109 1 13.8677 1 12.2109V5ZM4 4C3.44772 4 3 4.44772 3 5V12.2109C3 12.7632 3.44772 13.2109 4 13.2109H8.64488V15.5571L10.9525 13.2109H17C17.5523 13.2109 18 12.7632 18 12.2109V5C18 4.44772 17.5523 4 17 4H4Z" fill="#121212"/>
<path d="M6 8.5C6 7.94772 6.44772 7.5 7 7.5C7.55228 7.5 8 7.94772 8 8.5C8 9.05228 7.55228 9.5 7 9.5C6.44772 9.5 6 9.05228 6 8.5Z" fill="#121212"/>
<path d="M9.5 8.5C9.5 7.94772 9.94772 7.5 10.5 7.5C11.0523 7.5 11.5 7.94772 11.5 8.5C11.5 9.05228 11.0523 9.5 10.5 9.5C9.94772 9.5 9.5 9.05228 9.5 8.5Z" fill="#121212"/>
<path d="M13 8.5C13 7.94772 13.4477 7.5 14 7.5C14.5523 7.5 15 7.94772 15 8.5C15 9.05228 14.5523 9.5 14 9.5C13.4477 9.5 13 9.05228 13 8.5Z" fill="#121212"/>
</svg>
