<svg width="16" height="16" viewBox="0 0 16 16" fill="none" xmlns="http://www.w3.org/2000/svg">
<path fill-rule="evenodd" clip-rule="evenodd" d="M3.33398 2.66634C2.96579 2.66634 2.66732 2.96482 2.66732 3.33301C2.66732 3.7012 2.96579 3.99967 3.33398 3.99967L12.6673 3.99968C13.7719 3.99968 14.6673 4.89511 14.6673 5.99968V12.6663C14.6673 13.7709 13.7719 14.6663 12.6673 14.6663H3.33398C2.22941 14.6663 1.33398 13.7709 1.33398 12.6663V3.33301C1.33398 2.22844 2.22942 1.33301 3.33398 1.33301H11.334C11.7022 1.33301 12.0007 1.63148 12.0007 1.99967C12.0007 2.36786 11.7022 2.66634 11.334 2.66634H3.33398ZM2.66732 5.2192V12.6663C2.66732 13.0345 2.9658 13.333 3.33398 13.333H12.6673C13.0355 13.333 13.334 13.0345 13.334 12.6663V5.99968C13.334 5.63148 13.0355 5.33301 12.6673 5.33301L3.33398 5.33301C3.10023 5.33301 2.87584 5.2929 2.66732 5.2192ZM10.0007 9.33301C10.0007 8.78072 10.4484 8.33301 11.0007 8.33301C11.5529 8.33301 12.0007 8.78072 12.0007 9.33301C12.0007 9.88529 11.5529 10.333 11.0007 10.333C10.4484 10.333 10.0007 9.88529 10.0007 9.33301Z" fill="#121212"/>
</svg>
