<svg width="24" height="24" viewBox="0 0 24 24" fill="none" xmlns="http://www.w3.org/2000/svg">
<path fill-rule="evenodd" clip-rule="evenodd" d="M16.3871 5.23243C16.5755 5.39692 16.6909 5.62951 16.7079 5.87907C16.7249 6.12862 16.642 6.3747 16.4776 6.56321L6.59493 17.8836C6.50639 17.985 6.39715 18.0663 6.27457 18.122C6.15199 18.1777 6.01891 18.2066 5.88426 18.2066C5.74962 18.2066 5.61654 18.1777 5.49396 18.122C5.37138 18.0663 5.26214 17.985 5.1736 17.8836L1.22027 13.3554C1.06169 13.1662 0.983635 12.9223 1.00287 12.6761C1.0221 12.4299 1.13709 12.2011 1.32314 12.0388C1.50919 11.8764 1.75147 11.7935 1.99798 11.8078C2.24449 11.8221 2.47556 11.9325 2.6416 12.1152L5.88426 15.8296L15.0563 5.32299C15.2208 5.13456 15.4534 5.01916 15.7029 5.00218C15.9525 4.9852 16.1986 5.06802 16.3871 5.23243ZM22.7076 5.33935C23.085 5.69782 23.0988 6.29529 22.7391 6.67264L11.9583 17.993C11.8641 18.0919 11.7496 18.1692 11.6227 18.2195C11.4957 18.2698 11.3594 18.292 11.223 18.2844C11.0867 18.2769 10.9536 18.2398 10.833 18.1759C10.7124 18.1119 10.6071 18.0224 10.5244 17.9138L9.98476 17.2056C9.84341 17.0214 9.77499 16.7914 9.79262 16.5599C9.81024 16.3283 9.91266 16.1114 10.0803 15.9506C10.2479 15.7899 10.4689 15.6966 10.701 15.6886C10.9331 15.6807 11.16 15.7586 11.3382 15.9076L21.3731 5.37079C21.5456 5.18972 21.7829 5.08456 22.0329 5.07843C22.283 5.0723 22.5252 5.1657 22.7064 5.33809" fill="#121212"/>
</svg>
