<svg width="24" height="24" viewBox="0 0 24 24" fill="none" xmlns="http://www.w3.org/2000/svg">
<path d="M16.9598 16.7602C16.9023 16.7602 16.8613 16.7437 16.8366 16.7109C16.812 16.678 16.8161 16.637 16.849 16.5877L19.2389 12.4854C19.2553 12.4608 19.2553 12.4361 19.2389 12.4115L16.849 8.30919L16.8243 8.23527C16.8243 8.16957 16.8695 8.13672 16.9598 8.13672H18.5244C18.6065 8.13672 18.6681 8.16957 18.7092 8.23527L20.3107 11.0564C20.3353 11.1056 20.3599 11.1056 20.3846 11.0564L21.9861 8.23527C22.0271 8.16957 22.0887 8.13672 22.1709 8.13672H23.7231C23.7806 8.13672 23.8216 8.15314 23.8463 8.186C23.8709 8.21885 23.8668 8.25991 23.8339 8.30919L21.444 12.4115C21.4358 12.4361 21.4358 12.4608 21.444 12.4854L23.8339 16.5877L23.8586 16.6616C23.8586 16.7273 23.8134 16.7602 23.7231 16.7602H22.1709C22.0887 16.7602 22.0271 16.7273 21.9861 16.6616L20.3846 13.8528C20.3599 13.8036 20.3353 13.8036 20.3107 13.8528L18.6968 16.6616C18.6558 16.7273 18.5942 16.7602 18.5121 16.7602H16.9598Z" fill="#121212"/>
<path d="M14.4238 16.7602C14.3417 16.7602 14.2883 16.7191 14.2637 16.637L13.8941 15.4297C13.8777 15.3968 13.8571 15.3804 13.8325 15.3804H10.802C10.7773 15.3804 10.7568 15.3968 10.7404 15.4297L10.3831 16.637C10.3585 16.7191 10.3051 16.7602 10.223 16.7602H8.65844C8.60916 16.7602 8.5722 16.7478 8.54757 16.7232C8.52293 16.6904 8.51882 16.6452 8.53525 16.5877L11.1962 8.25991C11.2208 8.17778 11.2742 8.13672 11.3563 8.13672H13.2905C13.3726 8.13672 13.426 8.17778 13.4506 8.25991L16.1116 16.5877C16.1198 16.6041 16.1239 16.6247 16.1239 16.6493C16.1239 16.7232 16.0787 16.7602 15.9884 16.7602H14.4238ZM11.1839 13.9637C11.1757 14.013 11.1921 14.0376 11.2332 14.0376H13.4013C13.4506 14.0376 13.467 14.013 13.4506 13.9637L12.3419 10.3049C12.3337 10.272 12.3213 10.2597 12.3049 10.2679C12.2885 10.2679 12.2762 10.2803 12.268 10.3049L11.1839 13.9637Z" fill="#121212"/>
<path d="M5.67938 8.23527C5.72045 8.16957 5.77794 8.13672 5.85185 8.13672H7.2932C7.33426 8.13672 7.36712 8.15314 7.39175 8.186C7.42461 8.21063 7.44103 8.24349 7.44103 8.28455V16.6123C7.44103 16.6534 7.42461 16.6904 7.39175 16.7232C7.36712 16.7478 7.33426 16.7602 7.2932 16.7602H5.85185C5.81079 16.7602 5.77383 16.7478 5.74098 16.7232C5.71634 16.6904 5.70402 16.6534 5.70402 16.6123V11.1796C5.70402 11.1467 5.69581 11.1303 5.67938 11.1303C5.66296 11.1303 5.64653 11.1426 5.63011 11.1672L4.32427 13.2122C4.28321 13.2779 4.22572 13.3108 4.1518 13.3108H3.42497C3.35105 13.3108 3.29357 13.2779 3.2525 13.2122L1.94667 11.1672C1.93024 11.1426 1.91381 11.1344 1.89739 11.1426C1.88096 11.1426 1.87275 11.159 1.87275 11.1919V16.6123C1.87275 16.6534 1.85632 16.6904 1.82347 16.7232C1.79883 16.7478 1.76598 16.7602 1.72492 16.7602H0.283573C0.242509 16.7602 0.205551 16.7478 0.1727 16.7232C0.148061 16.6904 0.135742 16.6534 0.135742 16.6123V8.28455C0.135742 8.24349 0.148061 8.21063 0.1727 8.186C0.205551 8.15314 0.242509 8.13672 0.283573 8.13672H1.72492C1.79884 8.13672 1.85632 8.16957 1.89739 8.23527L3.74527 11.1056C3.76991 11.1549 3.79455 11.1549 3.81918 11.1056L5.67938 8.23527Z" fill="#121212"/>
<path fill-rule="evenodd" clip-rule="evenodd" d="M23.8597 16.6618C23.8597 16.7275 23.8146 16.7603 23.7242 16.7603H22.172C22.0899 16.7603 22.0283 16.7275 21.9872 16.6618L20.3857 13.853C20.3611 13.8037 20.3364 13.8037 20.3118 13.853L18.698 16.6618C18.6569 16.7275 18.5953 16.7603 18.5132 16.7603H16.961C16.9035 16.7603 16.8624 16.7439 16.8378 16.711C16.8131 16.6782 16.8172 16.6371 16.8501 16.5879L19.24 12.4856C19.2564 12.4609 19.2564 12.4363 19.24 12.4116L16.8501 8.30935L16.8255 8.23543C16.8255 8.16973 16.8706 8.13688 16.961 8.13688H18.5255C18.6076 8.13688 18.6692 8.16973 18.7103 8.23543L20.3118 11.0565C20.3364 11.1058 20.3611 11.1058 20.3857 11.0565L21.9872 8.23543C22.0283 8.16973 22.0899 8.13688 22.172 8.13688H23.7242C23.7817 8.13688 23.8228 8.15331 23.8474 8.18616C23.872 8.21901 23.8679 8.26007 23.8351 8.30935L21.4452 12.4116C21.4369 12.4363 21.4369 12.4609 21.4452 12.4856L23.8351 16.5879L23.8597 16.6618ZM21.582 12.4486L23.9605 16.5312L23.9966 16.6396V16.6618C23.9966 16.7296 23.9709 16.7994 23.9064 16.8464C23.8499 16.8874 23.7819 16.8972 23.7242 16.8972H22.172C22.0461 16.8972 21.939 16.8429 21.8711 16.7343L21.8682 16.7296L20.3484 14.064L18.8141 16.7344C18.7463 16.8429 18.6391 16.8972 18.5132 16.8972H16.961C16.8788 16.8972 16.7881 16.8729 16.7283 16.7932C16.6953 16.7492 16.6807 16.6965 16.6862 16.642C16.691 16.5934 16.7109 16.5507 16.7337 16.5157L19.1031 12.4486L16.7247 8.36604L16.6886 8.25765V8.23543C16.6886 8.16758 16.7143 8.09777 16.7788 8.05082C16.8353 8.00976 16.9033 8 16.961 8H18.5255C18.6514 8 18.7585 8.05435 18.8264 8.16289L18.8294 8.1678L20.3487 10.8444L21.871 8.16282C21.9389 8.05428 22.0461 8 22.172 8H23.7242C23.8064 8 23.8971 8.02428 23.9569 8.10403C23.9899 8.14805 24.0045 8.20074 23.999 8.25521C23.9941 8.30383 23.9742 8.34648 23.9515 8.38148L21.582 12.4486Z" fill="#121212"/>
<path fill-rule="evenodd" clip-rule="evenodd" d="M8.54815 16.7234C8.52352 16.6905 8.51941 16.6453 8.53583 16.5879L11.1968 8.26007C11.2214 8.17794 11.2748 8.13688 11.3569 8.13688H13.291C13.3732 8.13688 13.4266 8.17794 13.4512 8.26007L16.1121 16.5879C16.1204 16.6043 16.1245 16.6248 16.1245 16.6495C16.1245 16.7234 16.0793 16.7603 15.989 16.7603H14.4244C14.3423 16.7603 14.2889 16.7193 14.2643 16.6371L13.8947 15.4299C13.8783 15.397 13.8577 15.3806 13.8331 15.3806H10.8026C10.7779 15.3806 10.7574 15.397 10.741 15.4299L10.3837 16.6371C10.3591 16.7193 10.3057 16.7603 10.2236 16.7603H8.65903C8.60975 16.7603 8.57279 16.748 8.54815 16.7234ZM10.8578 15.5175L10.515 16.676C10.4967 16.737 10.4636 16.7957 10.4087 16.838C10.3532 16.8807 10.288 16.8972 10.2236 16.8972H8.65903C8.58865 16.8972 8.51073 16.8795 8.45137 16.8202L8.44449 16.8133L8.43865 16.8055C8.37814 16.7248 8.38165 16.6293 8.40422 16.5503L8.40539 16.5462L11.0661 8.21939C11.0845 8.15888 11.1173 8.10115 11.1718 8.05918C11.2273 8.01649 11.2925 8 11.3569 8H13.291C13.3555 8 13.4206 8.01649 13.4761 8.05918C13.5307 8.10117 13.5635 8.15893 13.5819 8.21947L16.24 16.5383C16.2561 16.5756 16.2613 16.6142 16.2613 16.6495C16.2613 16.7156 16.2398 16.7874 16.1773 16.8385C16.12 16.8854 16.0493 16.8972 15.989 16.8972H14.4244C14.36 16.8972 14.2948 16.8807 14.2393 16.838C14.1845 16.7959 14.1517 16.7378 14.1333 16.677C14.1333 16.6768 14.1334 16.6772 14.1333 16.677L13.7784 15.5175H10.8578ZM13.2891 13.9009L12.3066 10.6586L11.3459 13.9009H13.2891ZM11.1845 13.9639C11.1763 14.0131 11.1927 14.0378 11.2337 14.0378H13.4019C13.4512 14.0378 13.4676 14.0131 13.4512 13.9639L12.3425 10.3051C12.3343 10.2722 12.3219 10.2599 12.3055 10.2681C12.2891 10.2681 12.2768 10.2804 12.2686 10.3051L11.1845 13.9639Z" fill="#121212"/>
<path fill-rule="evenodd" clip-rule="evenodd" d="M5.64435 16.8211L5.63262 16.8055C5.59021 16.749 5.56828 16.6832 5.56828 16.6125V11.5203L4.44148 13.2849C4.44136 13.2851 4.44161 13.2847 4.44148 13.2849C4.37685 13.388 4.2765 13.4478 4.15294 13.4478H3.42611C3.30256 13.4478 3.20259 13.3886 3.13796 13.2856C3.13783 13.2854 3.1381 13.2858 3.13796 13.2856L2.01077 11.5203V16.6125C2.01077 16.6947 1.97625 16.7653 1.9214 16.8202C1.86655 16.875 1.79645 16.8972 1.72606 16.8972H0.284711C0.21403 16.8972 0.148254 16.8753 0.0917096 16.8329L0.0760662 16.8211L0.0643336 16.8055C0.0219252 16.749 0 16.6832 0 16.6125V8.28471C0 8.21432 0.0221962 8.14422 0.0770485 8.08937C0.131895 8.03452 0.202457 8 0.284711 8H1.72606C1.84951 8 1.94943 8.05917 2.01406 8.16203L3.78362 10.9107L5.5651 8.16185C5.62974 8.0591 5.72961 8 5.85299 8H7.29434C7.37193 8 7.44041 8.03122 7.49019 8.08886C7.54783 8.13864 7.57905 8.20712 7.57905 8.28471V16.6125C7.57905 16.6947 7.54453 16.7653 7.48968 16.8202C7.43483 16.875 7.36473 16.8972 7.29434 16.8972H5.85299C5.78231 16.8972 5.71654 16.8753 5.65999 16.8329L5.64435 16.8211ZM7.39289 8.18616C7.36825 8.15331 7.3354 8.13688 7.29434 8.13688H5.85299C5.77908 8.13688 5.72159 8.16973 5.68052 8.23543L3.82032 11.1058C3.79568 11.1551 3.77105 11.1551 3.74641 11.1058L1.89853 8.23543C1.85746 8.16973 1.79997 8.13688 1.72606 8.13688H0.284711C0.243647 8.13688 0.206689 8.15331 0.173838 8.18616C0.149199 8.2108 0.13688 8.24365 0.13688 8.28471V16.6125C0.13688 16.6536 0.149199 16.6905 0.173838 16.7234C0.206689 16.748 0.243647 16.7603 0.284711 16.7603H1.72606C1.76712 16.7603 1.79997 16.748 1.82461 16.7234C1.85746 16.6905 1.87389 16.6536 1.87389 16.6125V11.192C1.87389 11.1592 1.8821 11.1428 1.89853 11.1428C1.91495 11.1346 1.93138 11.1428 1.9478 11.1674L3.25364 13.2124C3.2947 13.2781 3.35219 13.3109 3.42611 13.3109H4.15294C4.22686 13.3109 4.28435 13.2781 4.32541 13.2124L5.63125 11.1674C5.64767 11.1428 5.6641 11.1304 5.68052 11.1304C5.69695 11.1304 5.70516 11.1469 5.70516 11.1797V16.6125C5.70516 16.6536 5.71748 16.6905 5.74212 16.7234C5.77497 16.748 5.81193 16.7603 5.85299 16.7603H7.29434C7.3354 16.7603 7.36825 16.748 7.39289 16.7234C7.42574 16.6905 7.44217 16.6536 7.44217 16.6125V8.28471C7.44217 8.24365 7.42574 8.2108 7.39289 8.18616Z" fill="#121212"/>
</svg>
