<svg width="24" height="24" viewBox="0 0 24 24" fill="none" xmlns="http://www.w3.org/2000/svg">
<path fill-rule="evenodd" clip-rule="evenodd" d="M11.597 1.18492C11.8628 1.13025 12.137 1.13025 12.4028 1.18492C12.7101 1.24812 12.9847 1.40195 13.203 1.52424C13.2234 1.53563 13.2432 1.54674 13.2626 1.55749L20.6626 5.6686C20.683 5.67996 20.7041 5.69157 20.7257 5.70347C20.9568 5.83078 21.2474 5.99085 21.4706 6.23303C21.6636 6.44241 21.8096 6.69057 21.8989 6.96092C22.0022 7.27363 22.001 7.6054 22.0001 7.86928C22 7.89394 21.9999 7.918 21.9999 7.94141V16.0585C21.9999 16.0819 22 16.106 22.0001 16.1306C22.001 16.3945 22.0022 16.7263 21.8989 17.039C21.8096 17.3094 21.6636 17.5575 21.4706 17.7669C21.2474 18.0091 20.9568 18.1691 20.7257 18.2964C20.7041 18.3083 20.683 18.32 20.6626 18.3313L13.2626 22.4424C13.2432 22.4532 13.2234 22.4643 13.203 22.4757C12.9847 22.598 12.7101 22.7518 12.4028 22.815C12.137 22.8697 11.8628 22.8697 11.597 22.815C11.2897 22.7518 11.0151 22.598 10.7967 22.4757C10.7764 22.4643 10.7565 22.4532 10.7372 22.4424L3.33721 18.3313C3.31675 18.32 3.29568 18.3084 3.27408 18.2965C3.04295 18.1691 2.75233 18.0091 2.52915 17.7669C2.3362 17.5575 2.19018 17.3094 2.10085 17.039C1.99753 16.7263 1.99874 16.3945 1.9997 16.1306C1.99979 16.106 1.99988 16.0819 1.99988 16.0585V7.94141C1.99988 7.91801 1.99979 7.89394 1.9997 7.86928C1.99874 7.60541 1.99753 7.27363 2.10085 6.96093C2.19017 6.69057 2.3362 6.44241 2.52915 6.23303C2.75232 5.99085 3.04294 5.83078 3.27407 5.70348C3.29567 5.69158 3.31675 5.67997 3.33721 5.6686L10.7372 1.55749C10.7565 1.54675 10.7764 1.53563 10.7967 1.52424C11.0151 1.40195 11.2897 1.24812 11.597 1.18492ZM11.9999 3.14895C11.9984 3.14968 11.9968 3.15044 11.9951 3.15124C11.9374 3.17907 11.86 3.22161 11.7085 3.3058L5.05902 6.99996L11.9998 10.856L18.9407 6.99994L12.2913 3.3058C12.1397 3.22161 12.0624 3.17907 12.0047 3.15124C12.003 3.15044 12.0014 3.14968 11.9999 3.14895ZM19.9999 8.69943V16.0585C19.9999 16.2415 19.9995 16.3351 19.9954 16.403C19.9953 16.405 19.9951 16.4069 19.995 16.4087C19.9935 16.4097 19.9919 16.4107 19.9902 16.4118C19.9329 16.4483 19.8512 16.4941 19.6913 16.583L12.9999 20.3005L12.9999 12.5883L19.9999 8.69943ZM10.9999 12.5883L3.99988 8.69947V16.0585C3.99988 16.2415 4.0003 16.3351 4.00438 16.403C4.0045 16.405 4.00462 16.4069 4.00474 16.4087C4.00628 16.4097 4.00789 16.4107 4.00958 16.4118C4.06688 16.4483 4.14854 16.4941 4.3085 16.583L10.9999 20.3004L10.9999 12.5883Z" fill="#121212"/>
</svg>
