<svg width="24" height="24" viewBox="0 0 24 24" fill="none" xmlns="http://www.w3.org/2000/svg">
<path fill-rule="evenodd" clip-rule="evenodd" d="M3.75 3C2.23122 3 1 4.23122 1 5.75V12.9609C1 14.4797 2.23122 15.7109 3.75 15.7109H6.64488V17.5286C6.64488 18.6472 8.00167 19.2026 8.78607 18.4051L11.4359 15.7109H16.75C18.2688 15.7109 19.5 14.4797 19.5 12.9609V5.75C19.5 4.23122 18.2688 3 16.75 3H3.75ZM6.75 8.25C6.19772 8.25 5.75 8.69772 5.75 9.25C5.75 9.80228 6.19772 10.25 6.75 10.25C7.30228 10.25 7.75 9.80228 7.75 9.25C7.75 8.69772 7.30228 8.25 6.75 8.25ZM10.25 8.25C9.69772 8.25 9.25 8.69772 9.25 9.25C9.25 9.80228 9.69772 10.25 10.25 10.25C10.8023 10.25 11.25 9.80228 11.25 9.25C11.25 8.69772 10.8023 8.25 10.25 8.25ZM12.75 9.25C12.75 8.69772 13.1977 8.25 13.75 8.25C14.3023 8.25 14.75 8.69772 14.75 9.25C14.75 9.80228 14.3023 10.25 13.75 10.25C13.1977 10.25 12.75 9.80228 12.75 9.25Z" fill="#121212"/>
<path d="M12.75 17.2109V17.4766C12.75 18.5811 13.6454 19.4766 14.75 19.4766H17.2373L18.5696 20.8582C18.8818 21.182 19.4295 20.961 19.4295 20.5111V19.4766H20.75C21.8546 19.4766 22.75 18.5811 22.75 17.4766V14.75C22.75 13.7301 21.9866 12.8885 21 12.7655V12.9609C21 15.3081 19.0972 17.2109 16.75 17.2109H12.75Z" fill="#121212"/>
</svg>
