<svg width="24" height="24" viewBox="0 0 24 24" fill="none" xmlns="http://www.w3.org/2000/svg">
<rect x="1" y="1" width="22" height="22" rx="11" fill="#121212"/>
<path fill-rule="evenodd" clip-rule="evenodd" d="M12.0047 7C12.557 7.00079 13.004 7.44914 13.0032 8.00143L12.9966 12.6681C12.9958 13.2204 12.5474 13.6675 11.9952 13.6667C11.4429 13.6659 10.9958 13.2175 10.9966 12.6652L11.0033 7.99857C11.004 7.44629 11.4524 6.99921 12.0047 7ZM10.9966 16C10.9966 15.4477 11.4443 15 11.9966 15H12.0032C12.5555 15 13.0032 15.4477 13.0032 16C13.0032 16.5523 12.5555 17 12.0032 17H11.9966C11.4443 17 10.9966 16.5523 10.9966 16Z" fill="white"/>
</svg>
