<svg width="24" height="24" viewBox="0 0 24 24" fill="none" xmlns="http://www.w3.org/2000/svg">
<path fill-rule="evenodd" clip-rule="evenodd" d="M11.2999 2.05756C11.5949 1.98081 11.9053 1.98081 12.2003 2.05756C12.5421 2.14649 12.8341 2.366 13.1113 2.57433C13.1347 2.59197 13.1581 2.60954 13.1814 2.62693L19.9637 7.69561C19.9869 7.71299 20.0099 7.73015 20.0326 7.74709C20.4187 8.03519 20.7248 8.2636 20.9524 8.55929C21.1533 8.82037 21.3041 9.11592 21.3961 9.43175C21.5008 9.79107 21.5005 10.1699 21.5001 10.638C21.5001 10.6662 21.5001 10.6946 21.5001 10.7234V17.7065C21.5001 18.218 21.5001 18.6485 21.4701 19.001C21.4387 19.3702 21.3705 19.7206 21.1947 20.0521C20.9269 20.557 20.5027 20.9621 19.9879 21.2141C19.6533 21.3779 19.3 21.4419 18.9224 21.4715C18.5593 21.5 18.1145 21.5 17.5795 21.5L15.5303 21.5C15.4077 21.5 15.2764 21.5001 15.163 21.4912C15.0355 21.4811 14.8674 21.4565 14.6933 21.3712C14.4607 21.2573 14.2659 21.0728 14.142 20.839C14.0479 20.6617 14.0206 20.4893 14.0096 20.3604C14 20.2477 14.0001 20.1181 14.0001 20.0015L14.0001 13.6396C14.0001 13.3577 13.9995 13.1931 13.9892 13.0721C13.984 13.0116 13.9777 12.9823 13.975 12.9718C13.9549 12.9372 13.922 12.9044 13.8763 12.8816C13.8683 12.879 13.8342 12.8698 13.7482 12.863C13.6176 12.8528 13.442 12.8522 13.1501 12.8522H10.3501C10.0582 12.8522 9.88257 12.8528 9.75199 12.863C9.66601 12.8698 9.63187 12.879 9.62386 12.8816C9.57813 12.9044 9.54525 12.9372 9.52523 12.9718C9.52248 12.9823 9.51616 13.0116 9.51102 13.0721C9.50072 13.1931 9.50009 13.3577 9.50009 13.6396L9.50009 20.0015C9.50013 20.1181 9.50016 20.2477 9.49058 20.3604C9.47962 20.4893 9.45223 20.6617 9.3582 20.839C9.23424 21.0728 9.0395 21.2573 8.80687 21.3712C8.63273 21.4565 8.46465 21.4811 8.33719 21.4912C8.22377 21.5001 8.09244 21.5 7.96986 21.5L5.9207 21.5C5.38567 21.5 4.94084 21.5 4.57779 21.4715C4.20021 21.4419 3.84689 21.3779 3.51232 21.2141C2.99745 20.9621 2.57324 20.557 2.30547 20.0521C2.12969 19.7206 2.06143 19.3702 2.03003 19.001C2.00007 18.6485 2.00008 18.218 2.00009 17.7065L2.00009 10.7234C2.00009 10.6946 2.00007 10.6662 2.00004 10.638C1.99967 10.1699 1.99937 9.79107 2.10405 9.43175C2.19605 9.11592 2.34683 8.82037 2.5478 8.55929C2.77541 8.26359 3.08149 8.03518 3.46757 7.74707C3.49027 7.73013 3.51325 7.71299 3.5365 7.69561L10.3188 2.62693C10.3421 2.60953 10.3654 2.59197 10.3889 2.57433C10.666 2.366 10.9581 2.14649 11.2999 2.05756ZM9.5266 12.9672L9.52615 12.9685L9.5266 12.9672ZM13.8783 12.8823L13.8763 12.8816L13.8783 12.8823ZM13.9736 12.9672L13.9741 12.9686L13.9736 12.9672Z" fill="#121212"/>
</svg>
