<svg width="17" height="16" viewBox="0 0 17 16" fill="none" xmlns="http://www.w3.org/2000/svg">
<path d="M11.4268 10.6869C11.3916 10.6869 11.3665 10.6768 11.3515 10.6568C11.3364 10.6367 11.3389 10.6116 11.359 10.5815L12.8195 8.07452C12.8296 8.05946 12.8296 8.0444 12.8195 8.02935L11.359 5.52239L11.3439 5.47722C11.3439 5.43707 11.3716 5.41699 11.4268 5.41699H12.3829C12.4331 5.41699 12.4707 5.43707 12.4958 5.47722L13.4745 7.20122C13.4895 7.23134 13.5046 7.23134 13.5197 7.20122L14.4983 5.47722C14.5234 5.43707 14.5611 5.41699 14.6113 5.41699H15.5598C15.595 5.41699 15.6201 5.42703 15.6351 5.44711C15.6502 5.46718 15.6477 5.49228 15.6276 5.52239L14.1671 8.02935C14.1621 8.0444 14.1621 8.05946 14.1671 8.07452L15.6276 10.5815L15.6427 10.6266C15.6427 10.6668 15.6151 10.6869 15.5598 10.6869H14.6113C14.5611 10.6869 14.5234 10.6668 14.4983 10.6266L13.5197 8.91017C13.5046 8.88005 13.4895 8.88005 13.4745 8.91017L12.4883 10.6266C12.4632 10.6668 12.4255 10.6869 12.3753 10.6869H11.4268Z" fill="#121212"/>
<path d="M9.87706 10.6869C9.82687 10.6869 9.79424 10.6618 9.77919 10.6116L9.55334 9.8738C9.5433 9.85373 9.53075 9.84369 9.51569 9.84369H7.66371C7.64865 9.84369 7.6361 9.85373 7.62607 9.8738L7.40774 10.6116C7.39269 10.6618 7.36006 10.6869 7.30987 10.6869H6.35377C6.32365 10.6869 6.30107 10.6793 6.28601 10.6643C6.27096 10.6442 6.26845 10.6166 6.27848 10.5815L7.90462 5.49228C7.91967 5.44209 7.9523 5.41699 8.00249 5.41699H9.18444C9.23463 5.41699 9.26726 5.44209 9.28231 5.49228L10.9084 10.5815C10.9135 10.5915 10.916 10.6041 10.916 10.6191C10.916 10.6643 10.8884 10.6869 10.8332 10.6869H9.87706ZM7.89709 8.97792C7.89207 9.00804 7.90211 9.02309 7.9272 9.02309H9.2522C9.28231 9.02309 9.29235 9.00804 9.28231 8.97792L8.60476 6.74199C8.59974 6.72191 8.59221 6.71439 8.58217 6.7194C8.57214 6.7194 8.56461 6.72693 8.55959 6.74199L7.89709 8.97792Z" fill="#121212"/>
<path d="M4.53329 5.47722C4.55838 5.43707 4.59351 5.41699 4.63868 5.41699H5.51951C5.5446 5.41699 5.56468 5.42703 5.57973 5.44711C5.59981 5.46216 5.60985 5.48224 5.60985 5.50733V10.5965C5.60985 10.6216 5.59981 10.6442 5.57973 10.6643C5.56468 10.6793 5.5446 10.6869 5.51951 10.6869H4.63868C4.61359 10.6869 4.591 10.6793 4.57093 10.6643C4.55587 10.6442 4.54834 10.6216 4.54834 10.5965V7.27651C4.54834 7.25643 4.54332 7.24639 4.53329 7.24639C4.52325 7.24639 4.51321 7.25392 4.50317 7.26898L3.70516 8.51869C3.68007 8.55884 3.64494 8.57892 3.59976 8.57892H3.15559C3.11042 8.57892 3.07529 8.55884 3.05019 8.51869L2.25218 7.26898C2.24214 7.25392 2.23211 7.2489 2.22207 7.25392C2.21203 7.25392 2.20701 7.26396 2.20701 7.28403V10.5965C2.20701 10.6216 2.19697 10.6442 2.1769 10.6643C2.16184 10.6793 2.14177 10.6869 2.11667 10.6869H1.23585C1.21075 10.6869 1.18817 10.6793 1.16809 10.6643C1.15304 10.6442 1.14551 10.6216 1.14551 10.5965V5.50733C1.14551 5.48224 1.15304 5.46216 1.16809 5.44711C1.18817 5.42703 1.21075 5.41699 1.23585 5.41699H2.11667C2.16184 5.41699 2.19697 5.43707 2.22207 5.47722L3.35133 7.23134C3.36638 7.26145 3.38144 7.26145 3.3965 7.23134L4.53329 5.47722Z" fill="#121212"/>
<path fill-rule="evenodd" clip-rule="evenodd" d="M15.6433 10.6267C15.6433 10.6668 15.6157 10.6869 15.5605 10.6869H14.6119C14.5617 10.6869 14.5241 10.6668 14.499 10.6267L13.5203 8.9102C13.5052 8.88008 13.4902 8.88008 13.4751 8.9102L12.4889 10.6267C12.4638 10.6668 12.4262 10.6869 12.376 10.6869H11.4274C11.3923 10.6869 11.3672 10.6769 11.3521 10.6568C11.3371 10.6367 11.3396 10.6116 11.3596 10.5815L12.8202 8.07455C12.8302 8.05949 12.8302 8.04443 12.8202 8.02938L11.3596 5.52242L11.3446 5.47725C11.3446 5.4371 11.3722 5.41702 11.4274 5.41702H12.3835C12.4337 5.41702 12.4713 5.4371 12.4964 5.47725L13.4751 7.20125C13.4902 7.23137 13.5052 7.23137 13.5203 7.20125L14.499 5.47725C14.5241 5.4371 14.5617 5.41702 14.6119 5.41702H15.5605C15.5956 5.41702 15.6207 5.42706 15.6358 5.44714C15.6508 5.46721 15.6483 5.49231 15.6282 5.52242L14.1677 8.02938C14.1627 8.04443 14.1627 8.05949 14.1677 8.07455L15.6282 10.5815L15.6433 10.6267ZM14.2514 8.05196L15.7049 10.5469L15.727 10.6131V10.6267C15.727 10.6681 15.7112 10.7108 15.6718 10.7395C15.6373 10.7646 15.5957 10.7705 15.5605 10.7705H14.6119C14.535 10.7705 14.4695 10.7373 14.4281 10.671L14.4263 10.6681L13.4975 9.03913L12.5599 10.671C12.5184 10.7374 12.4529 10.7705 12.376 10.7705H11.4274C11.3772 10.7705 11.3217 10.7557 11.2852 10.707C11.265 10.6801 11.2561 10.6479 11.2595 10.6146C11.2624 10.5849 11.2746 10.5588 11.2885 10.5374L12.7365 8.05196L11.283 5.55707L11.2609 5.49082V5.47725C11.2609 5.43578 11.2766 5.39312 11.3161 5.36443C11.3506 5.33934 11.3921 5.33337 11.4274 5.33337H12.3835C12.4604 5.33337 12.5259 5.36659 12.5674 5.43292L12.5692 5.43592L13.4977 7.0716L14.428 5.43288C14.4694 5.36655 14.535 5.33337 14.6119 5.33337H15.5605C15.6107 5.33337 15.6661 5.34821 15.7027 5.39695C15.7229 5.42385 15.7317 5.45605 15.7284 5.48934C15.7254 5.51905 15.7133 5.54511 15.6994 5.5665L14.2514 8.05196Z" fill="#121212"/>
<path fill-rule="evenodd" clip-rule="evenodd" d="M6.28662 10.6643C6.27156 10.6442 6.26905 10.6166 6.27909 10.5815L7.90522 5.49231C7.92028 5.44212 7.9529 5.41702 8.00309 5.41702H9.18505C9.23524 5.41702 9.26786 5.44212 9.28292 5.49231L10.9091 10.5815C10.9141 10.5915 10.9166 10.6041 10.9166 10.6191C10.9166 10.6643 10.889 10.6869 10.8338 10.6869H9.87766C9.82747 10.6869 9.79485 10.6618 9.77979 10.6116L9.55394 9.87383C9.5439 9.85376 9.53135 9.84372 9.5163 9.84372H7.66431C7.64926 9.84372 7.63671 9.85376 7.62667 9.87383L7.40835 10.6116C7.39329 10.6618 7.36067 10.6869 7.31048 10.6869H6.35437C6.32426 10.6869 6.30167 10.6794 6.28662 10.6643ZM7.69806 9.92737L7.48856 10.6354C7.47737 10.6726 7.45717 10.7085 7.42359 10.7344C7.38967 10.7605 7.34987 10.7705 7.31048 10.7705H6.35437C6.31136 10.7705 6.26374 10.7597 6.22747 10.7235L6.22326 10.7193L6.2197 10.7145C6.18272 10.6652 6.18486 10.6068 6.19866 10.5585L6.19937 10.556L7.82535 5.46745C7.83658 5.43046 7.85664 5.39519 7.88998 5.36954C7.9239 5.34345 7.9637 5.33337 8.00309 5.33337H9.18505C9.22444 5.33337 9.26424 5.34345 9.29816 5.36954C9.33151 5.3952 9.35158 5.4305 9.36281 5.4675L10.9872 10.5512C10.997 10.574 11.0002 10.5976 11.0002 10.6191C11.0002 10.6595 10.9871 10.7034 10.9488 10.7347C10.9138 10.7633 10.8706 10.7705 10.8338 10.7705H9.87766C9.83827 10.7705 9.79847 10.7605 9.76455 10.7344C9.73107 10.7086 9.71098 10.6732 9.69978 10.636C9.69974 10.6359 9.69981 10.6361 9.69978 10.636L9.48285 9.92737H7.69806ZM9.18385 8.93948L8.58342 6.95806L7.99634 8.93948H9.18385ZM7.89769 8.97795C7.89267 9.00807 7.90271 9.02312 7.92781 9.02312H9.2528C9.28292 9.02312 9.29296 9.00807 9.28292 8.97795L8.60536 6.74202C8.60034 6.72195 8.59281 6.71442 8.58278 6.71944C8.57274 6.71944 8.56521 6.72696 8.56019 6.74202L7.89769 8.97795Z" fill="#121212"/>
<path fill-rule="evenodd" clip-rule="evenodd" d="M4.51182 10.7241L4.50465 10.7145C4.47873 10.6799 4.46533 10.6398 4.46533 10.5966V7.48469L3.77674 8.56306C3.77666 8.56318 3.77682 8.56293 3.77674 8.56306C3.73724 8.62601 3.67591 8.6626 3.60041 8.6626H3.15623C3.08073 8.6626 3.01964 8.62639 2.98014 8.56345C2.98006 8.56332 2.98022 8.56358 2.98014 8.56345L2.2913 7.48469V10.5966C2.2913 10.6468 2.2702 10.6899 2.23669 10.7235C2.20317 10.757 2.16033 10.7705 2.11731 10.7705H1.23649C1.1933 10.7705 1.1531 10.7572 1.11854 10.7312L1.10898 10.7241L1.10181 10.7145C1.0759 10.6799 1.0625 10.6398 1.0625 10.5966V5.50736C1.0625 5.46435 1.07606 5.42151 1.10959 5.38799C1.1431 5.35447 1.18622 5.33337 1.23649 5.33337H2.11731C2.19276 5.33337 2.25381 5.36953 2.29331 5.43239L3.37471 7.11216L4.46339 5.43228C4.50289 5.36949 4.56392 5.33337 4.63932 5.33337H5.52015C5.56757 5.33337 5.60941 5.35245 5.63983 5.38768C5.67506 5.4181 5.69414 5.45995 5.69414 5.50736V10.5966C5.69414 10.6468 5.67304 10.6899 5.63952 10.7235C5.606 10.757 5.56316 10.7705 5.52015 10.7705H4.63932C4.59613 10.7705 4.55593 10.7572 4.52138 10.7312L4.51182 10.7241ZM5.58037 5.44714C5.56532 5.42706 5.54524 5.41702 5.52015 5.41702H4.63932C4.59415 5.41702 4.55902 5.4371 4.53393 5.47725L3.39714 7.23137C3.38208 7.26148 3.36703 7.26148 3.35197 7.23137L2.22271 5.47725C2.19761 5.4371 2.16248 5.41702 2.11731 5.41702H1.23649C1.21139 5.41702 1.18881 5.42706 1.16873 5.44714C1.15368 5.46219 1.14615 5.48227 1.14615 5.50736V10.5966C1.14615 10.6217 1.15368 10.6442 1.16873 10.6643C1.18881 10.6794 1.21139 10.6869 1.23649 10.6869H2.11731C2.14241 10.6869 2.16248 10.6794 2.17754 10.6643C2.19761 10.6442 2.20765 10.6217 2.20765 10.5966V7.28407C2.20765 7.26399 2.21267 7.25395 2.22271 7.25395C2.23275 7.24893 2.24279 7.25395 2.25282 7.26901L3.05083 8.51872C3.07593 8.55887 3.11106 8.57895 3.15623 8.57895H3.60041C3.64558 8.57895 3.68071 8.55887 3.7058 8.51872L4.50381 7.26901C4.51385 7.25395 4.52389 7.24642 4.53393 7.24642C4.54396 7.24642 4.54898 7.25646 4.54898 7.27654V10.5966C4.54898 10.6217 4.55651 10.6442 4.57157 10.6643C4.59164 10.6794 4.61423 10.6869 4.63932 10.6869H5.52015C5.54524 10.6869 5.56532 10.6794 5.58037 10.6643C5.60045 10.6442 5.61049 10.6217 5.61049 10.5966V5.50736C5.61049 5.48227 5.60045 5.46219 5.58037 5.44714Z" fill="#121212"/>
</svg>
