<svg width="151" height="150" viewBox="0 0 151 150" fill="none" xmlns="http://www.w3.org/2000/svg">
<circle cx="75.5" cy="75" r="74" fill="#FFEBF0"/>
<path fill-rule="evenodd" clip-rule="evenodd" d="M34.3708 41.734C34.3708 32.7148 41.6823 25.4033 50.7015 25.4033H99.0886C108.108 25.4033 115.419 32.7148 115.419 41.734C115.419 50.7531 108.108 58.0646 99.0886 58.0646H77.5473L74.8933 62.6615C74.4339 63.4572 73.2854 63.4572 72.826 62.6615L70.172 58.0646H50.7015C41.6823 58.0646 34.3708 50.7531 34.3708 41.734ZM50.2997 49.1718C49.1826 49.1718 48.1943 48.9427 47.335 48.4844C46.4899 48.026 45.8311 47.3887 45.3584 46.5723C44.8858 45.7416 44.6495 44.7891 44.6495 43.7149V39.1174C44.6495 38.0575 44.8858 37.1194 45.3584 36.303C45.8311 35.4866 46.4899 34.8564 47.335 34.4124C48.1943 33.9541 49.1826 33.7249 50.2997 33.7249C51.4312 33.7249 52.4195 33.9541 53.2645 34.4124C54.1239 34.8564 54.7899 35.4866 55.2625 36.303C55.7352 37.1194 55.9715 38.0575 55.9715 39.1174V43.7149C55.9715 44.7891 55.7352 45.7416 55.2625 46.5723C54.7899 47.403 54.1239 48.0475 53.2645 48.5058C52.4195 48.9498 51.4312 49.1718 50.2997 49.1718ZM50.2997 46.5723C51.0875 46.5723 51.7248 46.3217 52.2118 45.8204C52.6988 45.3191 52.9422 44.6531 52.9422 43.8224V39.0959C52.9422 38.2652 52.6988 37.5992 52.2118 37.0979C51.7392 36.5823 51.1018 36.3245 50.2997 36.3245C49.512 36.3245 48.8746 36.5823 48.3877 37.0979C47.915 37.5992 47.6787 38.2652 47.6787 39.0959V43.8224C47.6787 44.6531 47.915 45.3191 48.3877 45.8204C48.8746 46.3217 49.512 46.5723 50.2997 46.5723ZM63.8581 49.1718C62.7409 49.1718 61.7526 48.9427 60.8933 48.4844C60.0483 48.026 59.3894 47.3887 58.9168 46.5723C58.4441 45.7416 58.2078 44.7891 58.2078 43.7149V39.1174C58.2078 38.0575 58.4441 37.1194 58.9168 36.303C59.3894 35.4866 60.0483 34.8564 60.8933 34.4124C61.7526 33.9541 62.7409 33.7249 63.8581 33.7249C64.9896 33.7249 65.9778 33.9541 66.8228 34.4124C67.6822 34.8564 68.3482 35.4866 68.8208 36.303C69.2935 37.1194 69.5298 38.0575 69.5298 39.1174V43.7149C69.5298 44.7891 69.2935 45.7416 68.8208 46.5723C68.3482 47.403 67.6822 48.0475 66.8228 48.5058C65.9778 48.9498 64.9896 49.1718 63.8581 49.1718ZM63.8581 46.5723C64.6458 46.5723 65.2832 46.3217 65.7701 45.8204C66.2571 45.3191 66.5006 44.6531 66.5006 43.8224V39.0959C66.5006 38.2652 66.2571 37.5992 65.7701 37.0979C65.2975 36.5823 64.6601 36.3245 63.8581 36.3245C63.0703 36.3245 62.433 36.5823 61.946 37.0979C61.4734 37.5992 61.237 38.2652 61.237 39.0959V43.8224C61.237 44.6531 61.4734 45.3191 61.946 45.8204C62.433 46.3217 63.0703 46.5723 63.8581 46.5723ZM80.7679 34.4554C80.0518 34.0687 79.2211 33.8753 78.2758 33.8753H72.2173C72.1457 33.8753 72.0812 33.904 72.024 33.9613C71.981 34.0042 71.9595 34.0615 71.9595 34.1331V48.6777C71.9595 48.7493 71.981 48.8138 72.024 48.8711C72.0812 48.914 72.1457 48.9355 72.2173 48.9355H74.7309C74.8025 48.9355 74.8598 48.914 74.9028 48.8711C74.9601 48.8138 74.9887 48.7493 74.9887 48.6777V43.1993C74.9887 43.1277 75.0245 43.0919 75.0961 43.0919H78.1469C79.1065 43.0919 79.9515 42.9057 80.682 42.5333C81.4267 42.1466 81.9996 41.6095 82.4007 40.922C82.816 40.2346 83.0237 39.4397 83.0237 38.5373C83.0237 37.6207 82.8232 36.8115 82.4221 36.1097C82.0354 35.3935 81.484 34.8421 80.7679 34.4554ZM79.4144 40.1057C79.0134 40.478 78.4834 40.6642 77.8246 40.6642H75.0961C75.0245 40.6642 74.9887 40.6284 74.9887 40.5568V36.6038C74.9887 36.5322 75.0245 36.4964 75.0961 36.4964H77.8246C78.4834 36.4964 79.0134 36.6897 79.4144 37.0764C79.8154 37.4631 80.016 37.9716 80.016 38.6018C80.016 39.2177 79.8154 39.7189 79.4144 40.1057ZM90.2569 49.1074C89.1111 49.1074 88.1085 48.9284 87.2491 48.5703C86.3898 48.1979 85.7238 47.6751 85.2511 47.002C84.7928 46.3145 84.5637 45.5196 84.5637 44.6173V44.1446C84.5637 44.073 84.5851 44.0157 84.6281 43.9727C84.6854 43.9155 84.7499 43.8868 84.8215 43.8868H87.2706C87.3422 43.8868 87.3995 43.9155 87.4425 43.9727C87.4998 44.0157 87.5284 44.073 87.5284 44.1446V44.4669C87.5284 45.0398 87.7934 45.5267 88.3233 45.9278C88.8533 46.3145 89.5694 46.5078 90.4717 46.5078C91.2308 46.5078 91.7966 46.3503 92.1689 46.0352C92.5413 45.7058 92.7275 45.3047 92.7275 44.8321C92.7275 44.4884 92.6129 44.2019 92.3838 43.9727C92.1546 43.7293 91.8395 43.5216 91.4385 43.3497C91.0518 43.1635 90.4288 42.9129 89.5694 42.5978C88.6098 42.2684 87.7934 41.9318 87.1202 41.588C86.4614 41.2443 85.9028 40.7788 85.4445 40.1916C85.0005 39.59 84.7785 38.8524 84.7785 37.9787C84.7785 37.1194 85.0005 36.3675 85.4445 35.7229C85.8885 35.0784 86.5044 34.5843 87.2921 34.2406C88.0798 33.8968 88.9893 33.7249 90.0206 33.7249C91.1091 33.7249 92.0759 33.9183 92.9209 34.305C93.7802 34.6917 94.4462 35.236 94.9189 35.9378C95.4059 36.6253 95.6493 37.4273 95.6493 38.344V38.6662C95.6493 38.7378 95.6207 38.8023 95.5634 38.8596C95.5204 38.9026 95.4631 38.924 95.3915 38.924H92.9209C92.8493 38.924 92.7848 38.9026 92.7275 38.8596C92.6846 38.8023 92.6631 38.7378 92.6631 38.6662V38.4944C92.6631 37.8928 92.4124 37.3844 91.9111 36.969C91.4242 36.5393 90.751 36.3245 89.8917 36.3245C89.2185 36.3245 88.6886 36.4677 88.3019 36.7542C87.9295 37.0406 87.7433 37.4345 87.7433 37.9358C87.7433 38.2938 87.8507 38.5946 88.0655 38.8381C88.2947 39.0816 88.6241 39.3036 89.0538 39.5041C89.4978 39.6903 90.1781 39.9481 91.0947 40.2775C92.1117 40.6499 92.9066 40.9793 93.4795 41.2658C94.0667 41.5522 94.5895 41.9819 95.0478 42.5548C95.5204 43.1134 95.7568 43.8438 95.7568 44.7462C95.7568 46.0925 95.2626 47.1595 94.2744 47.9473C93.2861 48.7207 91.9469 49.1074 90.2569 49.1074ZM99.3387 43.7149C99.396 43.7579 99.4604 43.7794 99.532 43.7794H101.444C101.516 43.7794 101.573 43.7579 101.616 43.7149C101.673 43.6577 101.702 43.5932 101.702 43.5216L102.024 34.1546C102.024 34.083 101.996 34.0257 101.938 33.9827C101.895 33.9255 101.838 33.8968 101.766 33.8968H99.2528C99.1811 33.8968 99.1167 33.9255 99.0594 33.9827C99.0164 34.0257 98.9949 34.083 98.9949 34.1546L99.2742 43.5216C99.2742 43.5932 99.2957 43.6577 99.3387 43.7149ZM99.1453 48.4414C99.4748 48.7565 99.8829 48.914 100.37 48.914C100.857 48.914 101.258 48.7565 101.573 48.4414C101.888 48.112 102.046 47.7038 102.046 47.2168C102.046 46.7155 101.888 46.3073 101.573 45.9922C101.272 45.6771 100.871 45.5196 100.37 45.5196C99.8686 45.5196 99.4604 45.6771 99.1453 45.9922C98.8302 46.3073 98.6727 46.7155 98.6727 47.2168C98.6727 47.7038 98.8302 48.112 99.1453 48.4414Z" fill="#FFABC0"/>
<path fill-rule="evenodd" clip-rule="evenodd" d="M52.1509 67.8904C51.8924 68.3255 51.5317 69.0708 51.0839 70.1691C50.5392 71.5052 49.9203 73.2234 49.252 75.2396C47.9162 79.2689 46.4076 84.413 44.9284 89.9142C41.9652 100.934 39.1536 113.261 38.0874 120.811C37.9492 121.79 37.0434 122.471 36.0644 122.333C35.0853 122.195 34.4037 121.289 34.542 120.31C35.639 112.542 38.4954 100.049 41.4706 88.9844C42.9606 83.4432 44.4888 78.2287 45.8532 74.1129C46.5349 72.0566 47.1818 70.2557 47.7683 68.8173C48.3337 67.4304 48.9035 66.2247 49.4574 65.4777C50.049 64.6797 50.9367 64.1031 52.0581 64.1382C53.0375 64.1689 53.8571 64.6643 54.4515 65.1451C55.6521 66.1161 56.8204 67.7615 57.8664 69.5081C59.7711 72.6883 61.6422 76.8501 62.9318 80.0707H75.7692L75.7719 80.0707L75.772 80.0707L88.612 80.0707C89.9016 76.8501 91.7727 72.6883 93.6774 69.5081C94.7234 67.7615 95.8917 66.1161 97.0923 65.1451C97.6867 64.6643 98.5063 64.1689 99.4857 64.1382C100.607 64.1031 101.495 64.6797 102.086 65.4777C102.633 66.2143 103.201 67.3842 103.768 68.7344C104.355 70.1307 105.002 71.8719 105.684 73.8575C107.05 77.8317 108.578 82.8572 110.069 88.2102C113.045 98.8972 115.904 111.017 117.002 118.792C117.14 119.771 116.458 120.677 115.479 120.815C114.5 120.954 113.595 120.272 113.456 119.293C112.391 111.751 109.582 99.8097 106.62 89.1707C105.141 83.8607 103.633 78.9071 102.298 75.0208C101.63 73.0762 101.012 71.4169 100.467 70.1216C100.019 69.0563 99.6572 68.3245 99.3942 67.8894C99.3782 67.9018 99.3614 67.915 99.3439 67.9292C98.6675 68.4762 97.7673 69.648 96.7493 71.3478C94.7614 74.667 92.7492 79.2633 91.5035 82.5035C91.2377 83.195 90.5733 83.6514 89.8325 83.6514H75.7746L75.772 83.6514L75.7719 83.6514L61.7114 83.6514C60.9705 83.6514 60.3061 83.195 60.0403 82.5035C58.7946 79.2633 56.7824 74.667 54.7945 71.3478C53.7765 69.648 52.8763 68.4762 52.1999 67.9292C52.1829 67.9154 52.1665 67.9025 52.1509 67.8904ZM59.9113 100.683C62.0476 100.683 63.7794 98.9513 63.7794 96.815C63.7794 94.6787 62.0476 92.9469 59.9113 92.9469C57.775 92.9469 56.0432 94.6787 56.0432 96.815C56.0432 98.9513 57.775 100.683 59.9113 100.683ZM95.6486 96.815C95.6486 98.9513 93.9168 100.683 91.7805 100.683C89.6442 100.683 87.9124 98.9513 87.9124 96.815C87.9124 94.6787 89.6442 92.9469 91.7805 92.9469C93.9168 92.9469 95.6486 94.6787 95.6486 96.815ZM72.1186 115.949C72.1186 114.004 73.6951 112.428 75.6398 112.428C77.5845 112.428 79.161 114.004 79.161 115.949C79.161 117.894 77.5845 119.47 75.6398 119.47C73.6951 119.47 72.1186 117.894 72.1186 115.949ZM75.6398 108.847C71.7175 108.847 68.5379 112.027 68.5379 115.949C68.5379 119.871 71.7175 123.051 75.6398 123.051C79.562 123.051 82.7417 119.871 82.7417 115.949C82.7417 112.027 79.562 108.847 75.6398 108.847ZM69.7014 102.103C69.7014 100.563 70.9501 99.3144 72.4904 99.3144H79.4628C81.0031 99.3144 82.2518 100.563 82.2518 102.103C82.2518 103.644 81.0031 104.892 79.4628 104.892H72.4904C70.9501 104.892 69.7014 103.644 69.7014 102.103ZM104.37 101.339L103.145 100.191L101.921 101.339C101.248 101.97 100.605 102.914 100.045 103.879C99.4648 104.88 98.8963 106.038 98.3966 107.204C97.8967 108.37 97.4532 109.572 97.1314 110.662C96.8218 111.711 96.5808 112.801 96.5808 113.685C96.5808 117.253 99.6304 119.951 103.145 119.951C106.66 119.951 109.71 117.253 109.71 113.685C109.71 112.801 109.469 111.711 109.159 110.662C108.837 109.572 108.394 108.37 107.894 107.204C107.394 106.038 106.826 104.879 106.245 103.879C105.685 102.914 105.043 101.97 104.37 101.339ZM103.142 105.676L103.145 105.671L103.148 105.676C103.642 106.528 104.148 107.553 104.603 108.615C105.058 109.676 105.45 110.744 105.725 111.676C106.012 112.649 106.129 113.334 106.129 113.685C106.129 115.061 104.904 116.371 103.145 116.371C101.387 116.371 100.161 115.061 100.161 113.685C100.161 113.334 100.278 112.649 100.566 111.676C100.841 110.744 101.233 109.676 101.688 108.615C102.143 107.553 102.648 106.528 103.142 105.676Z" fill="#FFABC0"/>
</svg>
