<svg width="24" height="24" viewBox="0 0 24 24" fill="none" xmlns="http://www.w3.org/2000/svg">
<path fill-rule="evenodd" clip-rule="evenodd" d="M0.818286 9.63624C2.56317 5.16802 6.91027 2 11.9999 2C17.0896 2 21.4367 5.16802 23.1816 9.63624C23.3825 10.1507 23.1283 10.7306 22.6139 10.9315C22.0994 11.1324 21.5195 10.8782 21.3186 10.3638C20.9712 9.47399 20.5 8.64633 19.9264 7.90185L18.7069 9.12132C18.3164 9.51184 17.6832 9.51184 17.2927 9.12132C16.9022 8.7308 16.9022 8.09763 17.2927 7.70711L18.5535 6.44629C17.0344 5.12733 15.1137 4.25924 12.9999 4.04938V6C12.9999 6.55228 12.5522 7 11.9999 7C11.4477 7 10.9999 6.55228 10.9999 6V4.04938C8.74082 4.27367 6.70229 5.24981 5.13883 6.72467L6.12127 7.70711C6.51179 8.09763 6.51179 8.7308 6.12127 9.12132C5.73074 9.51184 5.09758 9.51184 4.70705 9.12132L3.82476 8.23902C3.36264 8.89357 2.97713 9.60615 2.68127 10.3638C2.48038 10.8782 1.90047 11.1324 1.38602 10.9315C0.871573 10.7306 0.617389 10.1507 0.818286 9.63624Z" fill="#121212"/>
<path d="M15.2207 20.132C14.3407 20.132 13.6447 19.888 13.1327 19.4C12.6207 18.904 12.3647 18.232 12.3647 17.384V14.216C12.3647 13.384 12.6207 12.724 13.1327 12.236C13.6447 11.748 14.3407 11.504 15.2207 11.504C16.1007 11.504 16.7967 11.748 17.3087 12.236C17.8287 12.724 18.0887 13.384 18.0887 14.216V17.384C18.0887 18.232 17.8287 18.904 17.3087 19.4C16.7967 19.888 16.1007 20.132 15.2207 20.132ZM15.2207 18.68C15.5807 18.68 15.8647 18.572 16.0727 18.356C16.2887 18.132 16.3967 17.836 16.3967 17.468V14.168C16.3967 13.8 16.2887 13.508 16.0727 13.292C15.8647 13.068 15.5807 12.956 15.2207 12.956C14.8687 12.956 14.5847 13.068 14.3687 13.292C14.1607 13.508 14.0567 13.8 14.0567 14.168V17.468C14.0567 17.836 14.1607 18.132 14.3687 18.356C14.5847 18.572 14.8687 18.68 15.2207 18.68Z" fill="#121212"/>
<path d="M11.2359 16.172C11.3559 16.564 11.4159 16.944 11.4159 17.312C11.4159 17.72 11.3519 18.088 11.2239 18.416C11.0399 18.928 10.7159 19.336 10.2519 19.64C9.78786 19.936 9.24386 20.084 8.61986 20.084C8.01186 20.084 7.47586 19.94 7.01186 19.652C6.55586 19.356 6.23186 18.956 6.03986 18.452C5.95986 18.244 5.89986 18.024 5.85986 17.792V17.768C5.85986 17.68 5.90786 17.636 6.00386 17.636H7.45586C7.53586 17.636 7.58786 17.68 7.61186 17.768C7.61986 17.816 7.63186 17.856 7.64786 17.888C7.66386 17.92 7.67586 17.948 7.68386 17.972C7.76386 18.18 7.88386 18.34 8.04386 18.452C8.20386 18.564 8.39186 18.62 8.60786 18.62C8.83186 18.62 9.02786 18.56 9.19586 18.44C9.36386 18.32 9.48786 18.152 9.56786 17.936C9.64786 17.776 9.68786 17.568 9.68786 17.312C9.68786 17.08 9.65186 16.872 9.57986 16.688C9.52386 16.48 9.41186 16.32 9.24386 16.208C9.07586 16.096 8.87986 16.04 8.65586 16.04C8.43186 16.04 8.22386 16.092 8.03186 16.196C7.83986 16.3 7.71186 16.436 7.64786 16.604C7.62386 16.684 7.57186 16.724 7.49186 16.724H6.01586C5.97586 16.724 5.93986 16.712 5.90786 16.688C5.88386 16.656 5.87186 16.62 5.87186 16.58V11.744C5.87186 11.704 5.88386 11.672 5.90786 11.648C5.93986 11.616 5.97586 11.6 6.01586 11.6H10.9719C11.0119 11.6 11.0439 11.616 11.0679 11.648C11.0999 11.672 11.1159 11.704 11.1159 11.744V12.908C11.1159 12.948 11.0999 12.984 11.0679 13.016C11.0439 13.04 11.0119 13.052 10.9719 13.052H7.62386C7.58386 13.052 7.56386 13.072 7.56386 13.112L7.55186 14.888C7.55186 14.944 7.57586 14.956 7.62386 14.924C7.98386 14.692 8.39986 14.576 8.87186 14.576C9.43186 14.576 9.91986 14.72 10.3359 15.008C10.7599 15.288 11.0599 15.676 11.2359 16.172Z" fill="#121212"/>
</svg>
