<svg width="36" height="36" viewBox="0 0 36 36" fill="none" xmlns="http://www.w3.org/2000/svg">
<g id="scan">
<path id="Icon" d="M12 4.5H11.7C9.17976 4.5 7.91965 4.5 6.95704 4.99047C6.11031 5.4219 5.4219 6.11031 4.99047 6.95704C4.5 7.91965 4.5 9.17976 4.5 11.7V12M12 31.5H11.7C9.17976 31.5 7.91965 31.5 6.95704 31.0095C6.11031 30.5781 5.4219 29.8897 4.99047 29.043C4.5 28.0804 4.5 26.8202 4.5 24.3V24M31.5 12V11.7C31.5 9.17976 31.5 7.91965 31.0095 6.95704C30.5781 6.11031 29.8897 5.4219 29.043 4.99047C28.0804 4.5 26.8202 4.5 24.3 4.5H24M31.5 24V24.3C31.5 26.8202 31.5 28.0804 31.0095 29.043C30.5781 29.8897 29.8897 30.5781 29.043 31.0095C28.0804 31.5 26.8202 31.5 24.3 31.5H24M4.5 18H4.515M11.25 18H11.265M24.75 18H24.765M18 18H18.015M31.5 18H31.515" stroke="#121212" stroke-width="1.92857" stroke-linecap="round" stroke-linejoin="round"/>
</g>
</svg>
