<svg width="24" height="24" viewBox="0 0 24 24" fill="none" xmlns="http://www.w3.org/2000/svg">
<path fill-rule="evenodd" clip-rule="evenodd" d="M15.2423 1H8.75771H8.7577C7.95324 0.999992 7.28926 0.999986 6.74817 1.04419C6.18603 1.09012 5.66935 1.1887 5.18404 1.43597C4.43139 1.81947 3.81947 2.43139 3.43597 3.18404C3.1887 3.66935 3.09012 4.18603 3.04419 4.74817C2.99999 5.28926 2.99999 5.95324 3 6.7577V6.75771V17.2423C2.99999 18.0467 2.99999 18.7107 3.04419 19.2518C3.09012 19.814 3.1887 20.3307 3.43597 20.816C3.81947 21.5686 4.43139 22.1805 5.18404 22.564C5.66935 22.8113 6.18603 22.9099 6.74817 22.9558C7.28924 23 7.95319 23 8.7576 23H8.75768H11.5C12.0523 23 12.5 22.5523 12.5 22C12.5 21.4477 12.0523 21 11.5 21H8.8C7.94334 21 7.36111 20.9992 6.91104 20.9624C6.47254 20.9266 6.24838 20.8617 6.09202 20.782C5.7157 20.5903 5.40973 20.2843 5.21799 19.908C5.13832 19.7516 5.07338 19.5275 5.03755 19.089C5.00078 18.6389 5 18.0567 5 17.2V6.8C5 5.94334 5.00078 5.36111 5.03755 4.91104C5.07338 4.47254 5.13832 4.24838 5.21799 4.09202C5.40973 3.7157 5.7157 3.40973 6.09202 3.21799C6.24838 3.13832 6.47254 3.07338 6.91104 3.03755C7.36111 3.00078 7.94334 3 8.8 3H15.2C16.0567 3 16.6389 3.00078 17.089 3.03755C17.5275 3.07338 17.7516 3.13832 17.908 3.21799C18.2843 3.40973 18.5903 3.7157 18.782 4.09202C18.8617 4.24838 18.9266 4.47254 18.9624 4.91104C18.9992 5.36111 19 5.94334 19 6.8V10.5C19 11.0523 19.4477 11.5 20 11.5C20.5523 11.5 21 11.0523 21 10.5V6.75768V6.7576C21 5.95319 21 5.28924 20.9558 4.74817C20.9099 4.18603 20.8113 3.66935 20.564 3.18404C20.1805 2.43139 19.5686 1.81947 18.816 1.43597C18.3307 1.1887 17.814 1.09012 17.2518 1.04419C16.7107 0.999986 16.0468 0.999992 15.2423 1H15.2423ZM8 6C7.44772 6 7 6.44772 7 7C7 7.55229 7.44772 8 8 8H16C16.5523 8 17 7.55229 17 7C17 6.44772 16.5523 6 16 6H8ZM8 10C7.44772 10 7 10.4477 7 11C7 11.5523 7.44772 12 8 12H14C14.5523 12 15 11.5523 15 11C15 10.4477 14.5523 10 14 10H8ZM18 13C15.2386 13 13 15.2386 13 18C13 20.7614 15.2386 23 18 23C20.7614 23 23 20.7614 23 18C23 15.2386 20.7614 13 18 13ZM8 14C7.44772 14 7 14.4477 7 15C7 15.5523 7.44772 16 8 16H10C10.5523 16 11 15.5523 11 15C11 14.4477 10.5523 14 10 14H8ZM15 18C15 16.3431 16.3431 15 18 15C19.6569 15 21 16.3431 21 18C21 19.6569 19.6569 21 18 21C16.3431 21 15 19.6569 15 18ZM18 15.5C17.4477 15.5 17 15.9477 17 16.5V18C17 18.3788 17.214 18.725 17.5528 18.8944L18.7528 19.4944C19.2468 19.7414 19.8474 19.5412 20.0944 19.0472C20.3414 18.5532 20.1412 17.9526 19.6472 17.7056L19 17.382V16.5C19 15.9477 18.5523 15.5 18 15.5Z" fill="#121212"/>
</svg>
