<svg width="25" height="24" viewBox="0 0 25 24" fill="none" xmlns="http://www.w3.org/2000/svg">
<rect x="0.895508" y="0.5" width="23" height="23" rx="11.5" fill="#121212"/>
<rect x="0.895508" y="0.5" width="23" height="23" rx="11.5" stroke="white"/>
<path d="M10.7047 16C10.6269 16 10.5764 15.9619 10.553 15.8857L10.203 14.7657C10.1874 14.7352 10.168 14.72 10.1446 14.72H7.27437C7.25104 14.72 7.23159 14.7352 7.21603 14.7657L6.87767 15.8857C6.85433 15.9619 6.80377 16 6.72599 16H5.24418C5.19751 16 5.1625 15.9886 5.13917 15.9657C5.11583 15.9352 5.11194 15.8933 5.1275 15.84L7.64774 8.11429C7.67108 8.0381 7.72164 8 7.79942 8H9.63126C9.70905 8 9.75961 8.0381 9.78295 8.11429L12.3032 15.84C12.311 15.8552 12.3149 15.8743 12.3149 15.8971C12.3149 15.9657 12.2721 16 12.1865 16H10.7047ZM7.63607 13.4057C7.62829 13.4514 7.64385 13.4743 7.68274 13.4743H9.73627C9.78295 13.4743 9.7985 13.4514 9.78295 13.4057L8.73284 10.0114C8.72507 9.98095 8.7134 9.96952 8.69784 9.97714C8.68228 9.97714 8.67062 9.98857 8.66284 10.0114L7.63607 13.4057Z" fill="white"/>
<path d="M13.9588 16C13.9199 16 13.8849 15.9886 13.8538 15.9657C13.8305 15.9352 13.8188 15.901 13.8188 15.8629V8.13714C13.8188 8.09905 13.8305 8.06857 13.8538 8.04571C13.8849 8.01524 13.9199 8 13.9588 8H15.324C15.3629 8 15.394 8.01524 15.4173 8.04571C15.4484 8.06857 15.464 8.09905 15.464 8.13714V15.8629C15.464 15.901 15.4484 15.9352 15.4173 15.9657C15.394 15.9886 15.3629 16 15.324 16H13.9588Z" fill="white"/>
<path d="M17.3908 16C17.3519 16 17.3169 15.9886 17.2858 15.9657C17.2625 15.9352 17.2508 15.901 17.2508 15.8629V8.13714C17.2508 8.09905 17.2625 8.06857 17.2858 8.04571C17.3169 8.01524 17.3519 8 17.3908 8H18.7559C18.7948 8 18.8259 8.01524 18.8493 8.04571C18.8804 8.06857 18.8959 8.09905 18.8959 8.13714V15.8629C18.8959 15.901 18.8804 15.9352 18.8493 15.9657C18.8259 15.9886 18.7948 16 18.7559 16H17.3908Z" fill="white"/>
</svg>
