<svg width="24" height="25" viewBox="0 0 24 25" fill="none" xmlns="http://www.w3.org/2000/svg">
<rect y="0.5" width="24" height="24" rx="12" fill="black" fill-opacity="0.88"/>
<path d="M10.3092 16.5C10.2314 16.5 10.1808 16.4619 10.1575 16.3857L9.80748 15.2657C9.79192 15.2352 9.77247 15.22 9.74914 15.22H6.87886C6.85553 15.22 6.83608 15.2352 6.82052 15.2657L6.48216 16.3857C6.45882 16.4619 6.40826 16.5 6.33048 16.5H4.84867C4.802 16.5 4.76699 16.4886 4.74366 16.4657C4.72032 16.4352 4.71643 16.3933 4.73199 16.34L7.25223 8.61429C7.27557 8.5381 7.32613 8.5 7.40391 8.5H9.23576C9.31354 8.5 9.3641 8.5381 9.38744 8.61429L11.9077 16.34C11.9155 16.3552 11.9193 16.3743 11.9193 16.3971C11.9193 16.4657 11.8766 16.5 11.791 16.5H10.3092ZM7.24056 13.9057C7.23279 13.9514 7.24834 13.9743 7.28724 13.9743H9.34077C9.38744 13.9743 9.40299 13.9514 9.38744 13.9057L8.33734 10.5114C8.32956 10.481 8.31789 10.4695 8.30233 10.4771C8.28678 10.4771 8.27511 10.4886 8.26733 10.5114L7.24056 13.9057Z" fill="white" fill-opacity="0.95"/>
<path d="M13.5633 16.5C13.5244 16.5 13.4894 16.4886 13.4583 16.4657C13.435 16.4352 13.4233 16.401 13.4233 16.3629V8.63714C13.4233 8.59905 13.435 8.56857 13.4583 8.54571C13.4894 8.51524 13.5244 8.5 13.5633 8.5H14.9285C14.9673 8.5 14.9985 8.51524 15.0218 8.54571C15.0529 8.56857 15.0685 8.59905 15.0685 8.63714V16.3629C15.0685 16.401 15.0529 16.4352 15.0218 16.4657C14.9985 16.4886 14.9673 16.5 14.9285 16.5H13.5633Z" fill="white" fill-opacity="0.95"/>
<path d="M16.9953 16.5C16.9564 16.5 16.9214 16.4886 16.8903 16.4657C16.8669 16.4352 16.8553 16.401 16.8553 16.3629V8.63714C16.8553 8.59905 16.8669 8.56857 16.8903 8.54571C16.9214 8.51524 16.9564 8.5 16.9953 8.5H18.3604C18.3993 8.5 18.4304 8.51524 18.4538 8.54571C18.4849 8.56857 18.5004 8.59905 18.5004 8.63714V16.3629C18.5004 16.401 18.4849 16.4352 18.4538 16.4657C18.4304 16.4886 18.3993 16.5 18.3604 16.5H16.9953Z" fill="white" fill-opacity="0.95"/>
<rect x="0.5" y="1" width="23" height="23" rx="11.5" stroke="white" stroke-opacity="0.95"/>
</svg>
