<svg width="48" height="48" viewBox="0 0 48 48" fill="none" xmlns="http://www.w3.org/2000/svg">
<circle cx="24" cy="24" r="24" fill="#F7931A"/>
<path fill-rule="evenodd" clip-rule="evenodd" d="M34.7835 21.03C35.2545 17.886 32.859 16.1955 29.586 15.0675L30.648 10.8075L28.056 10.1625L27.021 14.31C26.3541 14.1426 25.67 13.9866 24.987 13.8309L24.987 13.8309L24.9435 13.821L25.986 9.6465L23.394 9L22.332 13.2585L22.2186 13.2326C21.6936 13.1126 21.177 12.9944 20.676 12.8685L20.679 12.855L17.103 11.9625L16.413 14.7315C16.413 14.7315 18.3375 15.1725 18.297 15.1995C19.347 15.462 19.536 16.1565 19.5045 16.7085L18.2955 21.561C18.3675 21.579 18.4605 21.606 18.5655 21.6465L18.291 21.579L16.596 28.377C16.467 28.695 16.1415 29.1735 15.4065 28.992C15.4335 29.0295 13.5225 28.5225 13.5225 28.5225L12.2355 31.4895L15.6105 32.331C15.9727 32.422 16.331 32.5155 16.6855 32.608L16.6861 32.6082L16.6863 32.6082C16.9451 32.6758 17.202 32.7428 17.457 32.808L16.3845 37.116L18.975 37.761L20.037 33.501C20.745 33.6915 21.432 33.8685 22.104 34.0365L21.045 38.2785L23.637 38.9235L24.7095 34.6245C29.1315 35.4615 32.4555 35.124 33.855 31.125C34.983 27.906 33.7995 26.0475 31.473 24.837C33.168 24.447 34.443 23.3325 34.7835 21.03ZM28.8585 29.337C28.1251 32.2913 23.5013 31.07 21.3848 30.5109L21.3844 30.5108C21.1939 30.4605 21.0237 30.4156 20.8785 30.3795L22.3035 24.672C22.4807 24.7163 22.6974 24.765 22.9428 24.8201C25.132 25.3119 29.6124 26.3184 28.8585 29.337ZM23.3824 22.1707C25.146 22.6415 28.9915 23.6682 29.661 20.9835C30.3458 18.2375 26.6075 17.4106 24.7815 17.0066C24.5757 16.9611 24.3941 16.9209 24.246 16.884L22.956 22.059C23.0782 22.0895 23.2216 22.1278 23.3824 22.1707Z" fill="white"/>
</svg>

