<svg width="48" height="48" viewBox="0 0 48 48" fill="none" xmlns="http://www.w3.org/2000/svg">
<path d="M32.9206 17.7759C32.2379 17.37 31.3505 17.37 30.5997 17.7759L25.2748 20.888L21.6568 22.9176L16.3321 26.0296C15.6494 26.4355 14.762 26.4355 14.0111 26.0296L9.7786 23.594C9.09594 23.1881 8.61808 22.444 8.61808 21.6322V16.8288C8.61808 16.0169 9.02768 15.2727 9.7786 14.8668L13.9428 12.4989C14.6255 12.093 15.5129 12.093 16.2638 12.4989L20.4281 14.8668C21.1107 15.2727 21.5885 16.0169 21.5885 16.8288V19.9408L25.2066 17.8436V14.7315C25.2066 13.9197 24.7971 13.1755 24.0461 12.7696L16.3321 8.30444C15.6494 7.89852 14.762 7.89852 14.0111 8.30444L6.16052 12.7696C5.40959 13.1755 5 13.9197 5 14.7315V23.7294C5 24.5412 5.40959 25.2855 6.16052 25.6914L14.0111 30.1565C14.6937 30.5624 15.5812 30.5624 16.3321 30.1565L21.6568 27.1121L25.2748 25.0148L30.5997 21.9704C31.2823 21.5645 32.1697 21.5645 32.9206 21.9704L37.0848 24.3383C37.7674 24.7442 38.2453 25.4884 38.2453 26.3003V31.1036C38.2453 31.9155 37.8358 32.6596 37.0848 33.0655L32.9206 35.5011C32.2379 35.907 31.3505 35.907 30.5997 35.5011L26.4355 33.1332C25.7527 32.7273 25.2748 31.9831 25.2748 31.1713V28.0593L21.6568 30.1565V33.2685C21.6568 34.0803 22.0664 34.8246 22.8173 35.2305L30.6679 39.6956C31.3505 40.1015 32.2379 40.1015 32.9889 39.6956L40.8395 35.2305C41.5221 34.8246 42 34.0803 42 33.2685V24.2706C42 23.4588 41.5903 22.7147 40.8395 22.3088L32.9206 17.7759Z" fill="#8247E5"/>
</svg>
