<svg width="24" height="24" viewBox="0 0 24 24" fill="none" xmlns="http://www.w3.org/2000/svg">
<path fill-rule="evenodd" clip-rule="evenodd" d="M0.818286 9.63624C2.56317 5.16802 6.91027 2 11.9999 2C17.0896 2 21.4367 5.16802 23.1816 9.63624C23.3825 10.1507 23.1283 10.7306 22.6139 10.9315C22.0994 11.1324 21.5195 10.8782 21.3186 10.3638C20.9712 9.47399 20.5 8.64633 19.9264 7.90185L18.7069 9.12132C18.3164 9.51184 17.6832 9.51184 17.2927 9.12132C16.9022 8.7308 16.9022 8.09763 17.2927 7.70711L18.5535 6.44629C17.0344 5.12733 15.1137 4.25924 12.9999 4.04938V6C12.9999 6.55228 12.5522 7 11.9999 7C11.4477 7 10.9999 6.55228 10.9999 6V4.04938C8.74082 4.27367 6.70229 5.24981 5.13883 6.72467L6.12127 7.70711C6.51179 8.09763 6.51179 8.7308 6.12127 9.12132C5.73074 9.51184 5.09758 9.51184 4.70705 9.12132L3.82476 8.23902C3.36264 8.89357 2.97713 9.60615 2.68127 10.3638C2.48038 10.8782 1.90047 11.1324 1.38602 10.9315C0.871573 10.7306 0.617389 10.1507 0.818286 9.63624Z" fill="#121212"/>
</svg>
