<svg width="48" height="48" viewBox="0 0 48 48" fill="none" xmlns="http://www.w3.org/2000/svg">
<path fill-rule="evenodd" clip-rule="evenodd" d="M17.0089 21.1272L24 14.136L30.9948 21.1308L35.0628 17.0628L24 6L12.9409 17.0592L17.0089 21.1272ZM6 24.0001L10.068 19.9321L14.136 24.0001L10.068 28.0681L6 24.0001ZM23.9998 33.8641L17.0086 26.8729L12.9352 30.9355L12.9406 30.9409L23.9998 42L35.0626 30.9355L30.9946 26.8693L23.9998 33.8641ZM33.8638 24.0001L37.9318 19.9321L41.9998 24.0001L37.9318 28.0681L33.8638 24.0001ZM28.1292 23.9965H28.1256L24 19.8709L20.949 22.9201L20.598 23.2711L19.8762 23.9947L19.869 24.0001L19.8762 24.0073L24 28.1293L28.1292 24.0001V23.9965Z" fill="white"/>
</svg>
