<svg width="1024" height="1024" viewBox="0 0 1024 1024" fill="none" xmlns="http://www.w3.org/2000/svg">
<g clip-path="url(#clip0_3324_5947)">
<rect width="1024" height="1024" fill="url(#paint0_linear_3324_5947)"/>
<g filter="url(#filter0_di_3324_5947)">
<path d="M846.109 446.944L704.985 610.753L562.572 446.944L704.325 254.556L846.109 446.944Z" fill="#FFC211"/>
<path d="M846.109 446.944L704.985 610.753L562.572 446.944L704.325 254.556L846.109 446.944Z" fill="url(#paint1_linear_3324_5947)"/>
<path d="M569.243 768.331L512 834.768L408.836 715.009V582.12L569.243 768.331Z" fill="#FFC211"/>
<path d="M569.243 768.331L512 834.768L408.836 715.009V582.12L569.243 768.331Z" fill="url(#paint2_linear_3324_5947)"/>
<path d="M680.705 638.923L593.516 740.146L378.191 490.193V679.445L177.891 446.928L326.22 245.669L378.191 240.09V405.565L512 225.75L671.786 242.879L516.149 447.879L680.705 638.923Z" fill="#FFC211"/>
<path d="M680.705 638.923L593.516 740.146L378.191 490.193V679.445L177.891 446.928L326.22 245.669L378.191 240.09V405.565L512 225.75L671.786 242.879L516.149 447.879L680.705 638.923Z" fill="url(#paint3_linear_3324_5947)"/>
</g>
</g>
<defs>
<filter id="filter0_di_3324_5947" x="69.5308" y="153.51" width="884.938" height="825.738" filterUnits="userSpaceOnUse" color-interpolation-filters="sRGB">
<feFlood flood-opacity="0" result="BackgroundImageFix"/>
<feColorMatrix in="SourceAlpha" type="matrix" values="0 0 0 0 0 0 0 0 0 0 0 0 0 0 0 0 0 0 127 0" result="hardAlpha"/>
<feOffset dy="36.1199"/>
<feGaussianBlur stdDeviation="54.1799"/>
<feComposite in2="hardAlpha" operator="out"/>
<feColorMatrix type="matrix" values="0 0 0 0 0.0966667 0 0 0 0 0.102533 0 0 0 0 0.133333 0 0 0 0.4 0"/>
<feBlend mode="normal" in2="BackgroundImageFix" result="effect1_dropShadow_3324_5947"/>
<feBlend mode="normal" in="SourceGraphic" in2="effect1_dropShadow_3324_5947" result="shape"/>
<feColorMatrix in="SourceAlpha" type="matrix" values="0 0 0 0 0 0 0 0 0 0 0 0 0 0 0 0 0 0 127 0" result="hardAlpha"/>
<feOffset/>
<feGaussianBlur stdDeviation="18.06"/>
<feComposite in2="hardAlpha" operator="arithmetic" k2="-1" k3="1"/>
<feColorMatrix type="matrix" values="0 0 0 0 1 0 0 0 0 1 0 0 0 0 1 0 0 0 0.25 0"/>
<feBlend mode="normal" in2="shape" result="effect2_innerShadow_3324_5947"/>
</filter>
<linearGradient id="paint0_linear_3324_5947" x1="512" y1="-9.31322e-06" x2="512" y2="1024" gradientUnits="userSpaceOnUse">
<stop stop-color="#144398"/>
<stop offset="0.979167" stop-color="#061E48"/>
</linearGradient>
<linearGradient id="paint1_linear_3324_5947" x1="512" y1="225.75" x2="512" y2="834.768" gradientUnits="userSpaceOnUse">
<stop stop-color="#FFD046"/>
<stop offset="1" stop-color="#FFBE00"/>
</linearGradient>
<linearGradient id="paint2_linear_3324_5947" x1="512" y1="225.75" x2="512" y2="834.768" gradientUnits="userSpaceOnUse">
<stop stop-color="#FFD046"/>
<stop offset="1" stop-color="#FFBE00"/>
</linearGradient>
<linearGradient id="paint3_linear_3324_5947" x1="512" y1="225.75" x2="512" y2="834.768" gradientUnits="userSpaceOnUse">
<stop stop-color="#FFD046"/>
<stop offset="1" stop-color="#FFBE00"/>
</linearGradient>
<clipPath id="clip0_3324_5947">
<rect width="1024" height="1024" fill="white"/>
</clipPath>
</defs>
</svg>
