<svg width="24" height="24" viewBox="0 0 24 24" fill="none" xmlns="http://www.w3.org/2000/svg">
<path d="M22 15C22 16.2801 22 18.263 21.782 18.752C21.5903 19.1821 21.2843 19.5317 20.908 19.7509C20.4802 20 19.9201 20 18.8 20L5.2 20C4.0799 20 3.51984 20 3.09202 19.7509C2.71569 19.5317 2.40973 19.1821 2.21799 18.752C2 18.263 2 17.623 2 16.3429V7.65714C2 6.37702 2 5.73696 2.21799 5.24802C2.40973 4.81794 2.7157 4.46827 3.09202 4.24913C3.51984 4 4.0799 4 5.2 4H18.8C19.9201 4 20.4802 4 20.908 4.24913C21.2843 4.46827 21.5903 4.81794 21.782 5.24802C22 5.73696 22 6 22 6.5M13 17C13 16.3022 13 15.9533 12.9139 15.6694C12.72 15.0302 12.2198 14.53 11.5806 14.3361C11.2967 14.25 10.9478 14.25 10.25 14.25H7.75C7.05222 14.25 6.70333 14.25 6.41943 14.3361C5.78023 14.53 5.28002 15.0302 5.08612 15.6694C5 15.9533 5 16.3022 5 17M15 12L17 14L21 10M11.25 9.25C11.25 10.4926 10.2426 11.5 9 11.5C7.75736 11.5 6.75 10.4926 6.75 9.25C6.75 8.00736 7.75736 7 9 7C10.2426 7 11.25 8.00736 11.25 9.25Z" stroke="black" stroke-opacity="0.88" stroke-width="1.5" stroke-linecap="round" stroke-linejoin="round"/>
</svg>
