<svg width="24" height="24" viewBox="0 0 24 24" fill="none" xmlns="http://www.w3.org/2000/svg">
<path d="M13.75 20.7574V17.0399C13.75 16.5359 13.75 16.2839 13.8454 16.0913C13.9293 15.922 14.0631 15.7843 14.2278 15.698C14.4149 15.5999 14.66 15.5999 15.15 15.5999H18.7642M15.5 11.1H8.5M15.5 7.5H8.5M10.25 14.7H8.5M13.75 21H9.2C7.72986 21 6.99479 21 6.43327 20.7057C5.93935 20.4469 5.53778 20.0338 5.28611 19.5258C5 18.9482 5 18.1921 5 16.68V7.32C5 5.80786 5 5.05179 5.28611 4.47423C5.53778 3.96619 5.93935 3.55314 6.43327 3.29428C6.99479 3 7.72986 3 9.2 3H14.8C16.2701 3 17.0052 3 17.5667 3.29428C18.0607 3.55314 18.4622 3.96619 18.7139 4.47423C19 5.05179 19 5.80786 19 7.32V15.6L13.75 21Z" stroke="black" stroke-opacity="0.88" stroke-width="1.5" stroke-linecap="round" stroke-linejoin="round"/>
</svg>
