<svg width="37" height="36" viewBox="0 0 37 36" fill="none" xmlns="http://www.w3.org/2000/svg">
<path d="M0.5 18C0.5 8.05887 8.55887 0 18.5 0V0C28.4411 0 36.5 8.05887 36.5 18V18C36.5 27.9411 28.4411 36 18.5 36V36C8.55887 36 0.5 27.9411 0.5 18V18Z" fill="#E6E8ED"/>
<path d="M22.946 20.532C22.946 21.492 22.652 22.284 22.064 22.908C21.476 23.532 20.672 23.928 19.652 24.096C19.592 24.12 19.562 24.156 19.562 24.204L19.58 25.374C19.58 25.434 19.556 25.482 19.508 25.518C19.472 25.566 19.424 25.59 19.364 25.59H17.564C17.504 25.59 17.45 25.566 17.402 25.518C17.366 25.482 17.348 25.434 17.348 25.374L17.366 24.186C17.366 24.138 17.336 24.102 17.276 24.078C16.256 23.874 15.452 23.454 14.864 22.818C14.288 22.182 14 21.384 14 20.424V20.028C14 19.968 14.018 19.92 14.054 19.884C14.102 19.836 14.156 19.812 14.216 19.812H16.16C16.22 19.812 16.268 19.836 16.304 19.884C16.352 19.92 16.376 19.968 16.376 20.028V20.298C16.376 20.778 16.586 21.186 17.006 21.522C17.426 21.846 18.002 22.008 18.734 22.008C19.346 22.008 19.796 21.876 20.084 21.612C20.384 21.336 20.534 21 20.534 20.604C20.534 20.316 20.444 20.076 20.264 19.884C20.084 19.68 19.832 19.506 19.508 19.362C19.196 19.206 18.698 18.996 18.014 18.732C17.234 18.456 16.58 18.174 16.052 17.886C15.524 17.598 15.074 17.208 14.702 16.716C14.342 16.212 14.162 15.594 14.162 14.862C14.162 13.938 14.438 13.176 14.99 12.576C15.554 11.964 16.31 11.568 17.258 11.388C17.318 11.364 17.348 11.328 17.348 11.28L17.312 9.966C17.312 9.906 17.33 9.858 17.366 9.822C17.414 9.774 17.468 9.75 17.528 9.75H19.328C19.388 9.75 19.436 9.774 19.472 9.822C19.52 9.858 19.544 9.906 19.544 9.966L19.526 11.316C19.526 11.364 19.556 11.4 19.616 11.424C20.612 11.628 21.404 12.066 21.992 12.738C22.58 13.398 22.874 14.208 22.874 15.168V15.438C22.874 15.498 22.85 15.552 22.802 15.6C22.766 15.636 22.718 15.654 22.658 15.654H20.696C20.636 15.654 20.582 15.636 20.534 15.6C20.498 15.552 20.48 15.498 20.48 15.438V15.294C20.48 14.79 20.282 14.364 19.886 14.016C19.49 13.656 18.95 13.476 18.266 13.476C17.726 13.476 17.306 13.596 17.006 13.836C16.706 14.076 16.556 14.406 16.556 14.826C16.556 15.126 16.64 15.378 16.808 15.582C16.988 15.786 17.252 15.972 17.6 16.14C17.948 16.308 18.488 16.524 19.22 16.788C20.024 17.088 20.66 17.358 21.128 17.598C21.596 17.838 22.016 18.198 22.388 18.678C22.76 19.158 22.946 19.776 22.946 20.532Z" fill="#626D8C"/>
</svg>
