<svg width="22" height="21" viewBox="0 0 22 21" fill="none" xmlns="http://www.w3.org/2000/svg">
<path fill-rule="evenodd" clip-rule="evenodd" d="M10.9965 11.6361L15.6899 15.5472C16.0611 15.8566 16.6129 15.8064 16.9222 15.4352C17.2316 15.0639 17.1814 14.5122 16.8102 14.2028L11.5602 9.82783C11.2373 9.55873 10.7686 9.55728 10.444 9.82437L5.19404 14.1446C4.82089 14.4516 4.76731 15.0031 5.07438 15.3762C5.38144 15.7494 5.93286 15.8029 6.30601 15.4959L10.9965 11.6361ZM15.6899 10.2972L10.9965 6.38606L6.30601 10.2458C5.93286 10.5529 5.38144 10.4993 5.07438 10.1262C4.76731 9.75303 4.82089 9.20161 5.19404 8.89454L10.444 4.57435C10.7686 4.30725 11.2373 4.30871 11.5602 4.57781L16.8102 8.95281C17.1814 9.26217 17.2316 9.81392 16.9222 10.1852C16.6129 10.5564 16.0611 10.6066 15.6899 10.2972Z" fill="#001F58"/>
</svg>

