<svg width="48" height="48" viewBox="0 0 48 48" fill="none" xmlns="http://www.w3.org/2000/svg">
<g clip-path="url(#clip0_11056_219363)">
<path d="M29.3697 36.9163L24.5752 29.4005L27.502 24.4401L33.7988 34.3528L29.3697 36.9163Z" fill="white"/>
<path d="M24.5752 29.4004L29.3697 36.9163L33.7988 34.3526L27.5019 24.44L24.5752 29.4004Z" fill="white"/>
<path d="M37.832 31.3377L37.8287 29.2836L30.9483 18.5804L28.3958 22.9065L35.0378 33.6353L37.4393 32.2454C37.6748 32.0543 37.8174 31.7739 37.8324 31.4714L37.832 31.3377Z" fill="white"/>
<path d="M9 33.2748L12.3913 35.2266L23.6769 17.15L21.7615 17.0995C20.1296 17.0765 18.3716 17.5002 17.5647 18.8157L11.156 28.7367L9 32.0453V33.2748Z" fill="white"/>
<path d="M30.1905 17.15L25.1424 17.1683L13.7217 35.9915L17.7136 38.287L18.7992 36.4482L30.1905 17.15Z" fill="white"/>
<path d="M39.9593 17.124C39.9171 16.0696 39.3455 15.1044 38.4501 14.5424L25.9005 7.33431C25.0148 6.8889 23.9084 6.88833 23.0212 7.33402C22.9163 7.38686 10.817 14.3953 10.817 14.3953C10.6495 14.4755 10.4882 14.5711 10.3365 14.6795C9.53724 15.2517 9.05004 16.1408 9 17.1175V32.0453L11.156 28.7367L11.1372 17.2184C11.1397 17.1763 11.145 17.1348 11.1525 17.0939C11.2013 16.8229 11.3528 16.5812 11.5809 16.4178C11.6378 16.3771 23.9438 9.26266 23.9829 9.24314C24.2721 9.09806 24.6397 9.09634 24.9293 9.23864L37.3166 16.3551C37.6096 16.5415 37.7933 16.8575 37.8097 17.203V31.4714C37.7947 31.7739 37.6749 32.0543 37.4394 32.2454L35.0379 33.6353L33.7987 34.3526L29.3696 36.9162L24.8781 39.5159C24.6362 39.6032 24.3533 39.5983 24.1134 39.5009L18.7991 36.4481L17.7136 38.287L22.4893 41.0333C22.6472 41.123 22.7879 41.2025 22.9034 41.2672C23.0822 41.3673 23.204 41.4343 23.247 41.4552C23.5865 41.6199 24.0749 41.7157 24.515 41.7157C24.9185 41.7157 25.3119 41.6417 25.6842 41.496L38.7304 33.95C39.4792 33.3705 39.9197 32.4967 39.9593 31.55V17.124Z" fill="white"/>
<path d="M39.9593 17.124C39.9171 16.0696 39.3455 15.1044 38.4501 14.5424L25.9005 7.33431C25.0148 6.8889 23.9084 6.88833 23.0212 7.33402C22.9163 7.38686 10.817 14.3953 10.817 14.3953C10.6495 14.4755 10.4882 14.5711 10.3365 14.6795C9.53724 15.2517 9.05004 16.1408 9 17.1175V32.0453L11.156 28.7367L11.1372 17.2184C11.1397 17.1763 11.145 17.1348 11.1525 17.0939C11.2013 16.8229 11.3528 16.5812 11.5809 16.4178C11.6378 16.3771 23.9438 9.26266 23.9829 9.24314C24.2721 9.09806 24.6397 9.09634 24.9293 9.23864L37.3166 16.3551C37.6096 16.5415 37.7933 16.8575 37.8097 17.203V31.4714C37.7947 31.7739 37.6749 32.0543 37.4394 32.2454L35.0379 33.6353L33.7987 34.3526L29.3696 36.9162L24.8781 39.5159C24.6362 39.6032 24.3533 39.5983 24.1134 39.5009L18.7991 36.4481L17.7136 38.287L22.4893 41.0333C22.6472 41.123 22.7879 41.2025 22.9034 41.2672C23.0822 41.3673 23.204 41.4343 23.247 41.4552C23.5865 41.6199 24.0749 41.7157 24.515 41.7157C24.9185 41.7157 25.3119 41.6417 25.6842 41.496L38.7304 33.95C39.4792 33.3705 39.9197 32.4967 39.9593 31.55V17.124Z" stroke="white"/>
<path d="M39 17.6237C38.9604 16.6214 38.425 15.7038 37.5863 15.1696L25.8309 8.31778C25.0013 7.89439 23.9649 7.89385 23.1338 8.31751C23.0356 8.36774 11.702 15.0298 11.702 15.0298C11.5451 15.1061 11.394 15.1969 11.2519 15.3C10.5032 15.8438 10.0469 16.689 10 17.6175V31.8075L12.0196 28.6624L12.002 17.7134C12.0043 17.6734 12.0093 17.6339 12.0163 17.5951C12.062 17.3375 12.2039 17.1076 12.4175 16.9523C12.4709 16.9137 23.998 10.1508 24.0347 10.1323C24.3056 9.99437 24.65 9.99273 24.9212 10.128L36.5245 16.8927C36.799 17.0699 36.9711 17.3704 36.9864 17.6988V31.2619C36.9724 31.5495 36.8602 31.816 36.6395 31.9977L34.39 33.319L33.2293 34.0008L29.0805 36.4377L24.8732 38.9089C24.6466 38.9919 24.3816 38.9872 24.1569 38.8947L19.179 35.9928L18.1621 37.7408L22.6356 40.3513C22.7835 40.4366 22.9153 40.5122 23.0235 40.5737C23.1909 40.6688 23.3051 40.7325 23.3454 40.7524C23.6633 40.9089 24.1208 41 24.5331 41C24.911 41 25.2796 40.9296 25.6283 40.7912L37.8488 33.6181C38.5502 33.0673 38.9628 32.2366 39 31.3367V17.6237Z" fill="white"/>
<path d="M39 17.6237C38.9604 16.6214 38.425 15.7038 37.5863 15.1696L25.8309 8.31778C25.0013 7.89439 23.9649 7.89385 23.1338 8.31751C23.0356 8.36774 11.702 15.0298 11.702 15.0298C11.5451 15.1061 11.394 15.1969 11.2519 15.3C10.5032 15.8438 10.0469 16.689 10 17.6175V31.8075L12.0196 28.6624L12.002 17.7134C12.0043 17.6734 12.0093 17.6339 12.0163 17.5951C12.062 17.3375 12.2039 17.1076 12.4175 16.9523C12.4709 16.9137 23.998 10.1508 24.0347 10.1323C24.3056 9.99437 24.65 9.99273 24.9212 10.128L36.5245 16.8927C36.799 17.0699 36.9711 17.3704 36.9864 17.6988V31.2619C36.9724 31.5495 36.8602 31.816 36.6395 31.9977L34.39 33.319L33.2293 34.0008L29.0805 36.4377L24.8732 38.9089C24.6466 38.9919 24.3816 38.9872 24.1569 38.8947L19.179 35.9928L18.1621 37.7408L22.6356 40.3513C22.7835 40.4366 22.9153 40.5122 23.0235 40.5737C23.1909 40.6688 23.3051 40.7325 23.3454 40.7524C23.6633 40.9089 24.1208 41 24.5331 41C24.911 41 25.2796 40.9296 25.6283 40.7912L37.8488 33.6181C38.5502 33.0673 38.9628 32.2366 39 31.3367V17.6237Z" stroke="white"/>
</g>
<defs>
<clipPath id="clip0_11056_219363">
<rect width="31" height="34.7516" fill="white" transform="translate(9 7)"/>
</clipPath>
</defs>
</svg>
