<svg width="48" height="48" viewBox="0 0 48 48" fill="none" xmlns="http://www.w3.org/2000/svg">
<path d="M34.0562 29.0208C34.7309 28.2739 35.3304 27.4492 35.8545 26.5434C37.1189 24.36 37.7511 21.9602 37.7511 19.351C37.7511 16.7417 37.1254 14.2981 35.8708 12.1011C34.6163 9.90421 32.9326 8.17371 30.8166 6.90287C28.7005 5.63542 26.4109 5 23.9509 5C21.4909 5 19.1619 5.63542 17.0328 6.90287C14.9036 8.17371 13.2068 9.89745 11.9424 12.0842C10.6781 14.2676 10.0459 16.6538 10.0459 19.2394C10.0459 21.825 10.6781 24.3633 11.9424 26.5603C12.4829 27.4965 13.0987 28.3482 13.7899 29.1121C11.4413 30.5891 10 32.5731 10 34.7497C10 39.299 16.2794 43 24 43C31.7206 43 38 39.299 38 34.7497C38 32.5257 36.4965 30.5012 34.0562 29.0174V29.0208ZM13.9504 38.2817C12.5583 37.217 11.8049 35.9901 11.8049 34.7531C11.8049 33.222 12.9546 31.7112 15.0412 30.5012C15.0805 30.4775 15.1198 30.4573 15.1624 30.4336C15.7356 30.9135 16.3482 31.3496 17.0033 31.7416C17.0688 31.7822 17.1376 31.8194 17.2031 31.8565C14.9626 32.9922 13.5409 34.6787 13.5409 36.5579C13.5409 37.1562 13.6851 37.7375 13.9537 38.2851L13.9504 38.2817ZM24 40.8876C20.8226 40.8876 19.0866 39.4646 19.0866 38.7346C19.0866 38.0045 20.8194 36.5816 24 36.5816C27.1806 36.5816 28.9134 38.0045 28.9134 38.7346C28.9134 39.4646 27.1806 40.8876 24 40.8876ZM30.6659 39.2179C30.6986 39.0591 30.7183 38.8968 30.7183 38.7312C30.7183 36.5174 27.7047 34.7159 24.0033 34.7159C20.3018 34.7159 17.2883 36.5174 17.2883 38.7312C17.2883 38.8968 17.3079 39.0591 17.3407 39.2179C16.109 38.4642 15.3458 37.528 15.3458 36.5546C15.3458 35.0877 17.0721 33.7087 19.5157 32.9144C20.8783 33.3876 22.3 33.6242 23.7805 33.6242C25.3692 33.6242 26.8825 33.3673 28.3238 32.8604C30.8591 33.6445 32.664 35.0539 32.664 36.5546C32.664 37.528 31.9008 38.4676 30.6692 39.2179H30.6659ZM34.0496 38.2817C34.3182 37.7341 34.4656 37.1528 34.4656 36.5546C34.4656 34.6348 32.9785 32.9144 30.6528 31.7754C30.6855 31.7551 30.7183 31.7382 30.7511 31.7213C31.4422 31.3124 32.0875 30.8527 32.6902 30.3457C32.7819 30.3964 32.8769 30.4471 32.9654 30.4978C35.0519 31.7112 36.2017 33.222 36.2017 34.7497C36.2017 35.9867 35.4483 37.2136 34.0562 38.2783L34.0496 38.2817Z" fill="#05D65A"/>
</svg>
