<svg width="36" height="36" viewBox="0 0 36 36" fill="none" xmlns="http://www.w3.org/2000/svg">
<g id="keyboard-01">
<path id="Icon" d="M9 15H9.015M12 21H12.015M15 15H15.015M18 21H18.015M21 15H21.015M24 21H24.015M27 15H27.015M7.8 27H28.2C29.8802 27 30.7202 27 31.362 26.673C31.9265 26.3854 32.3854 25.9265 32.673 25.362C33 24.7202 33 23.8802 33 22.2V13.8C33 12.1198 33 11.2798 32.673 10.638C32.3854 10.0735 31.9265 9.6146 31.362 9.32698C30.7202 9 29.8802 9 28.2 9H7.8C6.11984 9 5.27976 9 4.63803 9.32698C4.07354 9.6146 3.6146 10.0735 3.32698 10.638C3 11.2798 3 12.1198 3 13.8V22.2C3 23.8802 3 24.7202 3.32698 25.362C3.6146 25.9265 4.07354 26.3854 4.63803 26.673C5.27976 27 6.11984 27 7.8 27Z" stroke="#121212" stroke-width="1.92857" stroke-linecap="round" stroke-linejoin="round"/>
</g>
</svg>
