<svg width="48" height="48" viewBox="0 0 48 48" fill="none" xmlns="http://www.w3.org/2000/svg">
<path fill-rule="evenodd" clip-rule="evenodd" d="M35.0652 16.2981C34.6268 12.3528 31.1944 11.0797 26.883 10.7665L26.8005 5.28508L23.4658 5.3367L23.5448 10.6737C22.6864 10.6851 21.8109 10.716 20.9367 10.7468L20.8809 10.7488L20.8023 5.37684L17.467 5.42664L17.549 10.9062L17.404 10.9113L17.4038 10.9113C16.7318 10.9345 16.0705 10.9574 15.4255 10.9659L15.4248 10.9486L10.8232 11.0166L10.8772 14.5795C10.8772 14.5795 13.3411 14.4954 13.3008 14.541C14.6521 14.5215 15.1026 15.2992 15.2414 15.9755L15.3362 22.219C15.4289 22.2177 15.5497 22.2205 15.6894 22.2357L15.3365 22.2422L15.4678 30.9894C15.414 31.4145 15.1744 32.0962 14.2292 32.1125C14.2738 32.1491 11.8051 32.1492 11.8051 32.1492L11.202 36.1422L15.5447 36.077C16.0112 36.0708 16.4738 36.0689 16.9315 36.067C17.2656 36.0657 17.5972 36.0643 17.9259 36.0613L18.0111 41.604L21.3441 41.5529L21.2616 36.0715C22.1771 36.0747 23.0629 36.0683 23.9277 36.0558L24.0081 41.5146L27.3429 41.463L27.2605 35.9311C32.8654 35.5252 36.769 34.0534 37.1774 28.7789C37.5079 24.5327 35.4844 22.6687 32.289 21.9528C34.2098 20.9394 35.3916 19.186 35.0652 16.2981ZM30.5747 28.221C30.6356 32.0214 24.6641 32.0281 21.9308 32.0312C21.6845 32.0314 21.4645 32.0317 21.2776 32.0347L21.1697 24.6901C21.3977 24.6868 21.6748 24.6761 21.9887 24.6641C24.7882 24.5566 30.518 24.3365 30.5747 28.221ZM21.6708 21.3258C23.95 21.3293 28.9199 21.337 28.8681 17.8824C28.8152 14.3491 24.0387 14.5481 21.7056 14.6454C21.4426 14.6563 21.2106 14.666 21.02 14.6689L21.1203 21.3276C21.2776 21.3252 21.463 21.3255 21.6708 21.3258Z" fill="white"/>
</svg>
