<svg width="48" height="48" viewBox="0 0 48 48" fill="none" xmlns="http://www.w3.org/2000/svg">
<circle cx="24" cy="24" r="24" fill="#2C374B"/>
<g clip-path="url(#clip0_10894_211872)">
<path d="M29.1837 37.3519L24.0798 29.3498L27.1955 24.0685L33.8985 34.6225L29.1837 37.3519Z" fill="#2D374B"/>
<path d="M24.0801 29.3497L29.1839 37.3518L33.8988 34.6223L27.1956 24.0684L24.0801 29.3497Z" fill="#2A9FEB"/>
<path d="M38.1923 31.4124L38.1887 29.2253L30.8645 17.8297L28.1472 22.4356L35.2178 33.8586L37.7742 32.3788C38.025 32.1753 38.1767 31.8768 38.1926 31.5547L38.1923 31.4124Z" fill="#2A9FEB"/>
<path d="M7.5 33.4748L11.1101 35.5529L23.1238 16.3067L21.0849 16.253C19.3476 16.2284 17.4762 16.6796 16.6173 18.0802L9.79514 28.6431L7.5 32.1658V33.4748Z" fill="white"/>
<path d="M30.0577 16.3067L24.6839 16.3262L12.5264 36.3672L16.7758 38.8113L17.9314 36.8535L30.0577 16.3067Z" fill="white"/>
<path d="M40.4567 16.279C40.4117 15.1564 39.8033 14.1287 38.8501 13.5304L25.4909 5.85593C24.548 5.38171 23.3703 5.3811 22.4258 5.85563C22.3141 5.91189 9.4342 13.3738 9.4342 13.3738C9.25594 13.4592 9.08423 13.5609 8.92273 13.6764C8.0719 14.2855 7.55327 15.2322 7.5 16.2721V32.1658L9.79514 28.6431L9.77509 16.3795C9.77776 16.3347 9.7834 16.2905 9.7914 16.247C9.8433 15.9585 10.0046 15.7011 10.2474 15.5271C10.308 15.4838 23.4079 7.90905 23.4495 7.88827C23.7574 7.7338 24.1488 7.73197 24.457 7.88347L37.6435 15.4603C37.9554 15.6588 38.151 15.9953 38.1684 16.3632V31.5546C38.1524 31.8768 38.0249 32.1753 37.7742 32.3788L35.2177 33.8586L33.8986 34.6223L29.1838 37.3518L24.4025 40.1197C24.145 40.2126 23.8438 40.2074 23.5885 40.1037L17.9314 36.8534L16.7757 38.8113L21.8596 41.7352C22.0277 41.8307 22.1775 41.9154 22.3004 41.9843C22.4907 42.0909 22.6204 42.1622 22.6662 42.1845C23.0275 42.3598 23.5474 42.4618 24.0159 42.4618C24.4455 42.4618 24.8643 42.383 25.2606 42.2279L39.1484 34.1937C39.9456 33.5767 40.4145 32.6463 40.4567 31.6384V16.279Z" fill="#9ABEDE"/>
<path d="M40.4567 16.279C40.4117 15.1564 39.8033 14.1287 38.8501 13.5304L25.4909 5.85593C24.548 5.38171 23.3703 5.3811 22.4258 5.85563C22.3141 5.91189 9.4342 13.3738 9.4342 13.3738C9.25594 13.4592 9.08423 13.5609 8.92273 13.6764C8.0719 14.2855 7.55327 15.2322 7.5 16.2721V32.1658L9.79514 28.6431L9.77509 16.3795C9.77776 16.3347 9.7834 16.2905 9.7914 16.247C9.8433 15.9585 10.0046 15.7011 10.2474 15.5271C10.308 15.4838 23.4079 7.90905 23.4495 7.88827C23.7574 7.7338 24.1488 7.73197 24.457 7.88347L37.6435 15.4603C37.9554 15.6588 38.151 15.9953 38.1684 16.3632V31.5546C38.1524 31.8768 38.0249 32.1753 37.7742 32.3788L35.2177 33.8586L33.8986 34.6223L29.1838 37.3518L24.4025 40.1197C24.145 40.2126 23.8438 40.2074 23.5885 40.1037L17.9314 36.8534L16.7757 38.8113L21.8596 41.7352C22.0277 41.8307 22.1775 41.9154 22.3004 41.9843C22.4907 42.0909 22.6204 42.1622 22.6662 42.1845C23.0275 42.3598 23.5474 42.4618 24.0159 42.4618C24.4455 42.4618 24.8643 42.383 25.2606 42.2279L39.1484 34.1937C39.9456 33.5767 40.4145 32.6463 40.4567 31.6384V16.279Z" stroke="#6DB6E6"/>
</g>
<defs>
<clipPath id="clip0_10894_211872">
<rect width="33" height="37" fill="white" transform="translate(7.5 5.5)"/>
</clipPath>
</defs>
</svg>
