<svg width="22" height="21" viewBox="0 0 22 21" fill="none" xmlns="http://www.w3.org/2000/svg">
<path fill-rule="evenodd" clip-rule="evenodd" d="M10.9965 8.48891L15.6899 4.57778C16.0611 4.26842 16.6129 4.31857 16.9222 4.68982C17.2316 5.06106 17.1814 5.6128 16.8102 5.92217L11.5602 10.2972C11.2373 10.5663 10.7686 10.5677 10.444 10.3006L5.19404 5.98043C4.82089 5.67337 4.76731 5.12195 5.07438 4.74879C5.38144 4.37564 5.93286 4.32207 6.30601 4.62913L10.9965 8.48891ZM15.6899 9.82781L10.9965 13.7389L6.30601 9.87916C5.93286 9.57209 5.38144 9.62567 5.07438 9.99882C4.76731 10.372 4.82089 10.9234 5.19404 11.2305L10.444 15.5506C10.7686 15.8177 11.2373 15.8163 11.5602 15.5472L16.8102 11.1722C17.1814 10.8628 17.2316 10.3111 16.9222 9.93984C16.6129 9.5686 16.0611 9.51844 15.6899 9.82781Z" fill="#001F58"/>
</svg>

