<svg width="48" height="48" viewBox="0 0 48 48" fill="none" xmlns="http://www.w3.org/2000/svg">
<path d="M24 48C37.2549 48 48 37.2549 48 24C48 10.7452 37.2549 0 24 0C10.7452 0 0 10.7452 0 24C0 37.2549 10.7452 48 24 48Z" fill="#12192C"/>
<path d="M40.824 21.648L39.864 20.04L34.608 11.208H34.584L34.416 10.896H32.496L25.032 24.024L32.616 37.08H34.536L34.584 37.008L40.848 26.28H36.984L33.648 32.208L28.896 24L33.552 15.792L36.936 21.624L40.824 21.648Z" fill="#41E6AF"/>
<path d="M11.616 19.512L15.12 13.536L13.944 11.64L13.128 10.296L7.12796 20.88L6.95996 21.168L7.91996 22.848H23.016L30.624 9.816L29.568 7.992L19.008 8.016H18.84L17.16 7.992L18.048 9.672L18.936 11.352L25.848 11.328L21.096 19.512H11.616Z" fill="#41E6AF"/>
<path d="M19.0801 12.6C18.8161 12.6 18.5281 12.648 18.2401 12.744C17.9281 12.84 17.6161 12.984 17.3281 13.152C16.512 13.656 15.936 14.376 15.84 15.048C15.792 15.36 15.864 15.624 16.032 15.816C16.056 15.864 16.104 15.888 16.128 15.936C16.152 15.96 16.176 15.96 16.2 15.984C16.224 16.008 16.224 16.008 16.248 16.032C16.296 16.056 16.32 16.08 16.368 16.104C16.872 16.344 17.6641 16.296 18.4321 15.936L18.4561 15.912C18.5281 15.888 18.6001 15.84 18.6721 15.816C18.7441 15.792 18.7921 15.744 18.8641 15.696C18.9361 15.648 19.0081 15.6 19.0801 15.552C19.1521 15.504 19.2001 15.456 19.2721 15.408L19.3201 15.384C19.3681 15.336 19.4161 15.312 19.4641 15.264C19.4881 15.24 19.4881 15.24 19.5121 15.216C19.5601 15.192 19.5841 15.144 19.6081 15.12C19.6321 15.096 19.6561 15.072 19.6801 15.024C19.7041 14.976 19.7521 14.952 19.7761 14.904C19.8001 14.88 19.8001 14.88 19.8241 14.856C19.8481 14.808 19.8961 14.784 19.9201 14.736L19.9681 14.688C19.9921 14.64 20.0161 14.616 20.0401 14.568C20.0401 14.568 20.0401 14.568 20.0401 14.544L20.0641 14.496C20.1121 14.448 20.1361 14.376 20.1601 14.328C20.1841 14.28 20.2081 14.208 20.2321 14.16L20.2561 14.136C20.2561 14.112 20.2801 14.088 20.2801 14.088C20.2801 14.064 20.2801 14.064 20.3041 14.04C20.3041 13.992 20.3281 13.968 20.3281 13.92C20.3281 13.872 20.3521 13.872 20.3521 13.848C20.3521 13.824 20.3521 13.8 20.3521 13.8C20.3521 13.752 20.3521 13.728 20.3521 13.704V13.656C20.3521 13.608 20.3521 13.584 20.3521 13.536C20.3521 13.512 20.3521 13.512 20.3521 13.488C20.3521 13.464 20.3521 13.44 20.3521 13.44C20.3521 13.416 20.3521 13.416 20.3521 13.392V13.368C20.3521 13.32 20.3281 13.296 20.3041 13.248C20.2801 13.2 20.2561 13.176 20.2321 13.128C20.0641 12.768 19.6081 12.6 19.0801 12.6Z" fill="#41E6AF"/>
<path d="M20.8321 14.352C20.8321 14.4 20.8081 14.424 20.7841 14.472C20.7841 14.496 20.7841 14.496 20.7601 14.52C20.7361 14.592 20.7121 14.64 20.6641 14.712C20.4001 15.216 19.9681 15.696 19.4401 16.08C19.3681 16.128 19.2961 16.176 19.2241 16.224C19.1521 16.272 19.0801 16.32 19.0081 16.344H18.9841C18.9601 16.368 18.9361 16.368 18.9121 16.392C18.8641 16.416 18.8401 16.44 18.7921 16.464H18.7681C18.7441 16.464 18.7201 16.488 18.6961 16.488C18.6481 16.512 18.6001 16.536 18.5521 16.536L18.5041 16.56C18.5041 16.56 18.5041 16.56 18.4801 16.56C18.4561 16.56 18.4321 16.584 18.4081 16.584C18.3601 16.608 18.3121 16.608 18.2641 16.632L18.2161 16.656H18.1921C18.1441 16.68 18.0961 16.68 18.0481 16.704C18.0241 16.704 18.0001 16.728 17.9521 16.728H17.9281C17.8801 16.728 17.8321 16.752 17.8081 16.752C17.7841 16.752 17.7361 16.752 17.7121 16.776H17.6881C17.6641 16.776 17.6401 16.776 17.6161 16.8C17.5921 16.8 17.5681 16.8 17.5441 16.8C17.4721 16.8 17.3761 16.824 17.3041 16.824H17.2801C17.2081 16.824 17.1361 16.824 17.0641 16.824C17.0401 16.824 17.0161 16.824 17.0161 16.824H16.9921C16.9441 16.824 16.8961 16.824 16.8481 16.8C16.8241 16.8 16.8001 16.8 16.7761 16.776C16.7281 16.776 16.6801 16.752 16.6321 16.752C16.6081 16.752 16.5841 16.728 16.5601 16.728L17.8801 18.864L20.7121 18.84L22.1761 16.248L20.8561 14.088C20.8561 14.112 20.8561 14.136 20.8321 14.16C20.8321 14.184 20.8321 14.184 20.8321 14.208C20.8321 14.232 20.8081 14.256 20.8081 14.304C20.8321 14.328 20.8321 14.352 20.8321 14.352Z" fill="#41E6AF"/>
<path d="M35.8799 22.152C36.0239 22.368 36.1199 22.632 36.1919 22.944C36.2639 23.256 36.3119 23.592 36.3119 23.928C36.3119 24.888 35.9999 25.752 35.4719 26.184C35.2319 26.376 34.9679 26.472 34.7039 26.424C34.6559 26.424 34.6079 26.4 34.5599 26.4C34.5359 26.4 34.5119 26.376 34.4879 26.376C34.4639 26.376 34.4399 26.352 34.4159 26.352C34.3679 26.328 34.3199 26.304 34.2959 26.28C33.8159 25.968 33.4559 25.272 33.3599 24.432V24.408C33.3599 24.336 33.3359 24.264 33.3359 24.168C33.3359 24.096 33.3359 24.024 33.3359 23.952C33.3359 23.856 33.3359 23.784 33.3359 23.688C33.3359 23.616 33.3359 23.544 33.3599 23.472V23.424C33.3599 23.376 33.3839 23.304 33.3839 23.256C33.3839 23.232 33.3839 23.208 33.3839 23.184C33.3839 23.136 33.4079 23.088 33.4079 23.04C33.4079 22.992 33.4319 22.968 33.4319 22.92C33.4559 22.872 33.4559 22.824 33.4799 22.776C33.4799 22.752 33.5039 22.728 33.5039 22.704C33.5279 22.656 33.5279 22.608 33.5519 22.56L33.5759 22.488C33.5999 22.44 33.6239 22.416 33.6239 22.368C33.6239 22.368 33.6239 22.368 33.6239 22.344L33.6479 22.296C33.6719 22.224 33.7199 22.176 33.7439 22.128C33.7679 22.08 33.8159 22.032 33.8399 21.984L33.8639 21.96C33.8879 21.936 33.8879 21.936 33.9119 21.912C33.9359 21.888 33.9359 21.888 33.9359 21.864C33.9599 21.84 33.9839 21.816 34.0079 21.792C34.0319 21.768 34.0559 21.744 34.0559 21.744C34.0799 21.72 34.0799 21.72 34.1039 21.696C34.1279 21.672 34.1519 21.648 34.1759 21.624L34.2239 21.6C34.2479 21.576 34.2959 21.552 34.3199 21.528C34.3439 21.528 34.3439 21.528 34.3679 21.504C34.3919 21.504 34.4159 21.48 34.4159 21.48C34.4159 21.48 34.4399 21.48 34.4399 21.456H34.4639C34.5119 21.456 34.5359 21.432 34.5839 21.432C34.6319 21.432 34.6799 21.432 34.7279 21.432C35.2319 21.408 35.5919 21.696 35.8799 22.152Z" fill="#41E6AF"/>
<path d="M33.4561 21.576C33.4321 21.6 33.4081 21.648 33.3841 21.672C33.3841 21.696 33.3601 21.696 33.3601 21.72C33.3121 21.768 33.2881 21.84 33.2401 21.888C32.9281 22.368 32.7601 22.992 32.7121 23.64C32.7121 23.736 32.7121 23.808 32.7121 23.904C32.7121 23.976 32.7121 24.072 32.7121 24.144V24.168C32.7121 24.192 32.7121 24.24 32.7121 24.264C32.7121 24.312 32.7121 24.36 32.7361 24.408V24.432C32.7361 24.456 32.7361 24.48 32.7361 24.504C32.7361 24.552 32.7601 24.6 32.7601 24.648V24.696C32.7601 24.696 32.7601 24.696 32.7601 24.72C32.7601 24.744 32.7601 24.768 32.7841 24.792C32.7841 24.84 32.8081 24.888 32.8081 24.936L32.8321 24.984V25.008C32.8321 25.056 32.8561 25.104 32.8801 25.152C32.8801 25.176 32.9041 25.2 32.9041 25.224V25.248C32.9281 25.296 32.9281 25.32 32.9521 25.368C32.9521 25.392 32.9761 25.416 33.0001 25.464V25.488C33.0001 25.512 33.0241 25.536 33.0241 25.56C33.0481 25.584 33.0481 25.608 33.0481 25.608C33.0721 25.68 33.1201 25.752 33.1681 25.824L33.1921 25.848C33.2401 25.92 33.2641 25.968 33.3121 26.016C33.3121 26.04 33.3361 26.04 33.3361 26.064L33.3601 26.088C33.3841 26.136 33.4321 26.16 33.4561 26.208C33.4801 26.232 33.4801 26.256 33.5041 26.256C33.5521 26.304 33.5761 26.328 33.6001 26.376C33.6241 26.4 33.6481 26.4 33.6481 26.424H31.1281L29.6641 24L31.1041 21.408H33.6241C33.6001 21.432 33.6001 21.432 33.5761 21.456L33.5521 21.48C33.5281 21.504 33.5041 21.528 33.4561 21.576C33.4561 21.576 33.4801 21.576 33.4561 21.576Z" fill="#41E6AF"/>
<path d="M19.0801 35.376C18.8161 35.376 18.5281 35.328 18.2401 35.232C17.9281 35.136 17.6161 34.992 17.3281 34.824C16.512 34.32 15.936 33.6 15.84 32.928C15.792 32.616 15.864 32.352 16.032 32.16C16.056 32.112 16.104 32.088 16.128 32.04C16.152 32.016 16.176 32.016 16.2 31.992C16.224 31.968 16.224 31.968 16.248 31.944C16.296 31.92 16.32 31.896 16.368 31.872C16.872 31.632 17.6641 31.68 18.4321 32.04L18.4561 32.064C18.5281 32.088 18.6001 32.136 18.6721 32.16C18.7441 32.184 18.7921 32.232 18.8641 32.28C18.9361 32.328 19.0081 32.376 19.0801 32.424C19.1521 32.472 19.2001 32.52 19.2721 32.568L19.3201 32.592C19.3681 32.64 19.4161 32.664 19.4641 32.712C19.4881 32.736 19.4881 32.736 19.5121 32.76C19.5601 32.784 19.5841 32.832 19.6081 32.856C19.6321 32.88 19.6561 32.904 19.6801 32.952C19.7041 33 19.7521 33.024 19.7761 33.072C19.8001 33.096 19.8001 33.096 19.8241 33.12C19.8481 33.168 19.8961 33.192 19.9201 33.24L19.9681 33.288C19.9921 33.336 20.0161 33.36 20.0401 33.408V33.432L20.0641 33.48C20.1121 33.528 20.1361 33.6 20.1601 33.648C20.1841 33.696 20.2081 33.768 20.2321 33.816L20.2561 33.84C20.2561 33.864 20.2801 33.888 20.2801 33.888C20.2801 33.912 20.2801 33.912 20.3041 33.936C20.3041 33.984 20.3281 34.008 20.3281 34.056C20.3281 34.104 20.3521 34.104 20.3521 34.128C20.3521 34.152 20.3521 34.176 20.3521 34.176C20.3521 34.224 20.3521 34.248 20.3521 34.272V34.32C20.3521 34.368 20.3521 34.392 20.3521 34.44C20.3521 34.464 20.3521 34.464 20.3521 34.488C20.3521 34.512 20.3521 34.536 20.3521 34.536C20.3521 34.56 20.3521 34.56 20.3521 34.584V34.608C20.3521 34.656 20.3281 34.68 20.3041 34.728C20.2801 34.776 20.2561 34.8 20.2321 34.848C20.0641 35.208 19.6081 35.4 19.0801 35.376Z" fill="#41E6AF"/>
<path d="M20.8321 33.624C20.8321 33.576 20.8081 33.552 20.7841 33.504C20.7841 33.48 20.7841 33.48 20.7601 33.456C20.7361 33.384 20.7121 33.336 20.6641 33.264C20.4001 32.76 19.9681 32.28 19.4401 31.896C19.3681 31.848 19.2961 31.8 19.2241 31.752C19.1521 31.704 19.0801 31.656 19.0081 31.632H18.9841C18.9601 31.608 18.9361 31.608 18.9121 31.584C18.8641 31.56 18.8401 31.536 18.7921 31.512H18.7681C18.7441 31.512 18.7201 31.488 18.6961 31.488C18.6481 31.464 18.6001 31.44 18.5521 31.44L18.5041 31.416C18.5041 31.416 18.5041 31.416 18.4801 31.416C18.4561 31.416 18.4321 31.392 18.4081 31.392C18.3601 31.368 18.3121 31.368 18.2641 31.344L18.2161 31.32H18.1921C18.1441 31.296 18.0961 31.296 18.0481 31.272C18.0241 31.272 18.0001 31.248 17.9521 31.248H17.9281C17.8801 31.248 17.8321 31.224 17.8081 31.224C17.7841 31.224 17.7361 31.224 17.7121 31.2H17.6881C17.6641 31.2 17.6401 31.2 17.6161 31.176C17.5921 31.176 17.5681 31.176 17.5441 31.176C17.4721 31.176 17.3761 31.152 17.3041 31.152H17.2801C17.2081 31.152 17.1361 31.152 17.0641 31.152C17.0401 31.152 17.0161 31.152 17.0161 31.152H16.9921C16.9441 31.152 16.8961 31.152 16.8481 31.176C16.8241 31.176 16.8001 31.176 16.7761 31.2C16.7281 31.2 16.6801 31.224 16.6321 31.224C16.6081 31.224 16.5841 31.248 16.5601 31.248L17.8801 29.112L20.7121 29.136L22.1761 31.728L20.8561 33.888C20.8561 33.864 20.8561 33.84 20.8321 33.816C20.8321 33.792 20.8321 33.792 20.8321 33.768C20.8321 33.744 20.8081 33.72 20.8081 33.672C20.8321 33.648 20.8321 33.624 20.8321 33.624Z" fill="#41E6AF"/>
<path d="M25.848 36.648L18.936 36.624L17.88 38.616L17.16 39.984L19.008 39.96V39.984L29.568 40.008L30.624 38.184L23.016 25.152L7.91996 25.128L6.95996 26.808L7.15196 27.12H7.12796L13.128 37.68L15.12 34.44L11.616 28.488H21.096L25.848 36.648Z" fill="#41E6AF"/>
</svg>
