<svg width="24" height="24" viewBox="0 0 24 24" fill="none" xmlns="http://www.w3.org/2000/svg">
<path d="M16.5 11H16.51M21 11V9C21 7.89543 20.1046 7 19 7L5 7C3.89543 7 3 6.10457 3 5M11 21H5C3.89543 21 3 20.1046 3 19V5M3 5C3 3.89543 3.89543 3 5 3H17M17 11C17 11.2761 16.7761 11.5 16.5 11.5C16.2239 11.5 16 11.2761 16 11C16 10.7239 16.2239 10.5 16.5 10.5C16.7761 10.5 17 10.7239 17 11Z" stroke="black" stroke-opacity="0.88" stroke-width="1.5" stroke-linecap="round" stroke-linejoin="round"/>
<path d="M17.6956 14.3666C17.7934 14.1588 17.8423 14.0549 17.9087 14.0217C17.9664 13.9928 18.0336 13.9928 18.0913 14.0217C18.1577 14.0549 18.2066 14.1588 18.3044 14.3666L19.2324 16.3385C19.2613 16.3999 19.2757 16.4305 19.2968 16.4544C19.3155 16.4754 19.3379 16.4925 19.3628 16.5047C19.3909 16.5184 19.4232 16.5233 19.4877 16.5332L21.5634 16.8515C21.782 16.885 21.8913 16.9017 21.9418 16.9577C21.9859 17.0064 22.0065 17.0734 21.9982 17.1399C21.9885 17.2164 21.9094 17.2972 21.7512 17.4589L20.2498 18.9928C20.203 19.0406 20.1795 19.0645 20.1644 19.093C20.1511 19.1181 20.1425 19.1458 20.1392 19.1744C20.1355 19.2068 20.141 19.2405 20.152 19.3081L20.5063 21.4746C20.5437 21.7031 20.5623 21.8174 20.5272 21.8852C20.4967 21.9442 20.4424 21.9856 20.3794 21.9978C20.3071 22.0119 20.2093 21.9579 20.0137 21.85L18.158 20.8264C18.1002 20.7945 18.0713 20.7786 18.0408 20.7723C18.0139 20.7668 17.9861 20.7668 17.9592 20.7723C17.9287 20.7786 17.8998 20.7945 17.842 20.8264L15.9863 21.85C15.7907 21.9579 15.6929 22.0119 15.6206 21.9978C15.5576 21.9856 15.5033 21.9442 15.4728 21.8852C15.4377 21.8174 15.4563 21.7031 15.4937 21.4746L15.848 19.3081C15.859 19.2405 15.8645 19.2068 15.8608 19.1744C15.8575 19.1458 15.8489 19.1181 15.8356 19.093C15.8205 19.0645 15.7971 19.0406 15.7502 18.9928L14.2488 17.4589C14.0906 17.2972 14.0115 17.2164 14.0018 17.1399C13.9935 17.0734 14.0141 17.0064 14.0582 16.9577C14.1087 16.9017 14.218 16.885 14.4366 16.8515L16.5123 16.5332C16.5768 16.5233 16.6091 16.5184 16.6372 16.5047C16.6621 16.4925 16.6845 16.4754 16.7032 16.4544C16.7243 16.4305 16.7387 16.3999 16.7676 16.3385L17.6956 14.3666Z" stroke="black" stroke-opacity="0.88" stroke-width="1.5" stroke-linecap="round" stroke-linejoin="round"/>
</svg>
