<svg width="29" height="28" viewBox="0 0 29 28" fill="none" xmlns="http://www.w3.org/2000/svg">
<path d="M24.5749 12.8702L23.9916 11.9042L20.7982 6.59856H20.7837L20.6816 6.41113H19.515L14.9801 14.2975L19.5879 22.1407H20.7545L20.7837 22.0975L24.5895 15.6528H22.2418L20.215 19.2139L17.3278 14.2831L20.1566 9.35232L22.2127 12.8558L24.5749 12.8702Z" fill="white"/>
<path d="M6.82887 11.5871L8.95781 7.99708L8.2433 6.8581L7.74752 6.05071L4.10207 12.4089L4 12.5819L4.58327 13.5911H13.7552L18.3776 5.76236L17.736 4.66663L11.3201 4.68104H11.218L10.1973 4.66663L10.7368 5.67586L11.2763 6.68509L15.4759 6.67067L12.5887 11.5871H6.82887Z" fill="white"/>
<path d="M11.3638 7.43481C11.2034 7.43481 11.0284 7.46365 10.8534 7.52132C10.6638 7.57899 10.4743 7.6655 10.2993 7.76642C9.80351 8.06919 9.45355 8.50171 9.39522 8.90541C9.36606 9.09284 9.4098 9.25143 9.51188 9.36677C9.52646 9.3956 9.55562 9.41002 9.5702 9.43886C9.58479 9.45327 9.59937 9.45327 9.61395 9.46769C9.62853 9.48211 9.62853 9.48211 9.64311 9.49653C9.67228 9.51094 9.68686 9.52536 9.71602 9.53978C10.0222 9.68396 10.5034 9.65512 10.9701 9.43886L10.9846 9.42444C11.0284 9.41002 11.0721 9.38119 11.1159 9.36677C11.1596 9.35235 11.1888 9.32352 11.2325 9.29468C11.2763 9.26585 11.32 9.23701 11.3638 9.20818C11.4075 9.17934 11.4367 9.15051 11.4804 9.12167L11.5096 9.10725C11.5387 9.07842 11.5679 9.064 11.5971 9.03516C11.6117 9.02075 11.6117 9.02075 11.6262 9.00633C11.6554 8.99191 11.67 8.96308 11.6846 8.94866C11.6991 8.93424 11.7137 8.91982 11.7283 8.89099C11.7429 8.86215 11.7721 8.84774 11.7866 8.8189C11.8012 8.80448 11.8012 8.80448 11.8158 8.79007C11.8304 8.76123 11.8595 8.74681 11.8741 8.71798L11.9033 8.68914C11.9179 8.66031 11.9325 8.64589 11.947 8.61706C11.947 8.61706 11.947 8.61706 11.947 8.60264L11.9616 8.5738C11.9908 8.54497 12.0054 8.50171 12.0199 8.47288C12.0345 8.44404 12.0491 8.40079 12.0637 8.37196L12.0783 8.35754C12.0783 8.34312 12.0929 8.3287 12.0929 8.3287C12.0929 8.31429 12.0929 8.31429 12.1074 8.29987C12.1074 8.27103 12.122 8.25662 12.122 8.22778C12.122 8.19895 12.1366 8.19895 12.1366 8.18453C12.1366 8.17011 12.1366 8.15569 12.1366 8.15569C12.1366 8.12686 12.1366 8.11244 12.1366 8.09802V8.06919C12.1366 8.04035 12.1366 8.02593 12.1366 7.9971C12.1366 7.98268 12.1366 7.98268 12.1366 7.96826C12.1366 7.95385 12.1366 7.93943 12.1366 7.93943C12.1366 7.92501 12.1366 7.92501 12.1366 7.91059V7.89618C12.1366 7.86734 12.122 7.85292 12.1074 7.82409C12.0929 7.79525 12.0783 7.78084 12.0637 7.752C11.9616 7.53574 11.6846 7.43481 11.3638 7.43481Z" fill="white"/>
<path d="M12.4283 8.48727C12.4283 8.5161 12.4137 8.53052 12.3992 8.55936C12.3992 8.57377 12.3992 8.57377 12.3846 8.58819C12.37 8.63144 12.3554 8.66028 12.3262 8.70353C12.1658 9.0063 11.9034 9.29465 11.5826 9.52533C11.5388 9.55417 11.4951 9.583 11.4513 9.61184C11.4076 9.64067 11.3639 9.66951 11.3201 9.68393H11.3055C11.2909 9.69834 11.2764 9.69834 11.2618 9.71276C11.2326 9.72718 11.218 9.7416 11.1889 9.75601H11.1743C11.1597 9.75601 11.1451 9.77043 11.1305 9.77043C11.1014 9.78485 11.0722 9.79927 11.0431 9.79927L11.0139 9.81368C11.0139 9.81368 11.0139 9.81368 10.9993 9.81368C10.9847 9.81368 10.9701 9.8281 10.9556 9.8281C10.9264 9.84252 10.8972 9.84252 10.8681 9.85694L10.8389 9.87135H10.8243C10.7952 9.88577 10.766 9.88577 10.7368 9.90019C10.7223 9.90019 10.7077 9.91461 10.6785 9.91461H10.6639C10.6348 9.91461 10.6056 9.92902 10.591 9.92902C10.5764 9.92902 10.5473 9.92902 10.5327 9.94344H10.5181C10.5035 9.94344 10.4889 9.94344 10.4744 9.95786C10.4598 9.95786 10.4452 9.95786 10.4306 9.95786C10.3869 9.95786 10.3285 9.97228 10.2848 9.97228H10.2702C10.2265 9.97228 10.1827 9.97228 10.139 9.97228C10.1244 9.97228 10.1098 9.97228 10.1098 9.97228H10.0952C10.0661 9.97228 10.0369 9.97228 10.0077 9.95786C9.99316 9.95786 9.97858 9.95786 9.964 9.94344C9.93484 9.94344 9.90567 9.92902 9.87651 9.92902C9.86193 9.92902 9.84735 9.91461 9.83276 9.91461L10.6348 11.1978L12.3554 11.1834L13.2449 9.62626L12.4429 8.32867C12.4429 8.34309 12.4429 8.35751 12.4283 8.37193C12.4283 8.38634 12.4283 8.38634 12.4283 8.40076C12.4283 8.41518 12.4137 8.4296 12.4137 8.45843C12.4283 8.47285 12.4283 8.48727 12.4283 8.48727Z" fill="white"/>
<path d="M21.5711 13.173C21.6586 13.3027 21.7169 13.4613 21.7606 13.6488C21.8044 13.8362 21.8335 14.038 21.8335 14.2399C21.8335 14.8166 21.644 15.3356 21.3232 15.5951C21.1774 15.7105 21.017 15.7682 20.8566 15.7393C20.8274 15.7393 20.7982 15.7249 20.7691 15.7249C20.7545 15.7249 20.7399 15.7105 20.7253 15.7105C20.7107 15.7105 20.6962 15.6961 20.6816 15.6961C20.6524 15.6816 20.6232 15.6672 20.6087 15.6528C20.317 15.4654 20.0983 15.0473 20.04 14.5427V14.5282C20.04 14.485 20.0254 14.4417 20.0254 14.3841C20.0254 14.3408 20.0254 14.2976 20.0254 14.2543C20.0254 14.1966 20.0254 14.1534 20.0254 14.0957C20.0254 14.0525 20.0254 14.0092 20.04 13.966V13.9371C20.04 13.9083 20.0546 13.865 20.0546 13.8362C20.0546 13.8218 20.0546 13.8074 20.0546 13.7929C20.0546 13.7641 20.0691 13.7353 20.0691 13.7064C20.0691 13.6776 20.0837 13.6632 20.0837 13.6343C20.0983 13.6055 20.0983 13.5767 20.1129 13.5478C20.1129 13.5334 20.1275 13.519 20.1275 13.5046C20.142 13.4758 20.142 13.4469 20.1566 13.4181L20.1712 13.3748C20.1858 13.346 20.2004 13.3316 20.2004 13.3027C20.2004 13.3027 20.2004 13.3027 20.2004 13.2883L20.215 13.2595C20.2295 13.2162 20.2587 13.1874 20.2733 13.1586C20.2879 13.1297 20.317 13.1009 20.3316 13.0721L20.3462 13.0576C20.3608 13.0432 20.3608 13.0432 20.3754 13.0288C20.3899 13.0144 20.3899 13.0144 20.3899 13C20.4045 12.9856 20.4191 12.9711 20.4337 12.9567C20.4483 12.9423 20.4628 12.9279 20.4628 12.9279C20.4774 12.9135 20.4774 12.9135 20.492 12.8991C20.5066 12.8846 20.5212 12.8702 20.5358 12.8558L20.5649 12.8414C20.5795 12.827 20.6087 12.8125 20.6232 12.7981C20.6378 12.7981 20.6378 12.7981 20.6524 12.7837C20.667 12.7837 20.6816 12.7693 20.6816 12.7693C20.6816 12.7693 20.6962 12.7693 20.6962 12.7549H20.7107C20.7399 12.7549 20.7545 12.7405 20.7836 12.7405C20.8128 12.7405 20.842 12.7405 20.8711 12.7405C21.1774 12.726 21.3961 12.8991 21.5711 13.173Z" fill="white"/>
<path d="M20.0982 12.827C20.0837 12.8414 20.0691 12.8703 20.0545 12.8847C20.0545 12.8991 20.0399 12.8991 20.0399 12.9135C20.0107 12.9423 19.9962 12.9856 19.967 13.0144C19.7774 13.3028 19.6754 13.6776 19.6462 14.0669C19.6462 14.1246 19.6462 14.1678 19.6462 14.2255C19.6462 14.2688 19.6462 14.3264 19.6462 14.3697V14.3841C19.6462 14.3985 19.6462 14.4273 19.6462 14.4418C19.6462 14.4706 19.6462 14.4994 19.6608 14.5283V14.5427C19.6608 14.5571 19.6608 14.5715 19.6608 14.5859C19.6608 14.6148 19.6754 14.6436 19.6754 14.6724V14.7013C19.6754 14.7013 19.6754 14.7013 19.6754 14.7157C19.6754 14.7301 19.6754 14.7445 19.6899 14.759C19.6899 14.7878 19.7045 14.8166 19.7045 14.8455L19.7191 14.8743V14.8887C19.7191 14.9175 19.7337 14.9464 19.7483 14.9752C19.7483 14.9896 19.7629 15.0041 19.7629 15.0185V15.0329C19.7774 15.0617 19.7774 15.0761 19.792 15.105C19.792 15.1194 19.8066 15.1338 19.8212 15.1626V15.1771C19.8212 15.1915 19.8358 15.2059 19.8358 15.2203C19.8503 15.2347 19.8503 15.2491 19.8503 15.2491C19.8649 15.2924 19.8941 15.3357 19.9233 15.3789L19.9378 15.3933C19.967 15.4366 19.9816 15.4654 20.0107 15.4942C20.0107 15.5087 20.0253 15.5087 20.0253 15.5231L20.0399 15.5375C20.0545 15.5663 20.0837 15.5808 20.0982 15.6096C20.1128 15.624 20.1128 15.6384 20.1274 15.6384C20.1566 15.6673 20.1711 15.6817 20.1857 15.7105C20.2003 15.7249 20.2149 15.7249 20.2149 15.7393H18.6838L17.7943 14.2832L18.6692 12.7261H20.2003C20.1857 12.7405 20.1857 12.7405 20.1711 12.7549L20.1566 12.7693C20.142 12.7837 20.1274 12.7982 20.0982 12.827C20.0982 12.827 20.1128 12.827 20.0982 12.827Z" fill="white"/>
<path d="M11.3638 21.1171C11.2034 21.1171 11.0284 21.0883 10.8534 21.0306C10.6638 20.9729 10.4743 20.8864 10.2993 20.7855C9.80351 20.4827 9.45355 20.0502 9.39522 19.6465C9.36606 19.4591 9.4098 19.3005 9.51188 19.1851C9.52646 19.1563 9.55562 19.1419 9.5702 19.1131C9.58479 19.0986 9.59937 19.0986 9.61395 19.0842C9.62853 19.0698 9.62853 19.0698 9.64311 19.0554C9.67228 19.041 9.68686 19.0265 9.71602 19.0121C10.0222 18.868 10.5034 18.8968 10.9701 19.1131L10.9846 19.1275C11.0284 19.1419 11.0721 19.1707 11.1159 19.1851C11.1596 19.1996 11.1888 19.2284 11.2325 19.2572C11.2763 19.2861 11.32 19.3149 11.3638 19.3437C11.4075 19.3726 11.4367 19.4014 11.4804 19.4302L11.5096 19.4447C11.5387 19.4735 11.5679 19.4879 11.5971 19.5167C11.6117 19.5312 11.6117 19.5312 11.6262 19.5456C11.6554 19.56 11.67 19.5888 11.6846 19.6032C11.6991 19.6177 11.7137 19.6321 11.7283 19.6609C11.7429 19.6898 11.7721 19.7042 11.7866 19.733C11.8012 19.7474 11.8012 19.7474 11.8158 19.7618C11.8304 19.7907 11.8595 19.8051 11.8741 19.8339L11.9033 19.8628C11.9179 19.8916 11.9325 19.906 11.947 19.9349V19.9493L11.9616 19.9781C11.9908 20.0069 12.0054 20.0502 12.0199 20.079C12.0345 20.1079 12.0491 20.1511 12.0637 20.18L12.0783 20.1944C12.0783 20.2088 12.0929 20.2232 12.0929 20.2232C12.0929 20.2376 12.0929 20.2376 12.1074 20.252C12.1074 20.2809 12.122 20.2953 12.122 20.3241C12.122 20.353 12.1366 20.353 12.1366 20.3674C12.1366 20.3818 12.1366 20.3962 12.1366 20.3962C12.1366 20.425 12.1366 20.4395 12.1366 20.4539V20.4827C12.1366 20.5116 12.1366 20.526 12.1366 20.5548C12.1366 20.5692 12.1366 20.5692 12.1366 20.5836C12.1366 20.5981 12.1366 20.6125 12.1366 20.6125C12.1366 20.6269 12.1366 20.6269 12.1366 20.6413V20.6557C12.1366 20.6846 12.122 20.699 12.1074 20.7278C12.0929 20.7567 12.0783 20.7711 12.0637 20.7999C11.9616 21.0162 11.6846 21.1315 11.3638 21.1171Z" fill="white"/>
<path d="M12.4283 20.0646C12.4283 20.0358 12.4137 20.0214 12.3992 19.9925C12.3992 19.9781 12.3992 19.9781 12.3846 19.9637C12.37 19.9205 12.3554 19.8916 12.3262 19.8484C12.1658 19.5456 11.9034 19.2572 11.5826 19.0266C11.5388 18.9977 11.4951 18.9689 11.4513 18.9401C11.4076 18.9112 11.3639 18.8824 11.3201 18.868H11.3055C11.2909 18.8536 11.2764 18.8536 11.2618 18.8391C11.2326 18.8247 11.218 18.8103 11.1889 18.7959H11.1743C11.1597 18.7959 11.1451 18.7815 11.1305 18.7815C11.1014 18.767 11.0722 18.7526 11.0431 18.7526L11.0139 18.7382C11.0139 18.7382 11.0139 18.7382 10.9993 18.7382C10.9847 18.7382 10.9701 18.7238 10.9556 18.7238C10.9264 18.7094 10.8972 18.7094 10.8681 18.695L10.8389 18.6805H10.8243C10.7952 18.6661 10.766 18.6661 10.7368 18.6517C10.7223 18.6517 10.7077 18.6373 10.6785 18.6373H10.6639C10.6348 18.6373 10.6056 18.6229 10.591 18.6229C10.5764 18.6229 10.5473 18.6229 10.5327 18.6085H10.5181C10.5035 18.6085 10.4889 18.6085 10.4744 18.594C10.4598 18.594 10.4452 18.594 10.4306 18.594C10.3869 18.594 10.3285 18.5796 10.2848 18.5796H10.2702C10.2265 18.5796 10.1827 18.5796 10.139 18.5796C10.1244 18.5796 10.1098 18.5796 10.1098 18.5796H10.0952C10.0661 18.5796 10.0369 18.5796 10.0077 18.594C9.99316 18.594 9.97858 18.594 9.964 18.6085C9.93484 18.6085 9.90567 18.6229 9.87651 18.6229C9.86193 18.6229 9.84735 18.6373 9.83276 18.6373L10.6348 17.3541L12.3554 17.3685L13.2449 18.9256L12.4429 20.2232C12.4429 20.2088 12.4429 20.1944 12.4283 20.18C12.4283 20.1656 12.4283 20.1656 12.4283 20.1511C12.4283 20.1367 12.4137 20.1223 12.4137 20.0935C12.4283 20.079 12.4283 20.0646 12.4283 20.0646Z" fill="white"/>
<path d="M15.4759 21.8812L11.2763 21.8668L10.6347 23.0634L10.1973 23.8852L11.3201 23.8708V23.8852L17.736 23.8996L18.3776 22.8039L13.7552 14.9752L4.58327 14.9608L4 15.97L4.11665 16.1574H4.10207L7.74752 22.5011L8.95781 20.5548L6.82887 16.9792H12.5887L15.4759 21.8812Z" fill="white"/>
</svg>
