<svg width="40" height="40" viewBox="0 0 40 40" fill="none" xmlns="http://www.w3.org/2000/svg">
<rect width="40" height="40" rx="8" fill="#FFF6DB"/>
<path d="M30.625 27.083L29.4443 28.3746C28.8181 29.0594 27.9689 29.4441 27.0835 29.4441C26.198 29.4441 25.3489 29.0594 24.7227 28.3746C24.0956 27.6911 23.2465 27.3074 22.3613 27.3074C21.4761 27.3074 20.627 27.6911 20 28.3746M9.375 29.4441H11.3519C11.9294 29.4441 12.2182 29.4441 12.4899 29.3789C12.7308 29.321 12.9611 29.2256 13.1724 29.0962C13.4106 28.9502 13.6148 28.746 14.0232 28.3376L28.8542 13.5066C29.8322 12.5286 29.8322 10.943 28.8542 9.96495C27.8762 8.98694 26.2905 8.98695 25.3125 9.96495L10.4815 24.796C10.0731 25.2043 9.86895 25.4085 9.72293 25.6468C9.59348 25.858 9.49808 26.0883 9.44024 26.3293C9.375 26.601 9.375 26.8897 9.375 27.4673V29.4441Z" stroke="#FFC211" stroke-width="1.5" stroke-linecap="round" stroke-linejoin="round"/>
</svg>
