<svg width="32" height="32" viewBox="0 0 32 32" fill="none" xmlns="http://www.w3.org/2000/svg">
<g filter="url(#filter0_d_1855_534964)">
<path d="M7 8L19 8M19 8C19 9.65686 20.3431 11 22 11C23.6569 11 25 9.65685 25 8C25 6.34315 23.6569 5 22 5C20.3431 5 19 6.34315 19 8ZM13 16L25 16M13 16C13 17.6569 11.6569 19 10 19C8.34315 19 7 17.6569 7 16C7 14.3431 8.34315 13 10 13C11.6569 13 13 14.3431 13 16Z" stroke="black" stroke-opacity="0.88" stroke-width="1.5" stroke-linecap="round" stroke-linejoin="round"/>
</g>
<defs>
<filter id="filter0_d_1855_534964" x="0" y="0" width="32" height="32" filterUnits="userSpaceOnUse" color-interpolation-filters="sRGB">
<feFlood flood-opacity="0" result="BackgroundImageFix"/>
<feColorMatrix in="SourceAlpha" type="matrix" values="0 0 0 0 0 0 0 0 0 0 0 0 0 0 0 0 0 0 127 0" result="hardAlpha"/>
<feOffset dy="4"/>
<feGaussianBlur stdDeviation="2"/>
<feComposite in2="hardAlpha" operator="out"/>
<feColorMatrix type="matrix" values="0 0 0 0 0 0 0 0 0 0 0 0 0 0 0 0 0 0 0.25 0"/>
<feBlend mode="normal" in2="BackgroundImageFix" result="effect1_dropShadow_1855_534964"/>
<feBlend mode="normal" in="SourceGraphic" in2="effect1_dropShadow_1855_534964" result="shape"/>
</filter>
</defs>
</svg>
