<svg width="20" height="20" viewBox="0 0 20 20" fill="none" xmlns="http://www.w3.org/2000/svg">
<path fill-rule="evenodd" clip-rule="evenodd" d="M4.1665 2.49967C4.62673 2.49967 4.99983 2.87277 4.99983 3.33301C4.99983 3.79324 4.62673 4.16634 4.1665 4.16634C3.70626 4.16634 3.33316 3.79324 3.33316 3.33301C3.33316 2.87277 3.70626 2.49967 4.1665 2.49967ZM6.52445 2.50028C6.18143 1.52897 5.25524 0.833008 4.1665 0.833008C2.78578 0.833008 1.6665 1.9523 1.6665 3.33301C1.6665 4.71372 2.78578 5.83301 4.1665 5.83301C5.25475 5.83301 6.1806 5.13766 6.52399 4.16703C6.96442 4.16882 7.29883 4.17515 7.57397 4.19763C7.93931 4.22748 8.12615 4.28159 8.25648 4.348C8.57008 4.50779 8.82505 4.76275 8.98484 5.07636C9.05125 5.20669 9.10535 5.39353 9.1352 5.75887C9.16585 6.13395 9.1665 6.61919 9.1665 7.33301V9.16634H6.52424C6.18104 8.19535 5.25501 7.49967 4.1665 7.49967C2.78578 7.49967 1.6665 8.61896 1.6665 9.99967C1.6665 11.3804 2.78578 12.4997 4.1665 12.4997C5.25501 12.4997 6.18104 11.804 6.52424 10.833H9.1665V12.6663C9.1665 13.3802 9.16585 13.8654 9.1352 14.2405C9.10535 14.6058 9.05125 14.7927 8.98484 14.923C8.82505 15.2366 8.57008 15.4916 8.25648 15.6514C8.12615 15.7178 7.93931 15.7719 7.57397 15.8017C7.29883 15.8242 6.96442 15.8305 6.524 15.8323C6.1806 14.8617 5.25475 14.1663 4.1665 14.1663C2.78578 14.1663 1.6665 15.2856 1.6665 16.6663C1.6665 18.0471 2.78578 19.1663 4.1665 19.1663C5.25524 19.1663 6.18142 18.4704 6.52445 17.4991C6.98053 17.4973 7.37361 17.4903 7.70968 17.4628C8.1781 17.4246 8.60869 17.3424 9.01313 17.1364C9.64034 16.8168 10.1503 16.3068 10.4698 15.6796C10.6759 15.2752 10.758 14.8446 10.7963 14.3762C10.8332 13.9252 10.8332 13.3716 10.8331 12.7008V10.833H13.4754C13.8186 11.804 14.7446 12.4997 15.8331 12.4997C17.2139 12.4997 18.3331 11.3804 18.3331 9.99967C18.3331 8.61896 17.2139 7.49967 15.8331 7.49967C14.7446 7.49967 13.8186 8.19535 13.4754 9.16634H10.8331V7.29859C10.8332 6.62778 10.8332 6.07415 10.7963 5.62315C10.758 5.15474 10.6759 4.72415 10.4698 4.31971C10.1503 3.6925 9.64034 3.18256 9.01313 2.86299C8.60869 2.65691 8.1781 2.57477 7.70968 2.5365C7.37361 2.50904 6.98054 2.50205 6.52445 2.50028ZM15.8331 9.16634C16.2934 9.16634 16.6665 9.53944 16.6665 9.99967C16.6665 10.4599 16.2934 10.833 15.8331 10.833C15.3729 10.833 14.9998 10.4599 14.9998 9.99967C14.9998 9.53944 15.3729 9.16634 15.8331 9.16634ZM4.1665 9.16634C4.62673 9.16634 4.99983 9.53944 4.99983 9.99967C4.99983 10.4599 4.62673 10.833 4.1665 10.833C3.70626 10.833 3.33316 10.4599 3.33316 9.99967C3.33316 9.53944 3.70626 9.16634 4.1665 9.16634ZM4.1665 15.833C4.62673 15.833 4.99983 16.2061 4.99983 16.6663C4.99983 17.1266 4.62673 17.4997 4.1665 17.4997C3.70626 17.4997 3.33316 17.1266 3.33316 16.6663C3.33316 16.2061 3.70626 15.833 4.1665 15.833Z" fill="black"/>
</svg>
